<svg xmlns="http://www.w3.org/2000/svg" width="1100" height="1544.221" viewBox="0 0 1100 1544.221">
  <g id="Grupo_136513" data-name="Grupo 136513" transform="translate(-229 -586)">
    <g id="Grupo_136487" data-name="Grupo 136487">
      <g id="Grupo_136486" data-name="Grupo 136486">
        <rect id="Rectángulo_43567" data-name="Rectángulo 43567" width="170" height="48" rx="12" transform="translate(1135 1199)" fill="#b13e8d"/>
        <rect id="Rectángulo_43569" data-name="Rectángulo 43569" width="204" height="48.5" rx="12" transform="translate(1125 1014.75)" fill="#b13e8d"/>
        <g id="Grupo_136485" data-name="Grupo 136485">
          <rect id="Rectángulo_43567-2" data-name="Rectángulo 43567" width="149" height="48" rx="12" transform="translate(726 1199)" fill="#b13e8d"/>
          <rect id="Rectángulo_43568" data-name="Rectángulo 43568" width="165" height="48" rx="12" transform="translate(718 1015)" fill="#b13e8d"/>
          <g id="Grupo_136484" data-name="Grupo 136484">
            <rect id="Rectángulo_43567-3" data-name="Rectángulo 43567" width="149" height="48" rx="12" transform="translate(326 1015)" fill="#b13e8d"/>
            <rect id="Rectángulo_43567-4" data-name="Rectángulo 43567" width="149" height="48" rx="12" transform="translate(326 1199)" fill="#b13e8d"/>
            <rect id="Rectángulo_43570" data-name="Rectángulo 43570" width="153" height="61" rx="12" transform="translate(229 1388)" fill="#f7ca18"/>
            <rect id="Rectángulo_43570-2" data-name="Rectángulo 43570" width="141" height="81" rx="12" transform="translate(649 1388)" fill="#f7ca18"/>
            <g id="Grupo_136483" data-name="Grupo 136483">
              <path id="Trazado_183774" data-name="Trazado 183774" d="M0,0V53.756" transform="translate(800.5 709.221) rotate(180)" fill="none" stroke="#707070" stroke-width="2"/>
              <path id="Trazado_183774-2" data-name="Trazado 183774" d="M0,0V53.756" transform="translate(800.5 893.756) rotate(180)" fill="none" stroke="#707070" stroke-width="2"/>
              <path id="Trazado_183774-3" data-name="Trazado 183774" d="M0,0V53.756" transform="translate(400.5 1116.756) rotate(180)" fill="none" stroke="#707070" stroke-width="2"/>
              <path id="Trazado_183774-4" data-name="Trazado 183774" d="M0,0V53.756" transform="translate(400.5 1300.756) rotate(180)" fill="none" stroke="#707070" stroke-width="2"/>
              <path id="Trazado_183774-5" data-name="Trazado 183774" d="M0,0V53.756" transform="translate(305.5 1510.756) rotate(180)" fill="none" stroke="#707070" stroke-width="2"/>
              <path id="Trazado_183774-6" data-name="Trazado 183774" d="M0,0V53.756" transform="translate(305.5 1593.291) rotate(180)" fill="none" stroke="#707070" stroke-width="2"/>
              <path id="Trazado_183774-7" data-name="Trazado 183774" d="M0,0V53.756" transform="translate(495 1605.291) rotate(180)" fill="none" stroke="#707070" stroke-width="2"/>
              <path id="Trazado_183774-8" data-name="Trazado 183774" d="M0,0V53.756" transform="translate(719.5 1605.291) rotate(180)" fill="none" stroke="#707070" stroke-width="2"/>
              <path id="Trazado_183774-9" data-name="Trazado 183774" d="M0,0V53.756" transform="translate(800.5 1806.256) rotate(180)" fill="none" stroke="#707070" stroke-width="2"/>
              <path id="Trazado_183774-10" data-name="Trazado 183774" d="M0,0V53.756" transform="translate(800.5 1895.256) rotate(180)" fill="none" stroke="#707070" stroke-width="2"/>
              <path id="Trazado_183774-11" data-name="Trazado 183774" d="M0,0V53.756" transform="translate(800 2007.977) rotate(180)" fill="none" stroke="#707070" stroke-width="2"/>
              <path id="Trazado_183774-12" data-name="Trazado 183774" d="M0,0V53.756" transform="translate(800 2092.221) rotate(180)" fill="none" stroke="#707070" stroke-width="2"/>
              <path id="Trazado_183774-13" data-name="Trazado 183774" d="M0,0V53.756" transform="translate(931.5 1585.291) rotate(180)" fill="none" stroke="#707070" stroke-width="2"/>
              <path id="Trazado_183774-14" data-name="Trazado 183774" d="M0,0V53.756" transform="translate(1220.5 1583.559) rotate(180)" fill="none" stroke="#707070" stroke-width="2"/>
              <path id="Trazado_183774-15" data-name="Trazado 183774" d="M0,0V53.756" transform="translate(495.5 1522.756) rotate(180)" fill="none" stroke="#707070" stroke-width="2"/>
              <path id="Trazado_183774-16" data-name="Trazado 183774" d="M0,0V53.756" transform="translate(719.5 1522.756) rotate(180)" fill="none" stroke="#707070" stroke-width="2"/>
              <path id="Trazado_183774-17" data-name="Trazado 183774" d="M0,0V62.535" transform="translate(930.5 1509.535) rotate(180)" fill="none" stroke="#707070" stroke-width="2"/>
              <path id="Trazado_183774-18" data-name="Trazado 183774" d="M0,0V53.756" transform="translate(910.5 1442.256) rotate(180)" fill="none" stroke="#707070" stroke-width="2"/>
              <path id="Trazado_183774-19" data-name="Trazado 183774" d="M0,0V53.756" transform="translate(1220 1442.256) rotate(180)" fill="none" stroke="#707070" stroke-width="2"/>
              <path id="Trazado_183774-20" data-name="Trazado 183774" d="M0,0V53.756" transform="translate(800 1300.756) rotate(180)" fill="none" stroke="#707070" stroke-width="2"/>
              <path id="Trazado_183774-21" data-name="Trazado 183774" d="M0,0V53.756" transform="translate(1220 1300.756) rotate(180)" fill="none" stroke="#707070" stroke-width="2"/>
              <path id="Trazado_183774-22" data-name="Trazado 183774" d="M0,0V53.756" transform="translate(1220 1390.07) rotate(180)" fill="none" stroke="#707070" stroke-width="2"/>
              <path id="Trazado_183774-23" data-name="Trazado 183774" d="M0,0V53.756" transform="translate(800 1116.756) rotate(180)" fill="none" stroke="#707070" stroke-width="2"/>
              <path id="Trazado_183774-24" data-name="Trazado 183774" d="M0,0V53.756" transform="translate(1220 1116.756) rotate(180)" fill="none" stroke="#707070" stroke-width="2"/>
              <path id="Trazado_183774-25" data-name="Trazado 183774" d="M0,0V53.756" transform="translate(800.5 791.756) rotate(180)" fill="none" stroke="#707070" stroke-width="2"/>
              <path id="Trazado_183774-26" data-name="Trazado 183774" d="M0,0V92.465" transform="translate(800.5 1015) rotate(180)" fill="none" stroke="#707070" stroke-width="2"/>
              <path id="Trazado_183774-27" data-name="Trazado 183774" d="M0,0V53.756" transform="translate(400.5 1199.291) rotate(180)" fill="none" stroke="#707070" stroke-width="2"/>
              <path id="Trazado_183774-28" data-name="Trazado 183774" d="M0,0V53.756" transform="translate(800 1199.291) rotate(180)" fill="none" stroke="#707070" stroke-width="2"/>
              <path id="Trazado_183774-29" data-name="Trazado 183774" d="M0,0V53.756" transform="translate(1220 1199.291) rotate(180)" fill="none" stroke="#707070" stroke-width="2"/>
              <rect id="Rectángulo_42326" data-name="Rectángulo 42326" width="609" height="75" rx="14" transform="translate(495 586)" fill="#3e2072"/>
              <g id="Rectángulo_43566" data-name="Rectángulo 43566" transform="translate(657 792)" fill="none" stroke="#b13e8d" stroke-width="1">
                <rect width="287" height="48" rx="12" stroke="none"/>
                <rect x="0.5" y="0.5" width="286" height="47" rx="11.5" fill="none"/>
              </g>
              <rect id="Rectángulo_43570-3" data-name="Rectángulo 43570" width="161" height="61" rx="12" transform="translate(830 1388)" fill="#f7ca18"/>
              <rect id="Rectángulo_43571" data-name="Rectángulo 43571" width="129" height="39" rx="5" transform="translate(241 1610)" fill="#d9ccef"/>
              <rect id="Rectángulo_43572" data-name="Rectángulo 43572" width="129" height="39" rx="5" transform="translate(431 1610)" fill="#d9ccef"/>
              <rect id="Rectángulo_43573" data-name="Rectángulo 43573" width="129" height="56" rx="5" transform="translate(655 1610)" fill="#d9ccef"/>
              <rect id="Rectángulo_43574" data-name="Rectángulo 43574" width="133" height="39" rx="5" transform="translate(867 1610)" fill="#d9ccef"/>
              <rect id="Rectángulo_43575" data-name="Rectángulo 43575" width="129" height="39" rx="5" transform="translate(1156 1610)" fill="#d9ccef"/>
              <rect id="Rectángulo_43576" data-name="Rectángulo 43576" width="175" height="60" rx="5" transform="translate(712 1894.221)" fill="#7fc733"/>
              <rect id="Rectángulo_43577" data-name="Rectángulo 43577" width="226" height="39" rx="5" transform="translate(687 2091.221)" fill="#6836bf"/>
              <line id="Línea_441" data-name="Línea 441" y1="63" transform="translate(400.5 951.5)" fill="none" stroke="#707070" stroke-width="1"/>
              <line id="Línea_442" data-name="Línea 442" x2="820" transform="translate(400.5 951.5)" fill="none" stroke="#707070" stroke-width="1"/>
              <line id="Línea_443" data-name="Línea 443" y1="63" transform="translate(1220.5 951.5)" fill="none" stroke="#707070" stroke-width="1"/>
              <line id="Línea_449" data-name="Línea 449" x2="495" y2="102.447" transform="translate(305.5 1649.5)" fill="none" stroke="#707070" stroke-width="2"/>
              <line id="Línea_450" data-name="Línea 450" x2="305" y2="102" transform="translate(495 1650)" fill="none" stroke="#707070" stroke-width="2"/>
              <line id="Línea_451" data-name="Línea 451" x2="81" y2="85" transform="translate(719.5 1666.5)" fill="none" stroke="#707070" stroke-width="2"/>
              <line id="Línea_452" data-name="Línea 452" x1="133" y2="101" transform="translate(800.5 1650.5)" fill="none" stroke="#707070" stroke-width="2"/>
              <line id="Línea_453" data-name="Línea 453" x1="420" y2="103" transform="translate(800.5 1649.5)" fill="none" stroke="#707070" stroke-width="2"/>
              <path id="Trazado_194090" data-name="Trazado 194090" d="M0,0H189.5" transform="translate(305.5 1359.5)" fill="none" stroke="#707070" stroke-width="2"/>
              <path id="Trazado_194091" data-name="Trazado 194091" d="M0,0H176.7" transform="translate(718.304 1359.5)" fill="none" stroke="#707070" stroke-width="2"/>
              <path id="Trazado_183774-30" data-name="Trazado 183774" d="M0,0V31" transform="translate(399.5 1359.5) rotate(180)" fill="none" stroke="#707070" stroke-width="2"/>
              <path id="Trazado_183774-31" data-name="Trazado 183774" d="M0,0V31" transform="translate(799.5 1359.5) rotate(180)" fill="none" stroke="#707070" stroke-width="2"/>
              <path id="Trazado_183774-32" data-name="Trazado 183774" d="M0,0V28.5" transform="translate(495 1388) rotate(180)" fill="none" stroke="#707070" stroke-width="2"/>
              <path id="Trazado_183774-33" data-name="Trazado 183774" d="M0,0V28.5" transform="translate(895 1388) rotate(180)" fill="none" stroke="#707070" stroke-width="2"/>
              <path id="Trazado_183774-34" data-name="Trazado 183774" d="M0,0V28.5" transform="translate(719.5 1388) rotate(180)" fill="none" stroke="#707070" stroke-width="2"/>
              <path id="Trazado_183774-35" data-name="Trazado 183774" d="M11.5,0V28.5" transform="translate(317 1388) rotate(180)" fill="none" stroke="#707070" stroke-width="2"/>
            </g>
            <rect id="Rectángulo_43570-4" data-name="Rectángulo 43570" width="153" height="81" rx="12" transform="translate(419 1388)" fill="#f7ca18"/>
          </g>
        </g>
      </g>
      <rect id="Rectángulo_43570-5" data-name="Rectángulo 43570" width="205" height="61" rx="12" transform="translate(1118 1388)" fill="#f7ca18"/>
    </g>
    <text id="brinda" transform="translate(752 716)" fill="#12263f" font-size="16" font-family="Roboto-Regular, Roboto"><tspan x="26.086" y="15">brinda</tspan></text>
    <text id="ORIENTAR" transform="translate(355 1030)" fill="#fff" font-size="16" font-family="Roboto-Bold, Roboto" font-weight="700"><tspan x="-37.965" y="15">ORIENTAR</tspan></text>
    <text id="Procesos" transform="translate(355 1214)" fill="#fff" font-size="16" font-family="Roboto-Bold, Roboto" font-weight="700"><tspan x="-33.707" y="15">Procesos</tspan></text>
    <text id="Estratégias" transform="translate(755 1214)" fill="#fff" font-size="16" font-family="Roboto-Bold, Roboto" font-weight="700"><tspan x="-40.523" y="15">Estratégias</tspan></text>
    <text id="Departamentos" transform="translate(1164 1214)" fill="#fff" font-size="16" font-family="Roboto-Bold, Roboto" font-weight="700"><tspan x="-55.375" y="15">Departamentos</tspan></text>
    <text id="DISEÑAR" transform="translate(747 1030)" fill="#fff" font-size="16" font-family="Roboto-Bold, Roboto" font-weight="700"><tspan x="-33.156" y="15">DISEÑAR</tspan></text>
    <text id="ESTRUCTURAR" transform="translate(1167 1027.75)" fill="#fff" font-size="16" font-family="Roboto-Bold, Roboto" font-weight="700"><tspan x="4.332" y="15">ESTRUCTURAR</tspan></text>
    <text id="NORMATIVIDAD" transform="translate(240 1409)" fill="#12263f" font-size="16" font-family="Roboto-Bold, Roboto" font-weight="700"><tspan x="-58.813" y="15">NORMATIVIDAD</tspan></text>
    <text id="PLANES_DE_TRABAJO" data-name="PLANES DE 
TRABAJO" transform="translate(660 1409)" fill="#12263f" font-size="16" font-family="Roboto-Bold, Roboto" font-weight="700"><tspan x="-41.707" y="15">PLANES DE </tspan><tspan x="-35.918" y="35">TRABAJO</tspan></text>
    <text id="RECURSOS_HUMANOS" data-name="RECURSOS  HUMANOS" transform="translate(1129 1409)" fill="#12263f" font-size="16" font-family="Roboto-Bold, Roboto" font-weight="700"><tspan x="-84.023" y="15" xml:space="preserve">RECURSOS  HUMANOS</tspan></text>
    <text id="para" transform="translate(752 900.535)" fill="#12263f" font-size="16" font-family="Roboto-Regular, Roboto"><tspan x="32.758" y="15">para</tspan></text>
    <text id="los" transform="translate(352 1123.535)" fill="#12263f" font-size="16" font-family="Roboto-Regular, Roboto"><tspan x="37.871" y="15">los</tspan></text>
    <text id="con" transform="translate(352 1307.535)" fill="#12263f" font-size="16" font-family="Roboto-Regular, Roboto"><tspan x="35.336" y="15">con</tspan></text>
    <text id="da" transform="translate(257 1517.535)" fill="#12263f" font-size="16" font-family="Roboto-Regular, Roboto"><tspan x="39.637" y="15">da</tspan></text>
    <text id="con-2" data-name="con" transform="translate(447 1529.535)" fill="#12263f" font-size="16" font-family="Roboto-Regular, Roboto"><tspan x="35.336" y="15">con</tspan></text>
    <text id="para-2" data-name="para" transform="translate(671 1529.535)" fill="#12263f" font-size="16" font-family="Roboto-Regular, Roboto"><tspan x="-15.742" y="15">para</tspan></text>
    <text id="el" transform="translate(882 1509.535)" fill="#12263f" font-size="16" font-family="Roboto-Regular, Roboto"><tspan x="42.32" y="15">el</tspan></text>
    <text id="con-3" data-name="con" transform="translate(1171.5 1507.803)" fill="#12263f" font-size="16" font-family="Roboto-Regular, Roboto"><tspan x="35.336" y="15">con</tspan></text>
    <text id="de" transform="translate(751.5 1307.535)" fill="#12263f" font-size="16" font-family="Roboto-Regular, Roboto"><tspan x="39.75" y="15">de</tspan></text>
    <text id="como" transform="translate(1171.5 1307.535)" fill="#12263f" font-size="16" font-family="Roboto-Regular, Roboto"><tspan x="28.176" y="15">como</tspan></text>
    <text id="las" transform="translate(751.5 1123.535)" fill="#12263f" font-size="16" font-family="Roboto-Regular, Roboto"><tspan x="38.082" y="15">las</tspan></text>
    <text id="los-2" data-name="los" transform="translate(1171.5 1123.535)" fill="#12263f" font-size="16" font-family="Roboto-Regular, Roboto"><tspan x="37.871" y="15">los</tspan></text>
    <text id="Directrices_a_la_organización" data-name="Directrices a la organización" transform="translate(686 807)" fill="#12263f" font-size="16" font-family="Roboto-Bold, Roboto" font-weight="700"><tspan x="-102.168" y="15">Directrices a la organización</tspan></text>
    <text id="REGISTRO_DE_CALIDAD" data-name="REGISTRO DE CALIDAD" transform="translate(430 1409)" fill="#12263f" font-size="16" font-family="Roboto-Bold, Roboto" font-weight="700"><tspan x="-49.574" y="15">REGISTRO DE </tspan><tspan x="-32.98" y="35">CALIDAD</tspan></text>
    <text id="METODOLOGÍAS" transform="translate(841 1409)" fill="#12263f" font-size="16" font-family="Roboto-Bold, Roboto" font-weight="700"><tspan x="-60.43" y="15">METODOLOGÍAS</tspan></text>
    <text id="DIRECTRICES_" data-name="DIRECTRICES	" transform="translate(250 1619)" fill="#12263f" font-size="16" font-family="Roboto-Bold, Roboto" font-weight="700"><tspan x="-49.297" y="15">DIRECTRICES	</tspan></text>
    <text id="FORMATOS" transform="translate(440 1620)" fill="#12263f" font-size="16" font-family="Roboto-Bold, Roboto" font-weight="700"><tspan x="-42.285" y="15">FORMATOS</tspan></text>
    <text id="DISTRIBUCIÓN_DE_TAREAS" data-name="DISTRIBUCIÓN DE TAREAS" transform="translate(664 1620)" fill="#12263f" font-size="16" font-family="Roboto-Bold, Roboto" font-weight="700"><tspan x="-53.945" y="15">DISTRIBUCIÓN </tspan><tspan x="-41.227" y="35">DE TAREAS</tspan></text>
    <text id="LINEAMIENTOS" transform="translate(876 1620)" fill="#12263f" font-size="16" font-family="Roboto-Bold, Roboto" font-weight="700"><tspan x="-56.852" y="15">LINEAMIENTOS</tspan></text>
    <text id="FUNCIONES" transform="translate(1165 1620)" fill="#12263f" font-size="16" font-family="Roboto-Bold, Roboto" font-weight="700"><tspan x="-43.453" y="15">FUNCIONES</tspan></text>
    <text id="permite" transform="translate(751 1816.756)" fill="#12263f" font-size="16" font-family="Roboto-Regular, Roboto"><tspan x="-27.238" y="15">permite</tspan></text>
    <text id="como-2" data-name="como" transform="translate(751.5 2013.721)" fill="#12263f" font-size="16" font-family="Roboto-Regular, Roboto"><tspan x="-20.324" y="15">como</tspan></text>
    <text id="CONSTRUCCIÓN_DE_PROGRAMAS" data-name="CONSTRUCCIÓN DE PROGRAMAS" transform="translate(727 1904.221)" fill="#12263f" font-size="16" font-family="Roboto-Bold, Roboto" font-weight="700"><tspan x="-72.309" y="15">CONSTRUCCIÓN DE </tspan><tspan x="-49.105" y="35">PROGRAMAS</tspan></text>
    <text id="PROGRAMA_DE_INDUCCIÓN" data-name="PROGRAMA DE INDUCCIÓN" transform="translate(697 2101.221)" fill="#fff" font-size="16" font-family="Roboto-Bold, Roboto" font-weight="700"><tspan x="-100.289" y="15">PROGRAMA DE INDUCCIÓN</tspan></text>
    <text id="Planeación_estratégica" data-name="Planeación estratégica" transform="translate(508 612)" fill="#fff" font-size="20" font-family="Roboto-Bold, Roboto" font-weight="700"><tspan x="-102.949" y="19">Planeación estratégica</tspan></text>
  </g>
</svg>
