<svg xmlns="http://www.w3.org/2000/svg" xmlns:xlink="http://www.w3.org/1999/xlink" width="108" height="108" viewBox="0 0 108 108">
  <defs>
    <filter id="Rect치ngulo_43493" x="0" y="0" width="108" height="108" filterUnits="userSpaceOnUse">
      <feOffset dy="3" input="SourceAlpha"/>
      <feGaussianBlur stdDeviation="3" result="blur"/>
      <feFlood flood-opacity="0.161"/>
      <feComposite operator="in" in2="blur"/>
      <feComposite in="SourceGraphic"/>
    </filter>
  </defs>
  <g id="Grupo_136467" data-name="Grupo 136467" transform="translate(-537 -1168)">
    <g transform="matrix(1, 0, 0, 1, 537, 1168)" filter="url(#Rect치ngulo_43493)">
      <path id="Rect치ngulo_43493-2" data-name="Rect치ngulo 43493" d="M10,0H80A10,10,0,0,1,90,10V90a0,0,0,0,1,0,0H10A10,10,0,0,1,0,80V10A10,10,0,0,1,10,0Z" transform="translate(9 6)" fill="#f6f6f6"/>
    </g>
    <g id="objetivo_1_" data-name="objetivo (1)" transform="translate(556.801 1183.555)">
      <g id="Grupo_136242" data-name="Grupo 136242" transform="translate(0 7.445)">
        <g id="Grupo_136241" data-name="Grupo 136241">
          <path id="Trazado_194147" data-name="Trazado 194147" d="M13.435,25.19l-1.9,1.9-.87-.87a1.087,1.087,0,0,0-1.537,1.537L10.762,29.4a1.087,1.087,0,0,0,1.537,0l2.673-2.673a1.087,1.087,0,0,0-1.537-1.537Z" transform="translate(-2.425 -12.244)" fill="#6836bf"/>
          <path id="Trazado_194148" data-name="Trazado 194148" d="M22.744,28.89H37.919a1.087,1.087,0,1,0,0-2.174H22.744a1.087,1.087,0,1,0,0,2.174Z" transform="translate(-5.964 -12.752)" fill="#6836bf"/>
          <path id="Trazado_194149" data-name="Trazado 194149" d="M13.435,34.442l-1.9,1.9-.87-.87a1.087,1.087,0,0,0-1.537,1.537l1.638,1.638a1.087,1.087,0,0,0,1.537,0l2.673-2.673a1.087,1.087,0,0,0-1.537-1.537Z" transform="translate(-2.425 -14.792)" fill="#6836bf"/>
          <path id="Trazado_194150" data-name="Trazado 194150" d="M22.744,38.142H37.919a1.087,1.087,0,1,0,0-2.174H22.744a1.087,1.087,0,1,0,0,2.174Z" transform="translate(-5.964 -15.3)" fill="#6836bf"/>
          <path id="Trazado_194151" data-name="Trazado 194151" d="M13.435,43.694l-1.9,1.9-.87-.87a1.087,1.087,0,0,0-1.537,1.537L10.762,47.9a1.087,1.087,0,0,0,1.537,0l2.673-2.673a1.087,1.087,0,0,0-1.537-1.537Z" transform="translate(-2.425 -17.34)" fill="#6836bf"/>
          <path id="Trazado_194152" data-name="Trazado 194152" d="M13.435,52.945l-1.9,1.9-.87-.87a1.087,1.087,0,0,0-1.537,1.537l1.638,1.638a1.087,1.087,0,0,0,1.537,0l2.673-2.673a1.087,1.087,0,0,0-1.537-1.537Z" transform="translate(-2.425 -19.888)" fill="#6836bf"/>
          <path id="Trazado_194153" data-name="Trazado 194153" d="M13.435,62.2l-1.9,1.9-.87-.87a1.087,1.087,0,0,0-1.537,1.537l1.638,1.638a1.087,1.087,0,0,0,1.537,0l2.673-2.673A1.087,1.087,0,0,0,13.435,62.2Z" transform="translate(-2.425 -22.436)" fill="#6836bf"/>
          <path id="Trazado_194154" data-name="Trazado 194154" d="M13.435,71.449l-1.9,1.9-.87-.87a1.087,1.087,0,0,0-1.537,1.537l1.638,1.638a1.087,1.087,0,0,0,1.537,0l2.673-2.673a1.087,1.087,0,0,0-1.537-1.537Z" transform="translate(-2.425 -24.984)" fill="#6836bf"/>
          <path id="Trazado_194155" data-name="Trazado 194155" d="M72.8,50.8l1.164-2.092a1.811,1.811,0,0,0-1.583-2.692H67.259a1.814,1.814,0,0,0-1.344.6l-2.8,3.1h-1.19A20.061,20.061,0,0,0,39.422,30.9V9.981a2.539,2.539,0,0,0-2.536-2.536H2.536A2.539,2.539,0,0,0,0,9.981V65.232a1.813,1.813,0,0,0,1.811,1.811H10a1.087,1.087,0,1,0,0-2.174H2.174V17.051H27.39a1.087,1.087,0,0,0,0-2.174H2.174v-4.9a.363.363,0,0,1,.362-.362h34.35a.363.363,0,0,1,.362.362v4.9H32.462a1.087,1.087,0,0,0,0,2.174h4.786V31.288A19.985,19.985,0,0,0,29.8,34.817H16.78a1.087,1.087,0,0,0,0,2.174H27.365a20.156,20.156,0,0,0-3.244,4.53H16.78a1.087,1.087,0,0,0,0,2.174h6.363a19.886,19.886,0,0,0-1.136,4.53H16.78a1.087,1.087,0,0,0,0,2.174h5.067c0,.133-.005.267-.005.4a20.064,20.064,0,0,0,.428,4.13H16.779a1.087,1.087,0,0,0,0,2.174h6.078a20.087,20.087,0,0,0,4.764,7.768H15.072a1.087,1.087,0,1,0,0,2.174H30.151A20.044,20.044,0,0,0,61.924,51.885h1.19l2.8,3.1a1.814,1.814,0,0,0,1.344.6h5.126a1.811,1.811,0,0,0,1.583-2.692ZM52.243,43.425a12.593,12.593,0,0,1,2.316,6.286H51.545a9.709,9.709,0,1,0,0,2.174H54.56a12.72,12.72,0,1,1-5.685-11.7,1.087,1.087,0,1,0,1.2-1.815,14.879,14.879,0,1,0,6.669,13.518h3.005a17.882,17.882,0,1,1,0-2.174H56.74a14.755,14.755,0,0,0-2.729-7.55,1.087,1.087,0,0,0-1.769,1.264ZM41.9,51.885h2.095a2.362,2.362,0,1,1,0-2.174H41.9a1.087,1.087,0,1,0,0,2.174Zm0-5.623a4.536,4.536,0,1,0,4.4,5.623h3.053a7.535,7.535,0,1,1,0-2.174H46.3A4.543,4.543,0,0,0,41.9,46.263Zm28.713,5.064,1.158,2.082H67.42l-1.376-1.524h1.721a1.087,1.087,0,1,0,0-2.174H66.043l1.376-1.524h4.349L70.611,50.27a1.086,1.086,0,0,0,0,1.056Z" transform="translate(0 -7.445)" fill="#6836bf"/>
        </g>
      </g>
    </g>
  </g>
</svg>
