<svg xmlns="http://www.w3.org/2000/svg" xmlns:xlink="http://www.w3.org/1999/xlink" width="650" height="403" viewBox="0 0 650 403">
  <defs>
    <linearGradient id="linear-gradient" x1="-143.825" y1="0.853" x2="-144.532" y2="0.146" gradientUnits="objectBoundingBox">
      <stop offset="0" stop-color="#e9e8e8"/>
      <stop offset="1" stop-color="#fff"/>
    </linearGradient>
    <linearGradient id="linear-gradient-2" x1="-146.421" y1="0.853" x2="-147.127" y2="0.146" xlink:href="#linear-gradient"/>
    <linearGradient id="linear-gradient-3" x1="-149.046" y1="0.853" x2="-149.754" y2="0.146" xlink:href="#linear-gradient"/>
    <linearGradient id="linear-gradient-4" x1="-151.611" y1="0.853" x2="-152.318" y2="0.146" xlink:href="#linear-gradient"/>
  </defs>
  <g id="Grupo_136511" data-name="Grupo 136511" transform="translate(-475 -464)">
    <path id="Trazado_194948" data-name="Trazado 194948" d="M22,0H628a22,22,0,0,1,22,22V381a22,22,0,0,1-22,22H22A22,22,0,0,1,0,381V22A22,22,0,0,1,22,0Z" transform="translate(475 464)" fill="#f3f9ff"/>
    <path id="Trazado_194960" data-name="Trazado 194960" d="M11.663,0H8.6V-5.344H4.052V0H.967V-12.8H4.052v5.08H8.6V-12.8h3.067Zm7.479-1.028A3.054,3.054,0,0,1,16.6.176a3,3,0,0,1-2.369-.91,3.826,3.826,0,0,1-.8-2.615V-9.51h2.962v6.179a1.065,1.065,0,0,0,1.187,1.222,1.548,1.548,0,0,0,1.45-.729V-9.51h2.979V0H19.23ZM26.429-9.51l.1,1.116a3.27,3.27,0,0,1,2.716-1.292,2.407,2.407,0,0,1,2.435,1.433,3.165,3.165,0,0,1,2.795-1.433q2.892,0,2.971,3.5V0H34.471V-6a1.813,1.813,0,0,0-.246-1.063,1.048,1.048,0,0,0-.9-.334,1.4,1.4,0,0,0-1.31.782l.009.123V0H29.057V-5.985a1.906,1.906,0,0,0-.237-1.081,1.045,1.045,0,0,0-.905-.334,1.42,1.42,0,0,0-1.3.782V0H23.651V-9.51ZM44.49,0a3.344,3.344,0,0,1-.281-.853A2.754,2.754,0,0,1,41.924.176a3.374,3.374,0,0,1-2.285-.813,2.588,2.588,0,0,1-.94-2.043,2.66,2.66,0,0,1,1.143-2.338,5.821,5.821,0,0,1,3.322-.791h.914v-.5q0-1.316-1.134-1.316a.927.927,0,0,0-1.055,1.042H38.927A2.655,2.655,0,0,1,40.1-8.825a4.931,4.931,0,0,1,2.993-.86,4.323,4.323,0,0,1,2.874.888,3.086,3.086,0,0,1,1.081,2.435v4.21a4.311,4.311,0,0,0,.4,2V0ZM42.636-1.934a1.652,1.652,0,0,0,.918-.237,1.487,1.487,0,0,0,.523-.536V-4.228h-.861q-1.547,0-1.547,1.389a.848.848,0,0,0,.272.655A.986.986,0,0,0,42.636-1.934ZM51.486-9.51l.1,1.116A3.27,3.27,0,0,1,54.3-9.686a2.407,2.407,0,0,1,2.435,1.433,3.165,3.165,0,0,1,2.795-1.433q2.892,0,2.971,3.5V0H59.528V-6a1.813,1.813,0,0,0-.246-1.063,1.048,1.048,0,0,0-.9-.334,1.4,1.4,0,0,0-1.31.782l.009.123V0H54.114V-5.985a1.906,1.906,0,0,0-.237-1.081,1.045,1.045,0,0,0-.905-.334,1.42,1.42,0,0,0-1.3.782V0H48.709V-9.51ZM63.817-4.843a5.613,5.613,0,0,1,.554-2.536,3.96,3.96,0,0,1,1.591-1.709,4.791,4.791,0,0,1,2.435-.6,4.373,4.373,0,0,1,3.366,1.323,5.076,5.076,0,0,1,1.23,3.6v.105a4.925,4.925,0,0,1-1.235,3.529A4.384,4.384,0,0,1,68.414.176a4.434,4.434,0,0,1-3.261-1.217,4.761,4.761,0,0,1-1.327-3.3Zm2.962.185a3.538,3.538,0,0,0,.413,1.934,1.376,1.376,0,0,0,1.222.615q1.582,0,1.617-2.435v-.3Q70.031-7.4,68.4-7.4q-1.485,0-1.608,2.206Z" transform="translate(536 803.798)" fill="#12263f"/>
    <path id="Trazado_194728" data-name="Trazado 194728" d="M325.991,95.52c.13,30.823,20.781,45.683,50.063,36.014l-52.545,73c-.146-30.823-20.781-45.7-50.079-36.03Z" transform="translate(625.077 521.365)" fill="#532b98"/>
    <path id="Trazado_194729" data-name="Trazado 194729" d="M180.6,131.534c29.282,9.734,49.917-5.175,50.063-36.014l52.561,73c-29.3-9.734-49.933,5.175-50.079,36.03Z" transform="translate(567.312 521.365)" fill="#6836bf"/>
    <path id="Trazado_194730" data-name="Trazado 194730" d="M137.839,204.572c-.146-30.823-20.8-45.7-50.079-36.03l52.545-73c.146,30.823,20.781,45.683,50.079,36.014Z" transform="translate(509.542 521.378)" fill="#cab8e9"/>
    <path id="Trazado_194949" data-name="Trazado 194949" d="M76.538,0A76.538,76.538,0,1,1,0,76.538,76.538,76.538,0,0,1,76.538,0Z" transform="translate(641.328 795.555) rotate(-85.27)" fill="#6836bf"/>
    <path id="Trazado_194950" data-name="Trazado 194950" d="M76.538,0A76.538,76.538,0,1,1,0,76.538,76.538,76.538,0,0,1,76.538,0Z" transform="translate(790.056 684.962) rotate(-83.74)" fill="#532b98"/>
    <path id="Trazado_194951" data-name="Trazado 194951" d="M76.538,0A76.538,76.538,0,1,1,0,76.538,76.538,76.538,0,0,1,76.538,0Z" transform="translate(940.659 793.309) rotate(-83.74)" fill="#3e2072"/>
    <path id="Trazado_194952" data-name="Trazado 194952" d="M76.783,0A76.783,76.783,0,1,1,0,76.783,76.783,76.783,0,0,1,76.783,0Z" transform="translate(491 687.055) rotate(-85.426)" fill="#cab8e9"/>
    <path id="Trazado_194731" data-name="Trazado 194731" d="M37.23,117.963A58.028,58.028,0,1,0,95.258,60,58.028,58.028,0,0,0,37.23,117.963Z" transform="translate(478.099 499.263)" fill="url(#linear-gradient)"/>
    <path id="Trazado_194953" data-name="Trazado 194953" d="M55.546,0A55.546,55.546,0,1,1,0,55.546,55.546,55.546,0,0,1,55.546,0Z" transform="translate(513.054 667.642) rotate(-84.92)" fill="#f8f8f8"/>
    <g id="Grupo_136400" data-name="Grupo 136400" transform="translate(665.599 668.019)" opacity="0.4">
      <path id="Trazado_194732" data-name="Trazado 194732" d="M129.925,185.036A57.98,57.98,0,1,0,213.877,133.2,57.378,57.378,0,0,0,201.24,128.6a58.028,58.028,0,0,0-71.38,56.438Z" transform="translate(-129.86 -127.04)"/>
    </g>
    <path id="Trazado_194733" data-name="Trazado 194733" d="M130.07,184.77a58.028,58.028,0,1,0,57.98-57.98A58.028,58.028,0,0,0,130.07,184.77Z" transform="translate(535.869 540.823)" fill="url(#linear-gradient-2)"/>
    <path id="Trazado_194954" data-name="Trazado 194954" d="M55.546,0A55.546,55.546,0,1,1,0,55.546,55.546,55.546,0,0,1,55.546,0Z" transform="translate(663.148 775.363) rotate(-84.35)" fill="#f8f8f8"/>
    <path id="Trazado_194734" data-name="Trazado 194734" d="M222.935,117.938a57.98,57.98,0,1,0,83.952-51.831,57.33,57.33,0,0,0-12.637-4.51A58.028,58.028,0,0,0,222.87,118.02Z" transform="translate(593.615 499.287)" fill="url(#linear-gradient-3)"/>
    <path id="Trazado_194955" data-name="Trazado 194955" d="M55.546,0A55.546,55.546,0,1,1,0,55.546,55.546,55.546,0,0,1,55.546,0Z" transform="translate(812.6 665.583) rotate(-82.98)" fill="#f8f8f8"/>
    <path id="Trazado_194735" data-name="Trazado 194735" d="M315.74,184.77a58.028,58.028,0,1,0,57.98-57.98,58.028,58.028,0,0,0-57.98,57.98Z" transform="translate(651.405 540.823)" fill="url(#linear-gradient-4)"/>
    <path id="Trazado_194956" data-name="Trazado 194956" d="M55.546,0A55.546,55.546,0,1,1,0,55.546,55.546,55.546,0,0,1,55.546,0Z" transform="translate(964.336 775.367) rotate(-84.35)" fill="#f8f8f8"/>
    <path id="Trazado_194736" data-name="Trazado 194736" d="M73.5,151.76a1.314,1.314,0,0,1,1.314,1.314v1.1a1.314,1.314,0,1,1-2.628,0v-1.1A1.314,1.314,0,0,1,73.5,151.76Zm0,12.037a1.314,1.314,0,0,1,1.314,1.314V166.2a1.314,1.314,0,0,1-2.628,0v-1.071A1.314,1.314,0,0,1,73.5,163.8Zm0,12.021a1.314,1.314,0,0,1,1.314,1.314v1.1a1.314,1.314,0,0,1-2.628,0v-1.1A1.314,1.314,0,0,1,73.5,175.818Zm0,12.021a1.33,1.33,0,0,1,1.314,1.33v1.087a1.314,1.314,0,1,1-2.628,0v-1.087a1.33,1.33,0,0,1,1.314-1.33Zm0,12.037a1.314,1.314,0,0,1,1.314,1.314v1.087a1.314,1.314,0,0,1-2.628,0V201.19A1.314,1.314,0,0,1,73.5,199.876Zm0,12.021a1.314,1.314,0,0,1,1.314,1.314v1.1a1.314,1.314,0,1,1-2.628,0v-1.1A1.314,1.314,0,0,1,73.5,211.9Zm0,12.037a1.314,1.314,0,0,1,1.314,1.314v1.087a1.314,1.314,0,1,1-2.628,0v-1.087A1.314,1.314,0,0,1,73.5,223.934Z" transform="translate(499.853 556.361)" fill="#555"/>
    <path id="Trazado_194737" data-name="Trazado 194737" d="M258.87,151.76a1.314,1.314,0,0,1,1.314,1.314v1.1a1.314,1.314,0,0,1-1.314,1.314,1.33,1.33,0,0,1-1.33-1.314v-1.1A1.33,1.33,0,0,1,258.87,151.76Zm0,12.037a1.314,1.314,0,0,1,1.314,1.314V166.2a1.314,1.314,0,0,1-1.314,1.314,1.33,1.33,0,0,1-1.33-1.314v-1.071A1.33,1.33,0,0,1,258.87,163.8Zm0,12.021a1.314,1.314,0,0,1,1.314,1.314v1.1a1.314,1.314,0,0,1-1.314,1.314,1.33,1.33,0,0,1-1.33-1.314v-1.1A1.33,1.33,0,0,1,258.87,175.818Zm0,12.021a1.33,1.33,0,0,1,1.314,1.33v1.087a1.314,1.314,0,0,1-1.314,1.314,1.33,1.33,0,0,1-1.33-1.314v-1.087A1.33,1.33,0,0,1,258.87,187.839Zm0,12.037a1.314,1.314,0,0,1,1.314,1.314v1.087a1.322,1.322,0,1,1-2.644,0V201.19A1.33,1.33,0,0,1,258.87,199.876Zm0,12.021a1.314,1.314,0,0,1,1.314,1.314v1.1a1.314,1.314,0,0,1-1.314,1.314,1.33,1.33,0,0,1-1.33-1.314v-1.1A1.33,1.33,0,0,1,258.87,211.9Zm0,12.037a1.314,1.314,0,0,1,1.314,1.314v1.087a1.314,1.314,0,0,1-1.314,1.314,1.33,1.33,0,0,1-1.33-1.314v-1.087A1.33,1.33,0,0,1,258.87,223.934Z" transform="translate(615.189 556.361)" fill="#555"/>
    <path id="Trazado_194738" data-name="Trazado 194738" d="M166.315,60a1.314,1.314,0,0,1,1.314,1.314V62.4a1.314,1.314,0,1,1-2.628,0V61.314A1.314,1.314,0,0,1,166.315,60Zm0,12.021a1.314,1.314,0,0,1,1.314,1.314v1.1a1.314,1.314,0,1,1-2.628,0V73.3a1.314,1.314,0,0,1,1.314-1.314Zm0,12.037a1.314,1.314,0,0,1,1.314,1.314v1.087a1.314,1.314,0,1,1-2.628,0V85.372a1.314,1.314,0,0,1,1.314-1.346Zm0,12.021a1.314,1.314,0,0,1,1.314,1.314v1.1a1.314,1.314,0,1,1-2.628,0V97.312a1.314,1.314,0,0,1,1.314-1.265Zm0,12.021a1.33,1.33,0,0,1,1.314,1.33v1.087a1.314,1.314,0,1,1-2.628,0V109.43a1.33,1.33,0,0,1,1.314-1.363Zm0,12.037a1.314,1.314,0,0,1,1.314,1.314v1.087a1.314,1.314,0,1,1-2.628,0v-1.087a1.314,1.314,0,0,1,1.314-1.346Zm0,12.021a1.314,1.314,0,0,1,1.314,1.314v1.152a1.314,1.314,0,0,1-2.628,0v-1.1a1.314,1.314,0,0,1,1.314-1.4Z" transform="translate(557.604 499.263)" fill="#555"/>
    <path id="Trazado_194739" data-name="Trazado 194739" d="M351.985,60a1.314,1.314,0,0,1,1.314,1.314V62.4a1.314,1.314,0,1,1-2.628,0V61.314A1.314,1.314,0,0,1,351.985,60Zm0,12.021a1.314,1.314,0,0,1,1.314,1.314v1.1a1.314,1.314,0,1,1-2.628,0V73.3a1.314,1.314,0,0,1,1.314-1.314Zm0,12.037a1.314,1.314,0,0,1,1.314,1.314v1.087a1.314,1.314,0,1,1-2.628,0V85.372a1.314,1.314,0,0,1,1.314-1.346Zm0,12.021a1.314,1.314,0,0,1,1.314,1.314v1.1a1.314,1.314,0,1,1-2.628,0V97.312a1.314,1.314,0,0,1,1.314-1.265Zm0,12.021a1.33,1.33,0,0,1,1.314,1.33v1.087a1.314,1.314,0,1,1-2.628,0V109.43a1.33,1.33,0,0,1,1.314-1.363Zm0,12.037a1.314,1.314,0,0,1,1.314,1.314v1.087a1.314,1.314,0,1,1-2.628,0v-1.087a1.314,1.314,0,0,1,1.314-1.346Zm0,12.021a1.314,1.314,0,0,1,1.314,1.314v1.152a1.314,1.314,0,0,1-2.628,0v-1.1a1.314,1.314,0,0,1,1.314-1.4Z" transform="translate(673.139 499.263)" fill="#555"/>
    <g id="moneda-de-dolar" transform="translate(684.873 691.139)">
      <path id="Trazado_194740" data-name="Trazado 194740" d="M66.93,67.823a1.173,1.173,0,0,0,1.583-.495,10.777,10.777,0,0,0-9.555-15.765H56.213a1.948,1.948,0,1,1,0-3.9h2.745a1.947,1.947,0,0,1,1.8,1.191,4.416,4.416,0,0,0,8.134-3.44A10.764,10.764,0,0,0,62,39.272V37.733a4.416,4.416,0,1,0-8.832,0v1.54a10.78,10.78,0,0,0,3.043,21.121h2.745a1.948,1.948,0,0,1,0,3.9H56.213A1.938,1.938,0,0,1,54.4,63.049a4.416,4.416,0,0,0-8.228,3.209,10.7,10.7,0,0,0,7,6.433v1.534a4.416,4.416,0,1,0,8.832,0v-1.54a10.716,10.716,0,0,0,2.229-.942A1.173,1.173,0,1,0,63.08,69.7a8.366,8.366,0,0,1-2.479.917,1.173,1.173,0,0,0-.945,1.15v2.458a2.071,2.071,0,0,1-4.141,0V71.769a1.172,1.172,0,0,0-.948-1.151,8.367,8.367,0,0,1-6.214-5.212,2.071,2.071,0,1,1,3.858-1.5,4.269,4.269,0,0,0,4,2.734h2.745a4.293,4.293,0,0,0,0-8.586H56.213A8.434,8.434,0,0,1,54.57,41.342a1.173,1.173,0,0,0,.945-1.15V37.733a2.071,2.071,0,1,1,4.141,0v2.458a1.172,1.172,0,0,0,.946,1.15,8.419,8.419,0,0,1,6.127,4.99,2.071,2.071,0,1,1-3.814,1.613,4.288,4.288,0,0,0-3.956-2.622H56.213a4.293,4.293,0,1,0,0,8.586h2.745a8.444,8.444,0,0,1,8.434,8.434,8.318,8.318,0,0,1-.956,3.9A1.173,1.173,0,0,0,66.93,67.823Z" transform="translate(-21.756 -20.149)" fill="#3e2072"/>
      <path id="Trazado_194741" data-name="Trazado 194741" d="M61.815,69.7a1.173,1.173,0,0,0,1.657-.075,29.281,29.281,0,1,0-4.242,3.826,1.173,1.173,0,0,0-1.394-1.886,26.979,26.979,0,1,1,3.9-3.521,1.173,1.173,0,0,0,.076,1.657Z" transform="translate(-5.994 -14.043)" fill="#3e2072"/>
      <path id="Trazado_194742" data-name="Trazado 194742" d="M44.22,8.05h-8.39a36.08,36.08,0,0,0-7.3.744,1.173,1.173,0,0,0,.475,2.3,33.46,33.46,0,1,1-5.038,1.465,1.173,1.173,0,0,0-.831-2.193A35.835,35.835,0,0,0,35.829,79.709h8.39a35.83,35.83,0,0,0,0-71.659ZM74.382,58.46h-5.8A35.357,35.357,0,0,0,70.066,54.5h5.926A33.044,33.044,0,0,1,74.382,58.46Zm-3.981,6.3H64.955a35.636,35.636,0,0,0,2.473-3.956h5.7A33.453,33.453,0,0,1,70.4,64.761Zm7.3-20.882q0,.994-.057,1.979H71.606q.053-.985.053-1.979T71.606,41.9h6.041Q77.7,42.885,77.7,43.879Zm-6.3-4.324a35.8,35.8,0,0,0-.7-3.956h5.975a33.381,33.381,0,0,1,.751,3.956Zm-.7,12.6a35.8,35.8,0,0,0,.7-3.956h6.027a33.414,33.414,0,0,1-.751,3.956Zm-.637-18.9A35.362,35.362,0,0,0,68.579,29.3h5.8a33.042,33.042,0,0,1,1.61,3.956Zm-2.637-6.3A35.613,35.613,0,0,0,64.955,23H70.4a33.427,33.427,0,0,1,2.727,3.956Zm-7.386-12.6h-3.9a35.485,35.485,0,0,0-6.378-3.5A33.11,33.11,0,0,1,60.042,14.351ZM59.175,16.7h4.61a33.975,33.975,0,0,1,4.553,3.956H63.114A36.629,36.629,0,0,0,59.175,16.7ZM56.141,73.407h3.9a33.11,33.11,0,0,1-10.28,3.5A35.475,35.475,0,0,0,56.141,73.407Zm7.644-2.345h-4.61a36.644,36.644,0,0,0,3.939-3.956h5.224A33.972,33.972,0,0,1,63.785,71.062Z" transform="translate(0 -8.05)" fill="#3e2072"/>
    </g>
    <g id="ordenador-personal" transform="translate(984.805 699.294)">
      <path id="Trazado_194743" data-name="Trazado 194743" d="M22.347,0H4.24A4.245,4.245,0,0,0,0,4.24V49.2a4.245,4.245,0,0,0,4.24,4.24H22.347a4.245,4.245,0,0,0,4.24-4.24V4.24A4.245,4.245,0,0,0,22.347,0Zm0,51H4.24a1.8,1.8,0,0,1-1.8-1.8V45.709a5.581,5.581,0,0,0,3.173.987H6.775a1.22,1.22,0,0,0,0-2.439H5.612a3.177,3.177,0,0,1-3.173-3.173V4.24a1.8,1.8,0,0,1,1.8-1.8H22.347a1.8,1.8,0,0,1,1.8,1.8V41.083a3.176,3.176,0,0,1-3.173,3.173H12.467a1.22,1.22,0,0,0,0,2.439h8.508a5.581,5.581,0,0,0,3.173-.986V49.2a1.8,1.8,0,0,1-1.8,1.8Zm0,0" transform="translate(0 0)" fill="#3e2072"/>
      <path id="Trazado_194744" data-name="Trazado 194744" d="M21.132,40.939a4.014,4.014,0,1,0,4.015,4.014A4.019,4.019,0,0,0,21.132,40.939Zm0,5.589a1.575,1.575,0,1,1,1.575-1.575A1.577,1.577,0,0,1,21.132,46.529Zm0,0" transform="translate(-7.838 -18.746)" fill="#3e2072"/>
      <path id="Trazado_194745" data-name="Trazado 194745" d="M21.132,60.506a4.014,4.014,0,1,0,4.015,4.014A4.019,4.019,0,0,0,21.132,60.506Zm0,5.589a1.575,1.575,0,1,1,1.575-1.575A1.577,1.577,0,0,1,21.132,66.1Zm0,0" transform="translate(-7.838 -27.706)" fill="#3e2072"/>
      <path id="Trazado_194746" data-name="Trazado 194746" d="M24.053,87.592H16.836a1.22,1.22,0,0,0,0,2.439h7.217a1.22,1.22,0,0,0,0-2.439Zm0,0" transform="translate(-7.151 -40.109)" fill="#3e2072"/>
      <path id="Trazado_194747" data-name="Trazado 194747" d="M25.894,18.209V12.4a2.392,2.392,0,0,0-2.389-2.389H10.625A2.392,2.392,0,0,0,8.236,12.4v5.808A2.392,2.392,0,0,0,10.625,20.6h12.88A2.391,2.391,0,0,0,25.894,18.209Zm-2.439-.05H10.675V12.452h12.78Zm0,0" transform="translate(-3.771 -4.585)" fill="#3e2072"/>
      <path id="Trazado_194748" data-name="Trazado 194748" d="M105.915,5.6H55.3a1.837,1.837,0,0,0-1.835,1.835v33.5A1.837,1.837,0,0,0,55.3,42.765H73.641l-1.429,6.349H69.491a1.8,1.8,0,0,0-1.8,1.8V54.2a1.8,1.8,0,0,0,1.8,1.8H91.728a1.8,1.8,0,0,0,1.8-1.8V50.913a1.8,1.8,0,0,0-1.8-1.8H89.006l-1.429-6.349h18.338a1.837,1.837,0,0,0,1.835-1.835V7.435A1.837,1.837,0,0,0,105.915,5.6ZM86.506,49.114h-.956a1.22,1.22,0,0,0,0,2.439h5.539v2.009H70.13V51.554h9.727a1.22,1.22,0,0,0,0-2.439H74.713l1.429-6.349h8.935Zm18.8-8.788h-49.4V8.04h49.4Zm0,0" transform="translate(-24.484 -2.564)" fill="#3e2072"/>
      <path id="Trazado_194749" data-name="Trazado 194749" d="M63.134,40.3h42.318a1.622,1.622,0,0,0,1.621-1.621V24.305a1.22,1.22,0,1,0-2.439,0V37.861H63.954V16.084h40.68v2.53a1.22,1.22,0,0,0,2.439,0V15.264a1.622,1.622,0,0,0-1.621-1.62H63.134a1.622,1.622,0,0,0-1.62,1.62V38.679a1.622,1.622,0,0,0,1.62,1.621Zm0,0" transform="translate(-28.168 -6.248)" fill="#3e2072"/>
      <path id="Trazado_194750" data-name="Trazado 194750" d="M140.546,65.17a1.22,1.22,0,1,1-1.22-1.22A1.219,1.219,0,0,1,140.546,65.17Zm0,0" transform="translate(-63.24 -29.283)" fill="#3e2072"/>
      <path id="Trazado_194751" data-name="Trazado 194751" d="M132.911,65.17a1.22,1.22,0,1,1-1.22-1.22A1.219,1.219,0,0,1,132.911,65.17Zm0,0" transform="translate(-59.744 -29.283)" fill="#3e2072"/>
    </g>
    <g id="persona" transform="translate(547.805 572.098)">
      <path id="Trazado_194752" data-name="Trazado 194752" d="M48.359,91.875l-6.6-13.194a1.1,1.1,0,0,0-.983-.608h-4.4a1.1,1.1,0,1,0,0,2.2H40.1l5.5,10.995H2.879l5.5-10.995h7.017V83a3.873,3.873,0,0,0,7.746,0V80.321h2.2V83a3.873,3.873,0,0,0,7.745,0V64.7a3.446,3.446,0,0,0,1.1.178,3.228,3.228,0,0,0,3.3-3.225V41.5a5.5,5.5,0,0,0-5.5-5.5H16.492a5.5,5.5,0,0,0-5.5,5.5V61.583a3.3,3.3,0,0,0,4.4,3.109V78.073H7.7a1.1,1.1,0,0,0-.983.608L.116,91.875A1.1,1.1,0,0,0,1.1,93.466H47.375a1.1,1.1,0,0,0,.983-1.591ZM23.138,78.122V62.683h2.2V78.122ZM14.293,62.683a1.1,1.1,0,0,1-1.1-1.1V41.5a3.3,3.3,0,0,1,3.3-3.3H31.983a3.3,3.3,0,0,1,3.3,3.3V61.656a1.1,1.1,0,0,1-2.2,0V41.5a1.1,1.1,0,1,0-2.2,0V83a1.674,1.674,0,0,1-3.348,0V61.583a1.1,1.1,0,0,0-1.1-1.1h-4.4a1.1,1.1,0,0,0-1.1,1.1V83a1.674,1.674,0,0,1-3.347,0v-34.9a1.1,1.1,0,1,0-2.2,0V61.583a1.1,1.1,0,0,1-1.1,1.1Zm0,0" transform="translate(0 -18.408)" fill="#3e2072"/>
      <path id="Trazado_194753" data-name="Trazado 194753" d="M32.6,49.4a1.1,1.1,0,0,0,1.1-1.1V46.1a1.1,1.1,0,1,0-2.2,0v2.2A1.1,1.1,0,0,0,32.6,49.4Zm0,0" transform="translate(-16.107 -23.01)" fill="#3e2072"/>
      <path id="Trazado_194754" data-name="Trazado 194754" d="M41.646,15.393a7.7,7.7,0,1,0-7.7-7.7A7.705,7.705,0,0,0,41.646,15.393Zm0-13.194a5.5,5.5,0,1,1-5.5,5.5A5.5,5.5,0,0,1,41.646,2.2Zm0,0" transform="translate(-17.36)" fill="#3e2072"/>
    </g>
    <g id="tienda" transform="translate(840.768 586.681)">
      <g id="Grupo_136402" data-name="Grupo 136402" transform="translate(17.93 39.499)">
        <g id="Grupo_136401" data-name="Grupo 136401">
          <path id="Trazado_194755" data-name="Trazado 194755" d="M41.789,97.877a.989.989,0,0,0-.989.989v1.78a.989.989,0,1,0,1.978,0v-1.78A.989.989,0,0,0,41.789,97.877Z" transform="translate(-40.8 -97.877)" fill="#3e2072"/>
        </g>
      </g>
      <g id="Grupo_136404" data-name="Grupo 136404" transform="translate(0 0)">
        <g id="Grupo_136403" data-name="Grupo 136403">
          <path id="Trazado_194756" data-name="Trazado 194756" d="M64.378,60.625h-1.6V33.191a5.67,5.67,0,0,0,4.673-5.574V23.81c0-.019,0-.038,0-.057s0-.021,0-.032a.991.991,0,0,0-.017-.115l0-.006a.976.976,0,0,0-.03-.105l-.009-.026c-.011-.03-.023-.058-.037-.086l-.007-.016-4.372-8.695V10.124A2.131,2.131,0,0,0,60.844,8H15.881a.989.989,0,0,0,0,1.978H60.844a.151.151,0,0,1,.151.151v3.8H6.506v-3.8a.151.151,0,0,1,.151-.151H11.28A.989.989,0,0,0,11.28,8H6.657a2.131,2.131,0,0,0-2.129,2.129v4.548L.156,23.366l-.007.016c-.014.028-.026.057-.037.086L.1,23.494a.974.974,0,0,0-.03.105l0,.006a.967.967,0,0,0-.017.115c0,.011,0,.021,0,.032s0,.038,0,.057v3.807a5.67,5.67,0,0,0,4.673,5.574V60.625h-1.6A3.127,3.127,0,0,0,0,63.748v3.127a1.6,1.6,0,0,0,1.594,1.594H65.907A1.6,1.6,0,0,0,67.5,66.876V63.748A3.127,3.127,0,0,0,64.378,60.625Zm1.094-33.008a3.684,3.684,0,1,1-7.368,0V24.8h7.368v2.818ZM61.379,15.9l3.478,6.917H57.811L55.327,15.9Zm-8.154,0,2.484,6.917H48.568L47.077,15.9Zm2.9,8.895v2.818a3.684,3.684,0,1,1-7.368,0V24.8ZM45.054,15.9l1.491,6.917h-7.2l-.5-6.917ZM46.781,24.8v2.818a3.684,3.684,0,1,1-7.368,0V24.8ZM30.637,15.9h6.227l.5,6.917H30.14Zm-.57,8.895h7.368v2.818a3.684,3.684,0,1,1-7.368,0Zm3.684,8.48a5.659,5.659,0,0,0,4.673-2.47,5.656,5.656,0,0,0,9.346,0,5.656,5.656,0,0,0,9.346,0A5.671,5.671,0,0,0,60.8,33.191V60.625H23.577V38.652a1.841,1.841,0,0,0-1.839-1.839H10.307a1.841,1.841,0,0,0-1.839,1.839V60.625H6.7V33.191a5.671,5.671,0,0,0,3.684-2.381,5.656,5.656,0,0,0,9.346,0,5.656,5.656,0,0,0,9.346,0A5.659,5.659,0,0,0,33.751,33.279ZM21.6,38.791V60.625H10.445V38.791ZM11.374,27.617V24.8h7.368v2.818a3.684,3.684,0,1,1-7.368,0ZM22.447,15.9h6.207l-.5,6.917h-7.2ZM20.721,24.8h7.368v2.818a3.684,3.684,0,1,1-7.368,0V24.8Zm-.3-8.895-1.491,6.917H11.791L14.276,15.9Zm-14.3,0h6.053L9.69,22.821H2.644ZM2.029,27.617V24.8H9.4v2.818a3.684,3.684,0,1,1-7.368,0ZM1.978,66.492V63.748A1.147,1.147,0,0,1,3.123,62.6H64.378a1.147,1.147,0,0,1,1.145,1.145v2.744Z" transform="translate(0 -7.995)" fill="#3e2072"/>
        </g>
      </g>
      <g id="Grupo_136406" data-name="Grupo 136406" transform="translate(25.643 28.818)">
        <g id="Grupo_136405" data-name="Grupo 136405">
          <path id="Trazado_194757" data-name="Trazado 194757" d="M88.973,73.57H76.881a.989.989,0,1,0,0,1.978H88.834V91.11H60.328V75.548h11.9a.989.989,0,0,0,0-1.978H60.189A1.841,1.841,0,0,0,58.35,75.41V91.248a1.841,1.841,0,0,0,1.839,1.839H88.973a1.841,1.841,0,0,0,1.839-1.839V75.41A1.841,1.841,0,0,0,88.973,73.57Z" transform="translate(-58.35 -73.57)" fill="#3e2072"/>
        </g>
      </g>
    </g>
    <path id="Trazado_194958" data-name="Trazado 194958" d="M8.9-5.432H4.052v3.059h5.73V0H.967V-12.8H9.8v2.382H4.052v2.7H8.9Zm5.854,3.322a1.317,1.317,0,0,0,.967-.338,1.241,1.241,0,0,0,.334-.945h2.777A3.288,3.288,0,0,1,17.714-.826a4.168,4.168,0,0,1-2.887,1,4.22,4.22,0,0,1-3.27-1.3,5.125,5.125,0,0,1-1.2-3.6v-.123A5.792,5.792,0,0,1,10.894-7.4a3.872,3.872,0,0,1,1.534-1.7A4.573,4.573,0,0,1,14.8-9.686a4.116,4.116,0,0,1,2.944,1.028,3.647,3.647,0,0,1,1.09,2.786H16.058A1.626,1.626,0,0,0,15.7-7a1.244,1.244,0,0,0-.967-.4q-1.151,0-1.345,1.468a10.357,10.357,0,0,0-.062,1.283,4.068,4.068,0,0,0,.343,1.986A1.187,1.187,0,0,0,14.757-2.109Zm4.957-2.733a5.613,5.613,0,0,1,.554-2.536,3.96,3.96,0,0,1,1.591-1.709,4.791,4.791,0,0,1,2.435-.6,4.373,4.373,0,0,1,3.366,1.323,5.076,5.076,0,0,1,1.23,3.6v.105a4.925,4.925,0,0,1-1.235,3.529A4.384,4.384,0,0,1,24.311.176,4.434,4.434,0,0,1,21.05-1.042a4.761,4.761,0,0,1-1.327-3.3Zm2.962.185a3.538,3.538,0,0,0,.413,1.934,1.376,1.376,0,0,0,1.222.615q1.582,0,1.617-2.435v-.3q0-2.558-1.635-2.558-1.485,0-1.608,2.206ZM32.915-9.51l.1,1.116a3.225,3.225,0,0,1,2.716-1.292,2.713,2.713,0,0,1,2.219.888,4.226,4.226,0,0,1,.76,2.672V0H35.736V-6a1.6,1.6,0,0,0-.29-1.059A1.342,1.342,0,0,0,34.392-7.4a1.413,1.413,0,0,0-1.292.686V0H30.138V-9.51Zm7.058,4.667a5.613,5.613,0,0,1,.554-2.536,3.96,3.96,0,0,1,1.591-1.709,4.791,4.791,0,0,1,2.435-.6,4.373,4.373,0,0,1,3.366,1.323,5.076,5.076,0,0,1,1.23,3.6v.105a4.925,4.925,0,0,1-1.235,3.529A4.384,4.384,0,0,1,44.569.176a4.434,4.434,0,0,1-3.261-1.217,4.761,4.761,0,0,1-1.327-3.3Zm2.962.185a3.538,3.538,0,0,0,.413,1.934,1.376,1.376,0,0,0,1.222.615q1.582,0,1.617-2.435v-.3q0-2.558-1.635-2.558-1.485,0-1.608,2.206ZM44.956-13.5h3.129l-2.443,2.76-2.417,0Zm8.3,3.99.1,1.116a3.27,3.27,0,0,1,2.716-1.292A2.407,2.407,0,0,1,58.5-8.253a3.165,3.165,0,0,1,2.795-1.433q2.892,0,2.971,3.5V0H61.295V-6a1.813,1.813,0,0,0-.246-1.063,1.048,1.048,0,0,0-.9-.334,1.4,1.4,0,0,0-1.31.782l.009.123V0H55.881V-5.985a1.906,1.906,0,0,0-.237-1.081,1.045,1.045,0,0,0-.905-.334,1.42,1.42,0,0,0-1.3.782V0H50.476V-9.51ZM69.082,0H66.111V-9.51h2.971ZM65.936-11.962A1.322,1.322,0,0,1,66.393-13a1.724,1.724,0,0,1,1.187-.4,1.724,1.724,0,0,1,1.187.4,1.322,1.322,0,0,1,.457,1.037,1.322,1.322,0,0,1-.457,1.037,1.724,1.724,0,0,1-1.187.4,1.724,1.724,0,0,1-1.187-.4A1.322,1.322,0,0,1,65.936-11.962Zm8.991,9.853a1.317,1.317,0,0,0,.967-.338,1.241,1.241,0,0,0,.334-.945H79A3.288,3.288,0,0,1,77.884-.826,4.168,4.168,0,0,1,75,.176a4.22,4.22,0,0,1-3.27-1.3,5.125,5.125,0,0,1-1.2-3.6v-.123A5.792,5.792,0,0,1,71.064-7.4a3.872,3.872,0,0,1,1.534-1.7,4.573,4.573,0,0,1,2.373-.593,4.116,4.116,0,0,1,2.944,1.028A3.647,3.647,0,0,1,79-5.871H76.228A1.626,1.626,0,0,0,75.867-7a1.244,1.244,0,0,0-.967-.4q-1.151,0-1.345,1.468a10.357,10.357,0,0,0-.062,1.283,4.068,4.068,0,0,0,.343,1.986A1.187,1.187,0,0,0,74.927-2.109Zm4.957-2.733a5.613,5.613,0,0,1,.554-2.536,3.96,3.96,0,0,1,1.591-1.709,4.791,4.791,0,0,1,2.435-.6,4.373,4.373,0,0,1,3.366,1.323,5.076,5.076,0,0,1,1.23,3.6v.105a4.925,4.925,0,0,1-1.235,3.529A4.384,4.384,0,0,1,84.48.176,4.434,4.434,0,0,1,81.22-1.042a4.761,4.761,0,0,1-1.327-3.3Zm2.962.185a3.538,3.538,0,0,0,.413,1.934,1.376,1.376,0,0,0,1.222.615q1.582,0,1.617-2.435v-.3Q86.1-7.4,84.463-7.4q-1.485,0-1.608,2.206Z" transform="translate(689 550.798)" fill="#12263f"/>
    <path id="Trazado_194957" data-name="Trazado 194957" d="M9.026-5.1H4.052V0H.967V-12.8H9.527v2.382H4.052v2.944H9.026ZM13.9,0H10.925V-9.51H13.9ZM12.8-13.324h3.129l-2.443,2.76-2.417,0ZM20.786-2.672a.684.684,0,0,0-.4-.606,6.016,6.016,0,0,0-1.5-.475A6.853,6.853,0,0,1,17.06-4.4a3.062,3.062,0,0,1-1.1-.971,2.319,2.319,0,0,1-.378-1.31,2.628,2.628,0,0,1,1.081-2.158,4.453,4.453,0,0,1,2.83-.848,4.934,4.934,0,0,1,3.023.853A2.666,2.666,0,0,1,23.66-6.592H20.689q0-1.143-1.2-1.143a1.194,1.194,0,0,0-.782.259.8.8,0,0,0-.316.646.737.737,0,0,0,.387.642,3.654,3.654,0,0,0,1.235.4,10.671,10.671,0,0,1,1.49.378A2.706,2.706,0,0,1,23.643-2.76,2.491,2.491,0,0,1,22.487-.642a5.068,5.068,0,0,1-2.993.817,5.172,5.172,0,0,1-2.18-.439,3.645,3.645,0,0,1-1.494-1.2,2.707,2.707,0,0,1-.536-1.591h2.769a1.145,1.145,0,0,0,.439.962,1.808,1.808,0,0,0,1.081.3,1.422,1.422,0,0,0,.91-.246A.787.787,0,0,0,20.786-2.672ZM28.151,0H25.181V-9.51h2.971ZM25-11.962A1.322,1.322,0,0,1,25.462-13a1.724,1.724,0,0,1,1.187-.4,1.724,1.724,0,0,1,1.187.4,1.322,1.322,0,0,1,.457,1.037,1.322,1.322,0,0,1-.457,1.037,1.724,1.724,0,0,1-1.187.4,1.724,1.724,0,0,1-1.187-.4A1.322,1.322,0,0,1,25-11.962ZM34-2.109a1.317,1.317,0,0,0,.967-.338,1.241,1.241,0,0,0,.334-.945h2.777A3.288,3.288,0,0,1,36.954-.826a4.168,4.168,0,0,1-2.887,1,4.22,4.22,0,0,1-3.27-1.3,5.125,5.125,0,0,1-1.2-3.6v-.123A5.792,5.792,0,0,1,30.133-7.4a3.872,3.872,0,0,1,1.534-1.7,4.573,4.573,0,0,1,2.373-.593,4.116,4.116,0,0,1,2.944,1.028,3.647,3.647,0,0,1,1.09,2.786H35.3A1.626,1.626,0,0,0,34.937-7a1.244,1.244,0,0,0-.967-.4q-1.151,0-1.345,1.468a10.357,10.357,0,0,0-.062,1.283,4.068,4.068,0,0,0,.343,1.986A1.187,1.187,0,0,0,34-2.109Zm4.957-2.733a5.613,5.613,0,0,1,.554-2.536A3.96,3.96,0,0,1,41.1-9.088a4.791,4.791,0,0,1,2.435-.6A4.373,4.373,0,0,1,46.9-8.363a5.076,5.076,0,0,1,1.23,3.6v.105a4.925,4.925,0,0,1-1.235,3.529A4.384,4.384,0,0,1,43.55.176a4.434,4.434,0,0,1-3.261-1.217,4.761,4.761,0,0,1-1.327-3.3Zm2.962.185a3.538,3.538,0,0,0,.413,1.934,1.376,1.376,0,0,0,1.222.615q1.582,0,1.617-2.435v-.3q0-2.558-1.635-2.558-1.485,0-1.608,2.206Z" transform="translate(848 801.798)" fill="#12263f"/>
    <path id="Trazado_194959" data-name="Trazado 194959" d="M11.013-10.415H7.172V0H4.087V-10.415H.316V-12.8h10.7ZM16.778.176a4.889,4.889,0,0,1-3.542-1.305,4.507,4.507,0,0,1-1.354-3.4v-.246a5.84,5.84,0,0,1,.541-2.575A3.955,3.955,0,0,1,14-9.075a4.763,4.763,0,0,1,2.461-.611,4.117,4.117,0,0,1,3.164,1.244,4.887,4.887,0,0,1,1.16,3.467v1.151H14.9a2.135,2.135,0,0,0,.694,1.257,2.066,2.066,0,0,0,1.389.457,2.662,2.662,0,0,0,2.2-.984l1.354,1.6A3.784,3.784,0,0,1,18.962-.277,5.3,5.3,0,0,1,16.778.176ZM16.444-7.4q-1.3,0-1.547,1.723h2.988v-.229a1.467,1.467,0,0,0-.36-1.1A1.434,1.434,0,0,0,16.444-7.4ZM26-2.109a1.317,1.317,0,0,0,.967-.338,1.241,1.241,0,0,0,.334-.945h2.777A3.288,3.288,0,0,1,28.956-.826a4.168,4.168,0,0,1-2.887,1,4.22,4.22,0,0,1-3.27-1.3,5.125,5.125,0,0,1-1.2-3.6v-.123A5.792,5.792,0,0,1,22.135-7.4a3.872,3.872,0,0,1,1.534-1.7,4.573,4.573,0,0,1,2.373-.593,4.116,4.116,0,0,1,2.944,1.028,3.647,3.647,0,0,1,1.09,2.786H27.3A1.626,1.626,0,0,0,26.938-7a1.244,1.244,0,0,0-.967-.4q-1.151,0-1.345,1.468a10.357,10.357,0,0,0-.062,1.283,4.068,4.068,0,0,0,.343,1.986A1.187,1.187,0,0,0,26-2.109Zm8.051-7.4.1,1.116a3.225,3.225,0,0,1,2.716-1.292,2.713,2.713,0,0,1,2.219.888,4.226,4.226,0,0,1,.76,2.672V0H36.87V-6a1.6,1.6,0,0,0-.29-1.059A1.342,1.342,0,0,0,35.525-7.4a1.413,1.413,0,0,0-1.292.686V0H31.271V-9.51Zm7.058,4.667a5.613,5.613,0,0,1,.554-2.536,3.96,3.96,0,0,1,1.591-1.709,4.791,4.791,0,0,1,2.435-.6,4.373,4.373,0,0,1,3.366,1.323,5.076,5.076,0,0,1,1.23,3.6v.105a4.925,4.925,0,0,1-1.235,3.529A4.384,4.384,0,0,1,45.7.176a4.434,4.434,0,0,1-3.261-1.217,4.761,4.761,0,0,1-1.327-3.3Zm2.962.185a3.538,3.538,0,0,0,.413,1.934,1.376,1.376,0,0,0,1.222.615q1.582,0,1.617-2.435v-.3q0-2.558-1.635-2.558-1.485,0-1.608,2.206ZM54.712,0H51.741V-13.5h2.971Zm1.45-4.843a5.613,5.613,0,0,1,.554-2.536,3.96,3.96,0,0,1,1.591-1.709,4.791,4.791,0,0,1,2.435-.6,4.373,4.373,0,0,1,3.366,1.323,5.076,5.076,0,0,1,1.23,3.6v.105A4.925,4.925,0,0,1,64.1-1.129,4.384,4.384,0,0,1,60.759.176,4.434,4.434,0,0,1,57.5-1.042a4.761,4.761,0,0,1-1.327-3.3Zm2.962.185a3.538,3.538,0,0,0,.413,1.934,1.376,1.376,0,0,0,1.222.615q1.582,0,1.617-2.435v-.3q0-2.558-1.635-2.558-1.485,0-1.608,2.206ZM61.146-13.5h3.129l-2.443,2.76-2.417,0ZM66.3-4.825a6.421,6.421,0,0,1,.475-2.549,3.821,3.821,0,0,1,1.362-1.709,3.591,3.591,0,0,1,2.065-.6,2.855,2.855,0,0,1,2.32,1l.105-.826h2.689V-.36a4.009,4.009,0,0,1-.584,2.184,3.75,3.75,0,0,1-1.692,1.424,6.219,6.219,0,0,1-2.566.5,5.365,5.365,0,0,1-2.026-.4,3.657,3.657,0,0,1-1.5-1.028L68.186.58a2.716,2.716,0,0,0,2.18.976A1.764,1.764,0,0,0,72.334-.466v-.3a2.781,2.781,0,0,1-2.153.94,3.437,3.437,0,0,1-2.812-1.332A5.517,5.517,0,0,1,66.3-4.72Zm2.971.185a3.383,3.383,0,0,0,.439,1.85,1.386,1.386,0,0,0,1.23.681,1.573,1.573,0,0,0,1.4-.642v-4a1.534,1.534,0,0,0-1.38-.65,1.4,1.4,0,0,0-1.239.708A3.858,3.858,0,0,0,69.267-4.641ZM80.121,0H77.15V-9.51h2.971ZM76.975-11.962A1.322,1.322,0,0,1,77.432-13a1.724,1.724,0,0,1,1.187-.4A1.724,1.724,0,0,1,79.8-13a1.322,1.322,0,0,1,.457,1.037,1.322,1.322,0,0,1-.457,1.037,1.724,1.724,0,0,1-1.187.4,1.724,1.724,0,0,1-1.187-.4A1.322,1.322,0,0,1,76.975-11.962Zm8.991,9.853a1.317,1.317,0,0,0,.967-.338,1.241,1.241,0,0,0,.334-.945h2.777A3.288,3.288,0,0,1,88.923-.826a4.168,4.168,0,0,1-2.887,1,4.22,4.22,0,0,1-3.27-1.3,5.125,5.125,0,0,1-1.2-3.6v-.123A5.792,5.792,0,0,1,82.1-7.4a3.872,3.872,0,0,1,1.534-1.7,4.573,4.573,0,0,1,2.373-.593,4.116,4.116,0,0,1,2.944,1.028,3.647,3.647,0,0,1,1.09,2.786H87.267A1.626,1.626,0,0,0,86.906-7a1.244,1.244,0,0,0-.967-.4q-1.151,0-1.345,1.468a10.357,10.357,0,0,0-.062,1.283,4.068,4.068,0,0,0,.343,1.986A1.187,1.187,0,0,0,85.966-2.109Zm4.957-2.733a5.613,5.613,0,0,1,.554-2.536,3.96,3.96,0,0,1,1.591-1.709,4.791,4.791,0,0,1,2.435-.6,4.373,4.373,0,0,1,3.366,1.323,5.076,5.076,0,0,1,1.23,3.6v.105a4.925,4.925,0,0,1-1.235,3.529A4.384,4.384,0,0,1,95.52.176a4.434,4.434,0,0,1-3.261-1.217,4.761,4.761,0,0,1-1.327-3.3Zm2.962.185A3.538,3.538,0,0,0,94.3-2.725a1.376,1.376,0,0,0,1.222.615q1.582,0,1.617-2.435v-.3Q97.137-7.4,95.5-7.4q-1.485,0-1.608,2.206Z" transform="translate(975 549.798)" fill="#12263f"/>
  </g>
</svg>
