<svg xmlns="http://www.w3.org/2000/svg" width="92.332" height="76.429" viewBox="0 0 92.332 76.429">
  <g id="sillon" transform="translate(0 -8.819)">
    <g id="Grupo_136275" data-name="Grupo 136275" transform="translate(0 8.819)">
      <g id="Grupo_136274" data-name="Grupo 136274">
        <path id="Trazado_194219" data-name="Trazado 194219" d="M92.086,32.7a8.681,8.681,0,0,0-9.271-6.48,8.322,8.322,0,0,0-1.885.431l1.026-6.155A10.026,10.026,0,0,0,72.067,8.819h-51.8a10.026,10.026,0,0,0-9.889,11.674L11.4,26.648a8.326,8.326,0,0,0-1.885-.431A8.681,8.681,0,0,0,.246,32.7,8.586,8.586,0,0,0,6.911,43.162a.1.1,0,0,1,.034.055l4.99,19.332A7.131,7.131,0,0,0,15.9,67.265l-2.571,14.7a2.8,2.8,0,0,0,2.756,3.28h1.653a2.79,2.79,0,0,0,2.583-1.722L26.83,67.9H65.5l6.51,15.625A2.791,2.791,0,0,0,74.6,85.248h1.653a2.8,2.8,0,0,0,2.756-3.28l-2.571-14.7A7.133,7.133,0,0,0,80.4,62.549l4.99-19.332a.133.133,0,0,1,.029-.054A8.586,8.586,0,0,0,92.086,32.7ZM17.823,82.486a.093.093,0,0,1-.086.057H16.084a.093.093,0,0,1-.092-.109l2.543-14.539q.153.006.308.007H23.9Zm58.5.024a.087.087,0,0,1-.071.033H74.6a.093.093,0,0,1-.086-.057L68.433,67.9h5.056q.155,0,.308-.007L76.34,82.434A.087.087,0,0,1,76.32,82.51ZM88.7,37.915a5.9,5.9,0,0,1-3.8,2.594,2.774,2.774,0,0,0-2.126,2.032l-4.99,19.332A4.429,4.429,0,0,1,73.489,65.2H18.843a4.429,4.429,0,0,1-4.289-3.323L9.564,42.541A2.774,2.774,0,0,0,7.438,40.51a5.876,5.876,0,0,1,1.785-11.6c3.275.357,5.053,3.306,5.625,5.946l.009.039,3.936,15.873v2.774a4.249,4.249,0,0,0,4.244,4.244h36.14a1.353,1.353,0,0,0,0-2.705H23.037A1.54,1.54,0,0,1,21.5,53.538V47.756a1.54,1.54,0,0,1,1.539-1.539h1.446a1.353,1.353,0,0,0,0-2.705H23.037a4.229,4.229,0,0,0-2.956,1.2L17.488,34.259a11.132,11.132,0,0,0-3.025-5.7l-1.419-8.513a7.321,7.321,0,0,1,7.221-8.525h51.8a7.321,7.321,0,0,1,7.221,8.525L77.869,28.56a11.134,11.134,0,0,0-3.026,5.7L72.251,44.715a4.229,4.229,0,0,0-2.956-1.2H30.265a1.353,1.353,0,0,0,0,2.705H69.3a1.54,1.54,0,0,1,1.539,1.539v5.782A1.54,1.54,0,0,1,69.3,55.077H64.959a1.353,1.353,0,0,0,0,2.705H69.3a4.249,4.249,0,0,0,4.244-4.244V50.763L77.474,34.89c0-.013.006-.026.009-.039.572-2.64,2.35-5.589,5.625-5.946a5.874,5.874,0,0,1,5.59,9.01Z" transform="translate(0 -8.819)" fill="#b13e8d"/>
      </g>
    </g>
    <g id="Grupo_136277" data-name="Grupo 136277" transform="translate(44.821 21.829)">
      <g id="Grupo_136276" data-name="Grupo 136276">
        <path id="Trazado_194220" data-name="Trazado 194220" d="M51.068,23.247h-.014a1.36,1.36,0,1,0,.014,0Z" transform="translate(-49.708 -23.247)" fill="#b13e8d"/>
      </g>
    </g>
    <g id="Grupo_136279" data-name="Grupo 136279" transform="translate(37.579 30.502)">
      <g id="Grupo_136278" data-name="Grupo 136278">
        <path id="Trazado_194221" data-name="Trazado 194221" d="M43.036,32.867h-.014a1.36,1.36,0,1,0,.014,0Z" transform="translate(-41.676 -32.867)" fill="#b13e8d"/>
      </g>
    </g>
    <g id="Grupo_136281" data-name="Grupo 136281" transform="translate(52.035 30.502)">
      <g id="Grupo_136280" data-name="Grupo 136280">
        <path id="Trazado_194222" data-name="Trazado 194222" d="M59.068,32.867h-.014a1.36,1.36,0,1,0,.014,0Z" transform="translate(-57.708 -32.867)" fill="#b13e8d"/>
      </g>
    </g>
    <g id="Grupo_136283" data-name="Grupo 136283" transform="translate(59.277 21.829)">
      <g id="Grupo_136282" data-name="Grupo 136282">
        <path id="Trazado_194223" data-name="Trazado 194223" d="M67.1,23.247h-.014a1.36,1.36,0,1,0,.014,0Z" transform="translate(-65.74 -23.247)" fill="#b13e8d"/>
      </g>
    </g>
    <g id="Grupo_136285" data-name="Grupo 136285" transform="translate(30.351 21.829)">
      <g id="Grupo_136284" data-name="Grupo 136284">
        <path id="Trazado_194224" data-name="Trazado 194224" d="M35.02,23.247h-.014a1.36,1.36,0,1,0,.014,0Z" transform="translate(-33.66 -23.247)" fill="#b13e8d"/>
      </g>
    </g>
  </g>
</svg>
