<svg xmlns="http://www.w3.org/2000/svg" width="93.234" height="75.198" viewBox="0 0 93.234 75.198">
  <g id="artilugio" transform="translate(0 -9.905)">
    <g id="Grupo_136286" data-name="Grupo 136286" transform="translate(0 9.905)">
      <path id="Trazado_194225" data-name="Trazado 194225" d="M85.326,36.984a3.187,3.187,0,0,1-6.344,0,1.839,1.839,0,0,0-1.833-1.676h-5.9a1.844,1.844,0,0,0-1.841,1.842V80.983a1.843,1.843,0,0,0,1.841,1.841h21.8A1.844,1.844,0,0,0,94.9,80.983V47.742a1.366,1.366,0,1,0-2.731,0V80.093H72.144V38.04h4.25a5.921,5.921,0,0,0,11.521,0h4.25v3.329a1.366,1.366,0,0,0,2.731,0V37.15a1.844,1.844,0,0,0-1.842-1.842H87.16a1.84,1.84,0,0,0-1.834,1.675Z" transform="translate(-6.214 -12.179)" fill="#b13e8d"/>
      <circle id="Elipse_5442" data-name="Elipse 5442" cx="1.366" cy="1.366" r="1.366" transform="translate(74.574 23.13)" fill="#b13e8d"/>
      <path id="Trazado_194226" data-name="Trazado 194226" d="M0,80.643a4.465,4.465,0,0,0,4.46,4.46H88.245a4.994,4.994,0,0,0,4.989-4.989V33.471a4.994,4.994,0,0,0-4.989-4.989H86.837V14.493A4.593,4.593,0,0,0,82.249,9.9H10.987A4.593,4.593,0,0,0,6.4,14.493v45.28a4.562,4.562,0,0,0,.79,2.571A4.374,4.374,0,0,0,5.71,63.98L.443,74.076a3.884,3.884,0,0,0-.415,1.336C-.01,75.6,0,75.233,0,80.643Zm2.731,0V79.556a3.87,3.87,0,0,0,.873.157c.2.013-1.365.009,32.822.009a5.639,5.639,0,0,0,.388,2.649H4.461a1.73,1.73,0,0,1-1.728-1.728ZM33.5,74.61H58.646v2.38H32.494Zm23.307,5.112h1.839v.392a4.957,4.957,0,0,0,.541,2.257H56.419a5.67,5.67,0,0,0,.388-2.649ZM41,82.371a1.846,1.846,0,0,1-1.844-1.844v-.805H54.076v.805a1.846,1.846,0,0,1-1.844,1.844Zm49.5-48.9V80.114a2.26,2.26,0,0,1-2.257,2.257H63.635a2.26,2.26,0,0,1-2.257-2.257V33.471a2.26,2.26,0,0,1,2.257-2.257h24.61A2.26,2.26,0,0,1,90.5,33.471ZM9.13,14.493a1.859,1.859,0,0,1,1.857-1.857H82.249a1.859,1.859,0,0,1,1.857,1.857v13.99H82.333V16.952a2.5,2.5,0,0,0-2.495-2.495H13.4A2.5,2.5,0,0,0,10.9,16.952v8.41a1.366,1.366,0,0,0,2.731,0V17.188H79.6V28.482H63.635a4.994,4.994,0,0,0-4.989,4.989v22.15H13.634V31.736a1.366,1.366,0,0,0-2.731,0V55.857A2.5,2.5,0,0,0,13.4,58.352H58.646v3.277H10.936A1.859,1.859,0,0,1,9.13,59.773Zm-1,50.751a1.638,1.638,0,0,1,1.456-.883H58.646v2.018h-3.2a1.366,1.366,0,1,0,0,2.731h3.2v2.768H11.269l1.349-2.768H49.068a1.366,1.366,0,0,0,0-2.731H12.121a1.948,1.948,0,0,0-1.741,1.089L8.257,71.825A1.937,1.937,0,0,0,10,74.61H30.535c-1,2.36-.943,2.213-.992,2.38H3.866a1.128,1.128,0,0,1-1-1.651Z" transform="translate(0 -9.905)" fill="#b13e8d"/>
    </g>
  </g>
</svg>
