<svg xmlns="http://www.w3.org/2000/svg" xmlns:xlink="http://www.w3.org/1999/xlink" width="88" height="88" viewBox="0 0 88 88">
  <defs>
    <filter id="Rect치ngulo_40719" x="0" y="0" width="88" height="88" filterUnits="userSpaceOnUse">
      <feOffset dy="3" input="SourceAlpha"/>
      <feGaussianBlur stdDeviation="3" result="blur"/>
      <feFlood flood-opacity="0.161"/>
      <feComposite operator="in" in2="blur"/>
      <feComposite in="SourceGraphic"/>
    </filter>
  </defs>
  <g id="Grupo_136519" data-name="Grupo 136519" transform="translate(-991.333 -424)">
    <g transform="matrix(1, 0, 0, 1, 991.33, 424)" filter="url(#Rect치ngulo_40719)">
      <path id="Rect치ngulo_40719-2" data-name="Rect치ngulo 40719" d="M10,0H60A10,10,0,0,1,70,10V70a0,0,0,0,1,0,0H10A10,10,0,0,1,0,60V10A10,10,0,0,1,10,0Z" transform="translate(9 6)" fill="#b13e8d"/>
    </g>
    <g id="objetivo_1_" data-name="objetivo (1)" transform="translate(1007.734 431.723)">
      <g id="Grupo_136242" data-name="Grupo 136242" transform="translate(0 7.445)">
        <g id="Grupo_136241" data-name="Grupo 136241">
          <path id="Trazado_194147" data-name="Trazado 194147" d="M12.578,25.131l-1.552,1.552-.708-.709a.886.886,0,0,0-1.252,1.252L10.4,28.561a.886.886,0,0,0,1.253,0l2.178-2.178a.886.886,0,0,0-1.253-1.252Z" transform="translate(-3.607 -14.583)" fill="#fff"/>
          <path id="Trazado_194148" data-name="Trazado 194148" d="M22.543,28.487H34.907a.886.886,0,1,0,0-1.771H22.543a.886.886,0,0,0,0,1.771Z" transform="translate(-8.871 -15.339)" fill="#fff"/>
          <path id="Trazado_194149" data-name="Trazado 194149" d="M12.578,34.383l-1.552,1.552-.708-.709a.886.886,0,0,0-1.252,1.252L10.4,37.813a.886.886,0,0,0,1.253,0l2.178-2.178a.886.886,0,1,0-1.252-1.252Z" transform="translate(-3.607 -18.373)" fill="#fff"/>
          <path id="Trazado_194150" data-name="Trazado 194150" d="M22.543,37.739H34.907a.886.886,0,1,0,0-1.771H22.543a.886.886,0,1,0,0,1.771Z" transform="translate(-8.871 -19.128)" fill="#fff"/>
          <path id="Trazado_194151" data-name="Trazado 194151" d="M12.578,43.635l-1.552,1.552-.708-.709A.886.886,0,0,0,9.065,45.73L10.4,47.065a.886.886,0,0,0,1.253,0l2.178-2.178a.886.886,0,0,0-1.252-1.252Z" transform="translate(-3.607 -22.162)" fill="#fff"/>
          <path id="Trazado_194152" data-name="Trazado 194152" d="M12.578,52.886l-1.552,1.552-.708-.709a.886.886,0,0,0-1.252,1.252L10.4,56.317a.886.886,0,0,0,1.253,0l2.178-2.178a.886.886,0,0,0-1.253-1.252Z" transform="translate(-3.607 -25.952)" fill="#fff"/>
          <path id="Trazado_194153" data-name="Trazado 194153" d="M12.578,62.138,11.026,63.69l-.708-.709a.886.886,0,0,0-1.252,1.252L10.4,65.569a.886.886,0,0,0,1.253,0l2.178-2.178a.886.886,0,0,0-1.253-1.253Z" transform="translate(-3.607 -29.742)" fill="#fff"/>
          <path id="Trazado_194154" data-name="Trazado 194154" d="M12.578,71.39l-1.552,1.552-.708-.709a.886.886,0,0,0-1.252,1.252L10.4,74.82a.886.886,0,0,0,1.253,0l2.178-2.178a.886.886,0,0,0-1.253-1.252Z" transform="translate(-3.607 -33.531)" fill="#fff"/>
          <path id="Trazado_194155" data-name="Trazado 194155" d="M59.32,42.769l.948-1.7a1.476,1.476,0,0,0-1.29-2.193H54.8a1.478,1.478,0,0,0-1.1.487l-2.282,2.526h-.97A16.345,16.345,0,0,0,32.121,26.552V9.512a2.069,2.069,0,0,0-2.066-2.066H2.066A2.069,2.069,0,0,0,0,9.512V54.529a1.478,1.478,0,0,0,1.476,1.476H8.147a.886.886,0,1,0,0-1.771H1.771V15.272H22.317a.886.886,0,0,0,0-1.771H1.771V9.512a.3.3,0,0,1,.3-.3H30.054a.3.3,0,0,1,.3.3V13.5h-3.9a.886.886,0,0,0,0,1.771h3.9v11.6a16.284,16.284,0,0,0-6.073,2.875H13.672a.886.886,0,1,0,0,1.771H22.3a16.422,16.422,0,0,0-2.643,3.691H13.672a.886.886,0,1,0,0,1.771h5.185a16.2,16.2,0,0,0-.926,3.691H13.672a.886.886,0,0,0,0,1.771H17.8c0,.109,0,.217,0,.326a16.348,16.348,0,0,0,.349,3.365H13.672a.886.886,0,0,0,0,1.771h4.952a16.367,16.367,0,0,0,3.881,6.329H12.28a.886.886,0,1,0,0,1.771H24.566A16.332,16.332,0,0,0,50.455,43.654h.97l2.282,2.526a1.478,1.478,0,0,0,1.1.486h4.177a1.476,1.476,0,0,0,1.29-2.193ZM42.567,36.761a10.261,10.261,0,0,1,1.887,5.122H42a7.911,7.911,0,1,0,0,1.771h2.457a10.364,10.364,0,1,1-4.632-9.536A.886.886,0,1,0,40.8,32.64a12.123,12.123,0,1,0,5.434,11.014H48.68a14.57,14.57,0,1,1,0-1.771H46.231a12.022,12.022,0,0,0-2.223-6.152.886.886,0,0,0-1.441,1.03Zm-8.429,6.893h1.707a1.925,1.925,0,1,1,0-1.771H34.138a.886.886,0,1,0,0,1.771Zm0-4.581a3.7,3.7,0,1,0,3.588,4.581h2.487a6.14,6.14,0,1,1,0-1.771H37.725A3.7,3.7,0,0,0,34.138,39.073Zm23.4,4.126.943,1.7H54.933l-1.122-1.242h1.4a.886.886,0,0,0,0-1.771h-1.4l1.122-1.242h3.543l-.943,1.7a.885.885,0,0,0,0,.861Z" transform="translate(0 -7.445)" fill="#fff"/>
        </g>
      </g>
    </g>
  </g>
</svg>
