<svg xmlns="http://www.w3.org/2000/svg" xmlns:xlink="http://www.w3.org/1999/xlink" width="88" height="88" viewBox="0 0 88 88">
  <defs>
    <filter id="Trazado_188616" x="0" y="0" width="88" height="88" filterUnits="userSpaceOnUse">
      <feOffset dy="3" input="SourceAlpha"/>
      <feGaussianBlur stdDeviation="3" result="blur"/>
      <feFlood flood-opacity="0.161"/>
      <feComposite operator="in" in2="blur"/>
      <feComposite in="SourceGraphic"/>
    </filter>
  </defs>
  <g id="Grupo_136520" data-name="Grupo 136520" transform="translate(-1293.333 -305)">
    <g transform="matrix(1, 0, 0, 1, 1293.33, 305)" filter="url(#Trazado_188616)">
      <path id="Trazado_188616-2" data-name="Trazado 188616" d="M7.778,0H62.222A7.778,7.778,0,0,1,70,7.778V70H7.778A7.778,7.778,0,0,1,0,62.222V7.778A7.778,7.778,0,0,1,7.778,0Z" transform="translate(9 6)" fill="#f7ca18"/>
    </g>
    <g id="organigrama" transform="translate(1304.9 318.734)">
      <path id="Trazado_194200" data-name="Trazado 194200" d="M48.484,72.96a4.633,4.633,0,1,0-6.442,0A5.281,5.281,0,0,0,38.5,77.94v3.621a3.359,3.359,0,0,0,3.355,3.355h6.816a3.359,3.359,0,0,0,3.355-3.355V77.94A5.281,5.281,0,0,0,48.484,72.96ZM45.263,66.6a3.035,3.035,0,1,1-3.035,3.035A3.039,3.039,0,0,1,45.263,66.6Zm5.166,14.964a1.759,1.759,0,0,1-1.757,1.757H41.855A1.759,1.759,0,0,1,40.1,81.562V77.94a3.679,3.679,0,0,1,3.674-3.674h2.982a3.679,3.679,0,0,1,3.674,3.674Z" transform="translate(-13.276 -30.386)" fill="#6836bf"/>
      <path id="Trazado_194201" data-name="Trazado 194201" d="M76.884,72.96a4.633,4.633,0,1,0-6.442,0A5.281,5.281,0,0,0,66.9,77.94v3.621a3.359,3.359,0,0,0,3.355,3.355h1.9a.8.8,0,0,0,0-1.6h-1.9A1.759,1.759,0,0,1,68.5,81.562V77.94a3.679,3.679,0,0,1,3.674-3.674h2.982a3.679,3.679,0,0,1,3.674,3.674v3.621a1.759,1.759,0,0,1-1.757,1.757H75.586a.8.8,0,0,0,0,1.6h1.486a3.359,3.359,0,0,0,3.355-3.355V77.94A5.281,5.281,0,0,0,76.884,72.96ZM73.663,66.6a3.035,3.035,0,1,1-3.035,3.035A3.039,3.039,0,0,1,73.663,66.6Z" transform="translate(-26.552 -30.386)" fill="#6836bf"/>
      <path id="Trazado_194202" data-name="Trazado 194202" d="M20.084,72.96a4.633,4.633,0,1,0-6.442,0A5.281,5.281,0,0,0,10.1,77.94v3.621a3.359,3.359,0,0,0,3.355,3.355h6.816a3.359,3.359,0,0,0,3.355-3.355V77.94A5.281,5.281,0,0,0,20.084,72.96ZM16.863,66.6a3.035,3.035,0,1,1-3.035,3.035A3.039,3.039,0,0,1,16.863,66.6Zm5.166,14.964a1.759,1.759,0,0,1-1.757,1.757H13.455A1.759,1.759,0,0,1,11.7,81.562V77.94a3.679,3.679,0,0,1,3.674-3.674h2.982a3.679,3.679,0,0,1,3.674,3.674Z" transform="translate(0 -30.386)" fill="#6836bf"/>
      <path id="Trazado_194203" data-name="Trazado 194203" d="M31.191,29.89a.8.8,0,0,0-.8-.8H28.105V27.578a3.045,3.045,0,0,1,3.041-3.041h3.682v1.186a1.908,1.908,0,0,0,1.906,1.906h.98a1.908,1.908,0,0,0,1.906-1.906V24.537H43.3a3.045,3.045,0,0,1,3.041,3.041v1.513H33.82a.8.8,0,1,0,0,1.6h2.606v1.655a.8.8,0,1,0,1.6,0V30.689H51.548v1.655a.8.8,0,1,0,1.6,0V29.89a.8.8,0,0,0-.8-.8H47.938V27.578A4.644,4.644,0,0,0,43.3,22.939h-3.68V21.425a7.97,7.97,0,0,0,5.179-5.19,1.975,1.975,0,0,0,.428.047c1.487,0,2.6-1.855,2.6-3.514a2.692,2.692,0,0,0-1.519-2.56,9.56,9.56,0,0,0,.143-4,9.2,9.2,0,0,0-.6-1.984.8.8,0,0,0-1.462.644,7.646,7.646,0,0,1,.49,1.643,8.126,8.126,0,0,1-.218,3.656,2.122,2.122,0,0,0-.9,1.221C42.7,9.6,40.773,8.878,38.9,8.174A9.321,9.321,0,0,1,34.849,5.86a1.773,1.773,0,0,0-1.977-.683c-1.218.388-2.014,2.094-2.1,3.125l-.011.137q-.133,1.606-.245,2.539a1.892,1.892,0,0,0-.733-.815,8.057,8.057,0,0,1-.216-3.655,5.383,5.383,0,0,1,1.783-3.381c1.23-1.015,3.206-1.53,5.873-1.53a10.326,10.326,0,0,1,5.3,1.124.8.8,0,1,0,.83-1.365A11.673,11.673,0,0,0,37.223,0c-3.092,0-5.346.62-6.891,1.9A7.082,7.082,0,0,0,28,6.207a9.558,9.558,0,0,0,.143,4,2.692,2.692,0,0,0-1.519,2.56c0,1.659,1.111,3.514,2.6,3.514a1.975,1.975,0,0,0,.428-.047,7.969,7.969,0,0,0,5.179,5.189v1.516h-3.68a4.644,4.644,0,0,0-4.639,4.639v1.513H22.1a.8.8,0,0,0-.8.8v2.453a.8.8,0,1,0,1.6,0V30.689h7.494a.8.8,0,0,0,.8-.8Zm6.833-4.167a.309.309,0,0,1-.309.309h-.98a.309.309,0,0,1-.309-.309V24.537h1.6v1.186Zm7.2-11.039a.4.4,0,0,1-.106-.015,7.979,7.979,0,0,0,.041-.81V12.693c0-.007,0-.015,0-.023a2.269,2.269,0,0,1,.258-1.084,1.067,1.067,0,0,1,.806,1.182c0,1.01-.68,1.916-1,1.916Zm-16.006,0c-.321,0-1-.907-1-1.916a1.067,1.067,0,0,1,.806-1.182,2.239,2.239,0,0,1,.259,1.084c0,.007,0,.015,0,.022V13.86a7.98,7.98,0,0,0,.041.81.4.4,0,0,1-.106.015Zm1.663-.824v-.33a1.228,1.228,0,0,0,.814-.568c.259-.423.413-1.449.657-4.389l.011-.137A2.524,2.524,0,0,1,33.357,6.7c.077-.024.214.123.269.189a10.63,10.63,0,0,0,4.712,2.781c1.985.747,3.7,1.391,4.342,3.149a1.13,1.13,0,0,0,.615.654,1.244,1.244,0,0,0,.268.082v.306a6.34,6.34,0,0,1-12.681,0Zm6.345,7.934q.4,0,.795-.04v1.083h-1.6V21.753A8.036,8.036,0,0,0,37.227,21.793Z" transform="translate(-5.236)" fill="#6836bf"/>
    </g>
  </g>
</svg>
