<svg xmlns="http://www.w3.org/2000/svg" xmlns:xlink="http://www.w3.org/1999/xlink" width="88" height="88" viewBox="0 0 88 88">
  <defs>
    <filter id="Rect치ngulo_40821" x="0" y="0" width="88" height="88" filterUnits="userSpaceOnUse">
      <feOffset dy="3" input="SourceAlpha"/>
      <feGaussianBlur stdDeviation="3" result="blur"/>
      <feFlood flood-opacity="0.161"/>
      <feComposite operator="in" in2="blur"/>
      <feComposite in="SourceGraphic"/>
    </filter>
  </defs>
  <g id="Grupo_136518" data-name="Grupo 136518" transform="translate(-986.333 -177)">
    <g transform="matrix(1, 0, 0, 1, 986.33, 177)" filter="url(#Rect치ngulo_40821)">
      <path id="Rect치ngulo_40821-2" data-name="Rect치ngulo 40821" d="M10,0H60A10,10,0,0,1,70,10V70a0,0,0,0,1,0,0H10A10,10,0,0,1,0,60V10A10,10,0,0,1,10,0Z" transform="translate(9 6)" fill="#7fc733"/>
    </g>
    <g id="cronograma" transform="translate(1000 188)">
      <g id="Grupo_135781" data-name="Grupo 135781">
        <path id="Trazado_193914" data-name="Trazado 193914" d="M57,1H40.907a3,3,0,0,0-2.258,1.025L33.435,7.984A3.988,3.988,0,0,0,31,6.142V1a1,1,0,1,0-2,0V6.142a3.981,3.981,0,0,0,0,7.716v5.284a4,4,0,0,0-2.435,1.842L21.35,15.023A3,3,0,0,0,19.092,14H3a3,3,0,0,0-3,3V29a3,3,0,0,0,3,3H19.092a3,3,0,0,0,2.258-1.025l5.215-5.959A4,4,0,0,0,29,26.858v5.284A4,4,0,0,0,26,36a1,1,0,0,0,2,0,2,2,0,1,1,2,2,1,1,0,0,0-1,1v6.142a4,4,0,0,0-2.435,1.842L21.35,41.023A3,3,0,0,0,19.092,40H3a3,3,0,0,0-3,3V55a3,3,0,0,0,3,3H19.092a3,3,0,0,0,2.258-1.025l5.215-5.959A4,4,0,0,0,29,52.858V59a1,1,0,0,0,2,0V52.858a3.981,3.981,0,0,0,0-7.716V39.858a3.988,3.988,0,0,0,2.435-1.842l5.215,5.961A3,3,0,0,0,40.907,45H57a3,3,0,0,0,3-3V30a3,3,0,0,0-3-3H40.907a3,3,0,0,0-2.258,1.025l-5.214,5.959A3.988,3.988,0,0,0,31,32.142V26.858a3.981,3.981,0,0,0,0-7.716V13.858a3.988,3.988,0,0,0,2.435-1.842l5.215,5.961A3,3,0,0,0,40.907,19H57a3,3,0,0,0,3-3V4a3,3,0,0,0-3-3ZM19.846,55.658a1,1,0,0,1-.754.342H3a1,1,0,0,1-1-1V43a1,1,0,0,1,1-1H19.092a1,1,0,0,1,.753.341L25.671,49ZM32,49a2,2,0,1,1-2-2A2,2,0,0,1,32,49Zm8.154-19.658A1,1,0,0,1,40.907,29H57a1,1,0,0,1,1,1V42a1,1,0,0,1-1,1H40.907a1,1,0,0,1-.752-.341L34.329,36Zm-20.308.316a1,1,0,0,1-.754.342H3a1,1,0,0,1-1-1V17a1,1,0,0,1,1-1H19.092a1,1,0,0,1,.753.341L25.671,23ZM32,23a2,2,0,1,1-2-2A2,2,0,0,1,32,23ZM30,12a2,2,0,1,1,2-2A2,2,0,0,1,30,12Zm28,4a1,1,0,0,1-1,1H40.907a1,1,0,0,1-.752-.341L34.329,10l5.825-6.658A1,1,0,0,1,40.907,3H57a1,1,0,0,1,1,1Z" fill="#12263f"/>
        <path id="Trazado_193915" data-name="Trazado 193915" d="M42,9h1a1,1,0,0,0,0-2H42a1,1,0,0,0,0,2Z" fill="#12263f"/>
        <path id="Trazado_193916" data-name="Trazado 193916" d="M55,7H47a1,1,0,0,0,0,2h8a1,1,0,0,0,0-2Z" fill="#12263f"/>
        <path id="Trazado_193917" data-name="Trazado 193917" d="M50,11H42a1,1,0,0,0,0,2h8a1,1,0,0,0,0-2Z" fill="#12263f"/>
        <path id="Trazado_193918" data-name="Trazado 193918" d="M42,35h1a1,1,0,0,0,0-2H42a1,1,0,0,0,0,2Z" fill="#12263f"/>
        <path id="Trazado_193919" data-name="Trazado 193919" d="M47,35h8a1,1,0,0,0,0-2H47a1,1,0,0,0,0,2Z" fill="#12263f"/>
        <path id="Trazado_193920" data-name="Trazado 193920" d="M42,39h8a1,1,0,0,0,0-2H42a1,1,0,0,0,0,2Z" fill="#12263f"/>
        <path id="Trazado_193921" data-name="Trazado 193921" d="M5,22H6a1,1,0,0,0,0-2H5a1,1,0,0,0,0,2Z" fill="#12263f"/>
        <path id="Trazado_193922" data-name="Trazado 193922" d="M18,20H10a1,1,0,0,0,0,2h8a1,1,0,0,0,0-2Z" fill="#12263f"/>
        <path id="Trazado_193923" data-name="Trazado 193923" d="M13,24H5a1,1,0,0,0,0,2h8a1,1,0,0,0,0-2Z" fill="#12263f"/>
        <path id="Trazado_193924" data-name="Trazado 193924" d="M5,48H6a1,1,0,0,0,0-2H5a1,1,0,0,0,0,2Z" fill="#12263f"/>
        <path id="Trazado_193925" data-name="Trazado 193925" d="M18,46H10a1,1,0,0,0,0,2h8a1,1,0,0,0,0-2Z" fill="#12263f"/>
        <path id="Trazado_193926" data-name="Trazado 193926" d="M13,50H5a1,1,0,0,0,0,2h8a1,1,0,0,0,0-2Z" fill="#12263f"/>
      </g>
    </g>
  </g>
</svg>
