<svg xmlns="http://www.w3.org/2000/svg" xmlns:xlink="http://www.w3.org/1999/xlink" width="190" height="112" viewBox="0 0 190 112">
  <defs>
    <linearGradient id="linear-gradient" x1="0.5" x2="0.5" y2="1" gradientUnits="objectBoundingBox">
      <stop offset="0" stop-color="#f7ca2e" stop-opacity="0"/>
      <stop offset="0.091" stop-color="#f7ca2e" stop-opacity="0.129"/>
      <stop offset="0.283" stop-color="#f7ca2e" stop-opacity="0.388"/>
      <stop offset="0.465" stop-color="#f7ca2e" stop-opacity="0.612"/>
      <stop offset="0.633" stop-color="#f7ca2e" stop-opacity="0.78"/>
      <stop offset="0.784" stop-color="#f7ca2e" stop-opacity="0.902"/>
      <stop offset="0.911" stop-color="#f7ca2e" stop-opacity="0.969"/>
      <stop offset="1" stop-color="#f7ca2e"/>
    </linearGradient>
    <linearGradient id="linear-gradient-2" x1="0.5" x2="0.5" y2="1" gradientUnits="objectBoundingBox">
      <stop offset="0" stop-color="#b13e8d" stop-opacity="0"/>
      <stop offset="0.091" stop-color="#b13e8d" stop-opacity="0.129"/>
      <stop offset="0.283" stop-color="#b13e8d" stop-opacity="0.388"/>
      <stop offset="0.465" stop-color="#b13e8d" stop-opacity="0.612"/>
      <stop offset="0.633" stop-color="#b13e8d" stop-opacity="0.78"/>
      <stop offset="0.784" stop-color="#b13e8d"/>
      <stop offset="0.911" stop-color="#b13e8d" stop-opacity="0.969"/>
      <stop offset="1" stop-color="#b13e8d"/>
    </linearGradient>
    <filter id="Trazado_194885" x="41" y="4" width="108" height="108" filterUnits="userSpaceOnUse">
      <feOffset dy="3" input="SourceAlpha"/>
      <feGaussianBlur stdDeviation="3" result="blur"/>
      <feFlood flood-opacity="0.161"/>
      <feComposite operator="in" in2="blur"/>
      <feComposite in="SourceGraphic"/>
    </filter>
  </defs>
  <g id="Grupo_136512" data-name="Grupo 136512" transform="translate(10404 12011)">
    <path id="Trazado_194884" data-name="Trazado 194884" d="M0,0H190V20H0Z" transform="translate(-10404 -11966)" fill="none"/>
    <path id="Trazado_194886" data-name="Trazado 194886" d="M0,0H12V43.333a3,3,0,0,1-3,3H3a3,3,0,0,1-3-3Z" transform="translate(-10374.5 -11947)" fill="url(#linear-gradient)"/>
    <path id="Trazado_194887" data-name="Trazado 194887" d="M0,0H12V49a3,3,0,0,1-3,3H3a3,3,0,0,1-3-3Z" transform="translate(-10244 -11959) rotate(180)" fill="url(#linear-gradient-2)"/>
    <g transform="matrix(1, 0, 0, 1, -10404, -12011)" filter="url(#Trazado_194885)">
      <path id="Trazado_194885-2" data-name="Trazado 194885" d="M10,0H80A10,10,0,0,1,90,10V90H10A10,10,0,0,1,0,80V10A10,10,0,0,1,10,0Z" transform="translate(50 10)" fill="#f6f6f6"/>
    </g>
    <path id="Trazado_194105" data-name="Trazado 194105" d="M64.506,23.076a6.476,6.476,0,0,0-.788-8.188l-1.233-1.233a6.476,6.476,0,0,0-8.188-.788l-7.23-7.23a3.85,3.85,0,0,0-5.445,5.445l.3.3.4,4.437a17.334,17.334,0,0,1-4.181,12.965l-.329-.329a1.233,1.233,0,0,0-1.744,0l-11.1,11.1a1.233,1.233,0,0,0,0,1.744l.361.361L22.653,44.34a4.934,4.934,0,0,0,0,6.977l3.4,3.4a4.934,4.934,0,0,0,6.977,0L35.71,52.04l.361.361a1.233,1.233,0,0,0,1.744,0l.361-.361.723.723-1.084,1.084A7.142,7.142,0,0,0,35.71,58.93a4.691,4.691,0,0,1-1.383,3.339L30.776,65.82l-1.595-1.595a1.233,1.233,0,0,0-1.744,0L15.1,76.56,16.847,78.3,28.31,66.842,39.772,78.3l1.744-1.744-9-9,1.956-1.956L45.939,77.07a1.233,1.233,0,0,0,1.744,0l.723-.723a4.691,4.691,0,0,1,3.339-1.383,7.142,7.142,0,0,0,5.083-2.106l9.207-9.207a4.939,4.939,0,0,0,0-6.977l-10.8-10.8a4.939,4.939,0,0,0-6.977,0l-1.445,1.445-1.956-1.956L48.917,41.3a1.233,1.233,0,0,0,0-1.744l-.329-.329a17.337,17.337,0,0,1,12.965-4.181l4.437.4.3.3a3.85,3.85,0,0,0,5.445-5.445ZM60.74,15.4l1.233,1.233a4.006,4.006,0,0,1,.734,4.646l-6.613-6.613A4.006,4.006,0,0,1,60.74,15.4ZM31.287,52.975a2.469,2.469,0,0,1-3.034.356l2.162-2.162-1.744-1.744-2.211,2.211-.872-.872L27.649,48.7,25.9,46.957l-1.97,1.97a2.47,2.47,0,0,1,.463-2.842l2.679-2.679,6.89,6.89Zm22.045-5.5a2.469,2.469,0,0,1-.142,3.332l-1.084,1.084,1.744,1.744,1.084-1.084a4.9,4.9,0,0,0,1.273-2.216l.683.683a2.47,2.47,0,0,1,0,3.489l-1.084,1.084,1.744,1.744,1.084-1.084a4.9,4.9,0,0,0,1.276-2.213l.68.68a2.47,2.47,0,0,1,0,3.489l-1.084,1.084,1.744,1.744,1.084-1.084a4.9,4.9,0,0,0,1.276-2.213l.68.68a2.47,2.47,0,0,1,0,3.489l-9.207,9.207A4.691,4.691,0,0,1,51.745,72.5a7.139,7.139,0,0,0-4.932,1.958L36.219,63.862a7.259,7.259,0,0,0,.651-.794l2.9,2.9,1.744-1.744-3.552-3.552a7.236,7.236,0,0,0,.213-1.743,4.691,4.691,0,0,1,1.383-3.339l1.084-1.084.361.361a4.722,4.722,0,0,0,7.434-5.69L50,47.617a2.469,2.469,0,0,1,3.332-.142Zm-7.393,2.459a2.255,2.255,0,1,1-3.189,3.189L39.921,50.3l3.19-3.19Zm-9-.15-9.357-9.357,9.357-9.357L46.3,40.428Zm24.832-17.2a19.8,19.8,0,0,0-14.937,4.889l-6.945-6.945A19.794,19.794,0,0,0,44.783,15.6l-.135-1.489L63.265,32.724Zm8.215,1.417a1.385,1.385,0,0,1-1.956,0L43.366,9.337a1.383,1.383,0,1,1,1.956-1.956L69.991,32.05a1.385,1.385,0,0,1,0,1.956Z" transform="translate(-10356.608 -11997.239)" fill="#6836bf"/>
    <path id="Trazado_194106" data-name="Trazado 194106" d="M30.033,31.4a3.7,3.7,0,0,1,3.7,3.7,1.233,1.233,0,0,0,2.467,0,3.7,3.7,0,0,1,3.7-3.7,1.233,1.233,0,1,0,0-2.467,3.7,3.7,0,0,1-3.7-3.7,1.233,1.233,0,1,0-2.467,0,3.7,3.7,0,0,1-3.7,3.7,1.233,1.233,0,0,0,0,2.467Zm4.934-2.471A6.219,6.219,0,0,0,36.2,30.167,6.219,6.219,0,0,0,34.967,31.4a6.219,6.219,0,0,0-1.237-1.237,6.219,6.219,0,0,0,1.237-1.237Z" transform="translate(-10363.267 -12006.713)" fill="#6836bf"/>
    <path id="Trazado_194107" data-name="Trazado 194107" d="M128.7,21.734a3.7,3.7,0,0,1-3.7-3.7,1.233,1.233,0,0,0-2.467,0,3.7,3.7,0,0,1-3.7,3.7,1.233,1.233,0,0,0,0,2.467,3.7,3.7,0,0,1,3.7,3.7,1.233,1.233,0,1,0,2.467,0,3.7,3.7,0,0,1,3.7-3.7,1.233,1.233,0,1,0,0-2.467ZM123.767,24.2a6.219,6.219,0,0,0-1.237-1.237,6.219,6.219,0,0,0,1.237-1.237A6.22,6.22,0,0,0,125,22.967a6.22,6.22,0,0,0-1.237,1.237Z" transform="translate(-10406.429 -12003.214)" fill="#6836bf"/>
    <path id="Trazado_194108" data-name="Trazado 194108" d="M109.5,72.134a3.7,3.7,0,0,1-3.7-3.7,1.233,1.233,0,1,0-2.467,0,3.7,3.7,0,0,1-3.7,3.7,1.233,1.233,0,0,0,0,2.467,3.7,3.7,0,0,1,3.7,3.7,1.233,1.233,0,1,0,2.467,0,3.7,3.7,0,0,1,3.7-3.7,1.233,1.233,0,1,0,0-2.467ZM104.567,74.6a6.219,6.219,0,0,0-1.237-1.237,6.219,6.219,0,0,0,1.237-1.237,6.22,6.22,0,0,0,1.237,1.237,6.22,6.22,0,0,0-1.237,1.237Z" transform="translate(-10397.097 -12027.711)" fill="#6836bf"/>
  </g>
</svg>
