<svg id="engranajes" xmlns="http://www.w3.org/2000/svg" width="85.31" height="85.31" viewBox="0 0 85.31 85.31">
  <g id="Grupo_136237" data-name="Grupo 136237">
    <g id="Grupo_136236" data-name="Grupo 136236">
      <g id="Grupo_136235" data-name="Grupo 136235">
        <path id="Trazado_194123" data-name="Trazado 194123" d="M43.785,52.853a1.347,1.347,0,0,0-1.794-.639,21.449,21.449,0,0,1-3.407,1.274,1.346,1.346,0,0,0-.958,1.033L36.2,61.646A1.514,1.514,0,0,1,34.72,62.86H30.833a1.514,1.514,0,0,1-1.481-1.214l-1.425-7.124a1.347,1.347,0,0,0-.958-1.033,21.4,21.4,0,0,1-4.731-1.96,1.347,1.347,0,0,0-1.408.053l-6.046,4.031a1.515,1.515,0,0,1-1.906-.189l-2.749-2.749a1.515,1.515,0,0,1-.189-1.906l4.031-6.046a1.347,1.347,0,0,0,.053-1.408,21.4,21.4,0,0,1-1.96-4.731,1.346,1.346,0,0,0-1.033-.958L3.908,36.2A1.514,1.514,0,0,1,2.693,34.72V30.833a1.514,1.514,0,0,1,1.214-1.481l7.124-1.425a1.347,1.347,0,0,0,1.033-.958,21.4,21.4,0,0,1,1.96-4.731,1.347,1.347,0,0,0-.053-1.408l-4.03-6.045a1.515,1.515,0,0,1,.189-1.906l2.749-2.749a1.515,1.515,0,0,1,1.906-.189l6.046,4.031a1.347,1.347,0,0,0,1.408.053,21.4,21.4,0,0,1,4.731-1.96,1.346,1.346,0,0,0,.958-1.033l1.425-7.124a1.514,1.514,0,0,1,1.481-1.214h3.887A1.514,1.514,0,0,1,36.2,3.908l1.425,7.124a1.347,1.347,0,0,0,.958,1.033,21.4,21.4,0,0,1,4.731,1.96,1.347,1.347,0,0,0,1.408-.053l6.046-4.031a1.515,1.515,0,0,1,1.906.189l2.749,2.749a1.515,1.515,0,0,1,.189,1.906l-4.031,6.046a1.347,1.347,0,0,0-.053,1.408,21.4,21.4,0,0,1,1.96,4.731,1.346,1.346,0,0,0,1.033.958l7.124,1.425a1.514,1.514,0,0,1,1.214,1.481V34.72A1.514,1.514,0,0,1,61.647,36.2l-7.124,1.425a1.347,1.347,0,0,0-1.033.958,21.44,21.44,0,0,1-1.313,3.488A1.347,1.347,0,0,0,54.6,43.238a24.16,24.16,0,0,0,1.24-3.129l6.33-1.266a4.216,4.216,0,0,0,3.379-4.123V30.833a4.216,4.216,0,0,0-3.38-4.123l-6.33-1.266a24.1,24.1,0,0,0-1.572-3.794l3.581-5.372a4.216,4.216,0,0,0-.525-5.305L54.579,8.225A4.216,4.216,0,0,0,49.274,7.7L43.9,11.281a24.119,24.119,0,0,0-3.794-1.572l-1.266-6.33A4.215,4.215,0,0,0,34.72,0H30.833a4.216,4.216,0,0,0-4.123,3.38L25.445,9.71a24.1,24.1,0,0,0-3.794,1.572L16.28,7.7a4.216,4.216,0,0,0-5.305.525L8.226,10.974A4.216,4.216,0,0,0,7.7,16.28l3.581,5.372A24.113,24.113,0,0,0,9.71,25.445L3.38,26.711A4.215,4.215,0,0,0,0,30.834v3.887a4.216,4.216,0,0,0,3.38,4.123l6.33,1.266A24.1,24.1,0,0,0,11.282,43.9L7.7,49.275a4.216,4.216,0,0,0,.525,5.305l2.749,2.749a4.216,4.216,0,0,0,5.305.525l5.372-3.581a24.113,24.113,0,0,0,3.794,1.572l1.266,6.33a4.216,4.216,0,0,0,4.123,3.379h3.887a4.216,4.216,0,0,0,4.123-3.38l1.266-6.33a24.131,24.131,0,0,0,3.037-1.2A1.347,1.347,0,0,0,43.785,52.853Z" fill="#b13e8d"/>
        <path id="Trazado_194124" data-name="Trazado 194124" d="M48.812,43.795a1.346,1.346,0,0,0,1.813-.584A15.143,15.143,0,0,0,26.576,25.468a1.347,1.347,0,1,0,1.88,1.929A12.45,12.45,0,0,1,48.228,41.982,1.347,1.347,0,0,0,48.812,43.795Z" transform="translate(-4.367 -3.533)" fill="#b13e8d"/>
        <path id="Trazado_194125" data-name="Trazado 194125" d="M23.7,32.41a1.347,1.347,0,0,0-1.712.835,15.145,15.145,0,0,0,23.193,17.2,1.347,1.347,0,1,0-1.58-2.182A12.454,12.454,0,0,1,24.537,34.122,1.346,1.346,0,0,0,23.7,32.41Z" transform="translate(-3.533 -5.397)" fill="#b13e8d"/>
        <path id="Trazado_194126" data-name="Trazado 194126" d="M90.993,67.145l-3.9-.779a16.294,16.294,0,0,0-.854-2.062L88.447,61a3.233,3.233,0,0,0-.4-4.069l-1.806-1.806a3.234,3.234,0,0,0-4.069-.4l-3.305,2.2a16.269,16.269,0,0,0-2.062-.854l-.779-3.9a3.233,3.233,0,0,0-3.162-2.592H70.307a3.233,3.233,0,0,0-3.162,2.592l-.779,3.9a16.318,16.318,0,0,0-2.062.854L61,54.721a3.234,3.234,0,0,0-4.069.4L55.124,56.93a3.233,3.233,0,0,0-.4,4.069l2.2,3.305a16.28,16.28,0,0,0-1.1,2.862,1.347,1.347,0,0,0,2.594.726,13.593,13.593,0,0,1,1.246-3.006,1.347,1.347,0,0,0-.053-1.408L56.963,59.5a.532.532,0,0,1,.066-.67l1.806-1.806a.533.533,0,0,1,.67-.066l3.973,2.649a1.347,1.347,0,0,0,1.408.053,13.6,13.6,0,0,1,3.006-1.246,1.346,1.346,0,0,0,.958-1.033l.936-4.682a.532.532,0,0,1,.52-.427h2.554a.532.532,0,0,1,.52.427l.936,4.682a1.347,1.347,0,0,0,.958,1.033,13.593,13.593,0,0,1,3.006,1.246,1.347,1.347,0,0,0,1.408-.053l3.973-2.649a.532.532,0,0,1,.67.066l1.806,1.806a.533.533,0,0,1,.066.67l-2.649,3.973a1.346,1.346,0,0,0-.053,1.408,13.6,13.6,0,0,1,1.246,3.006,1.346,1.346,0,0,0,1.033.958l4.682.936a.532.532,0,0,1,.427.52v2.554a.532.532,0,0,1-.427.52l-4.682.936a1.347,1.347,0,0,0-1.033.958A13.593,13.593,0,0,1,83.5,78.282a1.347,1.347,0,0,0,.053,1.408l2.649,3.973a.532.532,0,0,1-.066.67L84.333,86.14a.532.532,0,0,1-.67.066L79.69,83.557a1.347,1.347,0,0,0-1.408-.053,13.6,13.6,0,0,1-3.006,1.246,1.346,1.346,0,0,0-.958,1.033l-.936,4.682a.532.532,0,0,1-.52.427H70.306a.532.532,0,0,1-.52-.427l-.936-4.682a1.347,1.347,0,0,0-.958-1.033A13.593,13.593,0,0,1,64.886,83.5a1.347,1.347,0,0,0-1.408.053L59.5,86.206a.532.532,0,0,1-.67-.066l-1.806-1.806a.533.533,0,0,1-.066-.67l2.649-3.973a1.347,1.347,0,0,0,.053-1.408,13.6,13.6,0,0,1-1.246-3.006,1.346,1.346,0,0,0-1.033-.958L52.7,73.382a.532.532,0,0,1-.427-.52V70.307a.532.532,0,0,1,.427-.52l.287-.057a1.347,1.347,0,1,0-.529-2.642l-.287.057a3.234,3.234,0,0,0-2.592,3.162v2.554a3.233,3.233,0,0,0,2.592,3.162l3.9.779a16.318,16.318,0,0,0,.854,2.062l-2.2,3.305a3.233,3.233,0,0,0,.4,4.069l1.806,1.806a3.233,3.233,0,0,0,4.069.4l3.305-2.2a16.269,16.269,0,0,0,2.062.854l.779,3.9a3.234,3.234,0,0,0,3.162,2.592h2.554a3.233,3.233,0,0,0,3.162-2.592l.779-3.9a16.294,16.294,0,0,0,2.062-.854l3.305,2.2a3.233,3.233,0,0,0,4.069-.4l1.806-1.806a3.233,3.233,0,0,0,.4-4.069l-2.2-3.305A16.269,16.269,0,0,0,87.1,76.8l3.9-.779a3.233,3.233,0,0,0,2.592-3.162V70.307A3.233,3.233,0,0,0,90.993,67.145Z" transform="translate(-8.275 -8.275)" fill="#b13e8d"/>
        <path id="Trazado_194127" data-name="Trazado 194127" d="M74.48,69.631A4.855,4.855,0,0,1,79.33,74.48a1.347,1.347,0,0,0,2.694,0,7.543,7.543,0,1,0-7.543,7.543,7.473,7.473,0,0,0,4.609-1.571,1.347,1.347,0,0,0-1.647-2.132A4.8,4.8,0,0,1,74.48,79.33a4.849,4.849,0,1,1,0-9.7Z" transform="translate(-11.171 -11.171)" fill="#b13e8d"/>
        <path id="Trazado_194128" data-name="Trazado 194128" d="M45.906,37.7A8.207,8.207,0,1,0,37.7,45.906,8.216,8.216,0,0,0,45.906,37.7Zm-13.719,0A5.513,5.513,0,1,1,37.7,43.212,5.519,5.519,0,0,1,32.187,37.7Z" transform="translate(-4.922 -4.922)" fill="#b13e8d"/>
      </g>
    </g>
  </g>
</svg>
