<svg id="empollon" xmlns="http://www.w3.org/2000/svg" width="85" height="85" viewBox="0 0 85 85">
  <g id="Grupo_136239" data-name="Grupo 136239" transform="translate(0 0)">
    <path id="Trazado_194132" data-name="Trazado 194132" d="M79.284,52.984a1.245,1.245,0,0,0-.251,1.743,17.227,17.227,0,0,1,3.476,10.4A17.386,17.386,0,1,1,65.124,47.737a17.227,17.227,0,0,1,10.4,3.476,1.245,1.245,0,0,0,1.493-1.993A19.7,19.7,0,0,0,66.369,45.29V39.713A19.876,19.876,0,1,0,45.287,18.631H39.71A19.7,19.7,0,0,0,35.78,7.988,1.245,1.245,0,0,0,33.786,9.48a17.227,17.227,0,0,1,3.476,10.4A17.386,17.386,0,1,1,19.876,2.49a17.228,17.228,0,0,1,10.4,3.476,1.245,1.245,0,0,0,1.493-1.994A19.7,19.7,0,0,0,19.876,0a19.876,19.876,0,0,0-1.245,39.713v5.575A19.876,19.876,0,1,0,39.713,66.369h5.575A19.876,19.876,0,0,0,85,65.124a19.7,19.7,0,0,0-3.973-11.889,1.245,1.245,0,0,0-1.743-.25ZM65.124,2.49A17.386,17.386,0,1,1,47.737,19.876,17.406,17.406,0,0,1,65.124,2.49ZM39.713,21.122h5.575A19.9,19.9,0,0,0,63.879,39.713v5.575A19.9,19.9,0,0,0,45.287,63.878H39.713A19.9,19.9,0,0,0,21.122,45.287V39.713A19.9,19.9,0,0,0,39.713,21.121ZM19.876,82.51A17.386,17.386,0,1,1,37.263,65.124,17.406,17.406,0,0,1,19.876,82.51Z" transform="translate(0 0)" fill="#b13e8d"/>
    <path id="Trazado_194133" data-name="Trazado 194133" d="M29.006,17.879l.933-.539a1.245,1.245,0,0,0,.577-1.412,11.568,11.568,0,0,0-2.973-5.149,1.246,1.246,0,0,0-1.511-.206l-.933.539a1.416,1.416,0,0,1-2.125-1.227V8.808A1.245,1.245,0,0,0,22.04,7.6a11.568,11.568,0,0,0-5.945,0,1.245,1.245,0,0,0-.934,1.206V9.886a1.416,1.416,0,0,1-2.125,1.227l-.933-.539a1.245,1.245,0,0,0-1.511.206,11.57,11.57,0,0,0-2.973,5.149A1.245,1.245,0,0,0,8.2,17.341l.933.539a1.416,1.416,0,0,1,0,2.454l-.933.539a1.245,1.245,0,0,0-.577,1.412,11.568,11.568,0,0,0,2.973,5.149,1.245,1.245,0,0,0,1.511.206l.933-.539a1.416,1.416,0,0,1,2.125,1.227V29.4a1.245,1.245,0,0,0,.934,1.206,11.568,11.568,0,0,0,5.945,0,1.245,1.245,0,0,0,.934-1.206V28.326A1.416,1.416,0,0,1,25.1,27.1l.933.539a1.245,1.245,0,0,0,1.511-.206,11.569,11.569,0,0,0,2.973-5.148,1.245,1.245,0,0,0-.577-1.412l-.933-.539a1.417,1.417,0,0,1,0-2.454Zm-1.245,4.61.058.033A8.81,8.81,0,0,1,26.4,24.976l-.058-.033a3.907,3.907,0,0,0-5.86,3.383v.067a8.844,8.844,0,0,1-2.833,0v-.067a3.907,3.907,0,0,0-5.86-3.383l-.058.033a8.81,8.81,0,0,1-1.416-2.453l.058-.033a3.907,3.907,0,0,0,0-6.767l-.058-.033a8.81,8.81,0,0,1,1.416-2.453l.058.033a3.907,3.907,0,0,0,5.86-3.383V9.819a8.844,8.844,0,0,1,2.833,0v.067a3.907,3.907,0,0,0,5.86,3.383l.058-.033a8.81,8.81,0,0,1,1.416,2.453l-.058.033a3.907,3.907,0,0,0,0,6.767Z" transform="translate(0.809 0.77)" fill="#b13e8d"/>
    <path id="Trazado_194134" data-name="Trazado 194134" d="M18.336,14.429a3.907,3.907,0,1,0,3.907,3.907,3.911,3.911,0,0,0-3.907-3.907Zm0,5.323a1.417,1.417,0,1,1,1.417-1.417A1.418,1.418,0,0,1,18.336,19.752Z" transform="translate(1.541 1.541)" fill="#b13e8d"/>
    <path id="Trazado_194135" data-name="Trazado 194135" d="M28.378,58.872a9.247,9.247,0,0,0-7.9-7.9V48.139a1.245,1.245,0,0,0-2.49,0v2.834a9.247,9.247,0,0,0-7.9,7.9H7.257a1.245,1.245,0,1,0,0,2.49h2.834a9.247,9.247,0,0,0,7.9,7.9v2.834a1.245,1.245,0,0,0,2.49,0V69.26a9.247,9.247,0,0,0,7.9-7.9h2.834a1.245,1.245,0,1,0,0-2.49Zm-7.9,7.868v-1.3a1.245,1.245,0,0,0-2.49,0v1.3a6.756,6.756,0,0,1-5.377-5.377h1.3a1.245,1.245,0,1,0,0-2.49h-1.3a6.756,6.756,0,0,1,5.377-5.377v1.3a1.245,1.245,0,0,0,2.49,0v-1.3a6.756,6.756,0,0,1,5.377,5.377h-1.3a1.245,1.245,0,1,0,0,2.49h1.3a6.756,6.756,0,0,1-5.377,5.377Z" transform="translate(0.642 5.007)" fill="#b13e8d"/>
    <path id="Trazado_194136" data-name="Trazado 194136" d="M59.86,49.3A10.561,10.561,0,1,0,70.421,59.86,10.573,10.573,0,0,0,59.86,49.3Zm7.974,9.316H61.105V51.886A8.09,8.09,0,0,1,67.834,58.615ZM59.86,67.93a8.071,8.071,0,0,1-1.245-16.045V59.86a1.245,1.245,0,0,0,1.245,1.245h7.974A8.083,8.083,0,0,1,59.86,67.93Z" transform="translate(5.264 5.264)" fill="#b13e8d"/>
    <path id="Trazado_194137" data-name="Trazado 194137" d="M54.408,28.208H65.055A3.911,3.911,0,0,0,68.961,24.3V17.647a3.911,3.911,0,0,0-3.907-3.907H63.638V10.993a2.579,2.579,0,0,0-2.576-2.576H58.4a2.579,2.579,0,0,0-2.576,2.576V13.74H54.408A3.911,3.911,0,0,0,50.5,17.647V24.3a3.911,3.911,0,0,0,3.907,3.907Zm10.647-2.49H54.408A1.418,1.418,0,0,1,52.992,24.3V20.448c.215.09.448.178.7.262a14.863,14.863,0,0,0,2.133.523v.406a1.245,1.245,0,0,0,2.49,0v-.126c.465.026.938.041,1.416.041s.952-.014,1.416-.041v.126a1.245,1.245,0,0,0,2.49,0v-.406a14.863,14.863,0,0,0,2.133-.523c.252-.084.485-.172.7-.262V24.3a1.418,1.418,0,0,1-1.416,1.416Zm-6.74-14.725a.086.086,0,0,1,.086-.086h2.662a.086.086,0,0,1,.086.086V13.74H58.315ZM54.408,16.23H65.055a1.417,1.417,0,0,1,1.413,1.34c-.353.472-2.636,1.493-6.736,1.493S53.348,18.042,53,17.57A1.417,1.417,0,0,1,54.408,16.23Z" transform="translate(5.392 0.899)" fill="#b13e8d"/>
  </g>
</svg>
