<svg xmlns="http://www.w3.org/2000/svg" width="80.465" height="88.04" viewBox="0 0 80.465 88.04">
  <g id="telefono-movil" transform="translate(-4.404 0.001)">
    <g id="Grupo_136238" data-name="Grupo 136238" transform="translate(4.404 -0.001)">
      <path id="Trazado_194129" data-name="Trazado 194129" d="M79.37,43.439a15.25,15.25,0,0,1-1.74-11.6,8.4,8.4,0,0,0,.144-3.383,1.29,1.29,0,0,0-2.546.411,5.832,5.832,0,0,1-.1,2.35,17.815,17.815,0,0,0,2.042,13.565l.041.064c.078.114,7.73,11.487,4.087,21.591A29.374,29.374,0,0,1,67.129,82.089a27.171,27.171,0,0,1-21.416,2.034c-2.338-.8-5.739-2.642-9.38-6.908q1.163.015,2.326.015a176.833,176.833,0,0,0,18.6-.979,10.371,10.371,0,0,0,9.288-9.67c.221-3.468.4-6.947.539-10.388l.009.012a1.29,1.29,0,1,0,2-1.631c-6.745-8.264-7.224-18.951-5.423-26.2a5.905,5.905,0,0,1,9.459-3.153,1.29,1.29,0,0,0,1.629-2,8.5,8.5,0,0,0-7.65-1.594c-.141-3.651-.327-7.334-.561-10.978A10.372,10.372,0,0,0,57.258.98a176.835,176.835,0,0,0-37.2,0,10.371,10.371,0,0,0-9.206,8.89A7.826,7.826,0,0,0,10.093,25.1q-.088,2.868-.138,5.739A7.837,7.837,0,0,0,7.908,44.868,7.836,7.836,0,0,0,10.358,59q.176,3.794.415,7.577a10.372,10.372,0,0,0,9.288,9.67q6.426.68,12.9.884c4.523,5.968,8.961,8.423,11.921,9.43a27.837,27.837,0,0,0,8.979,1.475A31.316,31.316,0,0,0,68.32,84.376a31.977,31.977,0,0,0,15.4-17.062c4-11.1-3.716-22.929-4.353-23.875ZM6.984,17.575a5.214,5.214,0,0,1,3.674-5.008q-.291,4.911-.473,9.841a5.258,5.258,0,0,1-3.2-4.833ZM9.916,33.629q-.053,4.7-.007,9.406a5.24,5.24,0,0,1,.007-9.406ZM6.984,51.4a5.292,5.292,0,0,1,2.978-4.727q.087,4.8.277,9.584A5.221,5.221,0,0,1,6.984,51.4Zm6.363,15.012a438.406,438.406,0,0,1,0-55.6,7.8,7.8,0,0,1,6.986-7.269,174.251,174.251,0,0,1,36.654,0,7.8,7.8,0,0,1,6.986,7.269c.255,3.987.455,8.022.6,12.008a8.422,8.422,0,0,0-2.115,2.094q-.178-4.749-.479-9.479a8.814,8.814,0,0,0-7.89-8.218c-1.225-.129-2.439-.242-3.609-.336a1.288,1.288,0,0,0-1.353.966,2.777,2.777,0,0,1-2.388,2.061,77.1,77.1,0,0,1-16.152,0,2.782,2.782,0,0,1-2.392-2.063,1.289,1.289,0,0,0-1.353-.965c-1.171.095-2.385.208-3.609.337a8.815,8.815,0,0,0-7.891,8.217,365.57,365.57,0,0,0,0,46.355A8.815,8.815,0,0,0,23.23,70.01c.649.069,1.352.138,2.151.212a1.29,1.29,0,0,0,.236-2.568c-.786-.072-1.477-.14-2.114-.208a6.242,6.242,0,0,1-5.589-5.817,362.957,362.957,0,0,1,0-46.027A6.241,6.241,0,0,1,23.5,9.786c.87-.091,1.735-.175,2.583-.25a5.382,5.382,0,0,0,4.227,2.94,79.675,79.675,0,0,0,16.7,0,5.377,5.377,0,0,0,4.225-2.94c.847.074,1.712.158,2.582.249A6.241,6.241,0,0,1,59.4,15.6a361.679,361.679,0,0,1,0,46.027,6.24,6.24,0,0,1-5.587,5.816,144.438,144.438,0,0,1-23.133.579,1.29,1.29,0,0,0-.143,2.575q4.027.224,8.084.224a147.4,147.4,0,0,0,15.464-.814,8.814,8.814,0,0,0,7.889-8.217q.423-6.6.6-13.25a30.046,30.046,0,0,0,2.052,4.142c-.144,4.519-.365,9.136-.658,13.731a7.8,7.8,0,0,1-6.986,7.269,174.484,174.484,0,0,1-36.654,0,7.8,7.8,0,0,1-6.985-7.269Z" transform="translate(-4.404 0.001)" fill="#b13e8d"/>
      <path id="Trazado_194130" data-name="Trazado 194130" d="M37.587,8.515h11.09a1.29,1.29,0,0,0,0-2.579H37.587a1.29,1.29,0,0,0,0,2.579Z" transform="translate(-8.877 -0.832)" fill="#b13e8d"/>
      <path id="Trazado_194131" data-name="Trazado 194131" d="M39.207,57.811l.14,0,4.713-.185A3.549,3.549,0,0,0,47.1,55.652l9.767-19.7a3.555,3.555,0,0,0-1.6-4.759l-3.5-1.736A3.551,3.551,0,0,0,47,31.057L41.122,42.924,38.96,39.307a3.551,3.551,0,0,0-4.87-1.226l-3.355,2.005a3.551,3.551,0,0,0-1.226,4.87L36.16,56.082a3.549,3.549,0,0,0,3.048,1.729ZM31.615,42.9a.967.967,0,0,1,.444-.6l3.355-2.005a.965.965,0,0,1,.5-.138.979.979,0,0,1,.239.03.965.965,0,0,1,.6.444l3.375,5.646a1.29,1.29,0,0,0,2.262-.089L49.316,32.2a.972.972,0,0,1,1.3-.439l3.5,1.736a.973.973,0,0,1,.439,1.3l-9.767,19.7a.972.972,0,0,1-.833.54l-4.713.185a.969.969,0,0,1-.872-.473L31.723,43.633a.966.966,0,0,1-.108-.736Z" transform="translate(-7.854 -4.078)" fill="#b13e8d"/>
    </g>
  </g>
</svg>
