<svg xmlns="http://www.w3.org/2000/svg" width="92.871" height="92.846" viewBox="0 0 92.871 92.846">
  <g id="reunion" transform="translate(0 -0.014)">
    <g id="Grupo_136234" data-name="Grupo 136234" transform="translate(0 0.014)">
      <path id="Trazado_194113" data-name="Trazado 194113" d="M83.276,75.359a9.92,9.92,0,0,0-.587-2.5c9.767-5.455,13.571-13.438,6.658-21.225v-7.1a6.529,6.529,0,0,0-6.072-6.5,9.911,9.911,0,0,0-.72-2.827,5.64,5.64,0,0,0,1.714-4.035V15.852a5.623,5.623,0,0,0-10.335-3.036,8.338,8.338,0,0,0-11.526,7.656v5.905a8.25,8.25,0,0,0,.97,3.89,10.2,10.2,0,0,0-5.269,9.241q-2.463-.282-5-.443a1.361,1.361,0,0,0-.172,2.715c9.147.579,18.616,2.244,26.883,6.349,12.8,6.226,13.986,15.522,1.574,22.344a9.928,9.928,0,0,0-3.33-2.881A8.252,8.252,0,0,0,79.03,63.7V57.8a8.311,8.311,0,0,0-16.623,0V63.7a8.251,8.251,0,0,0,.969,3.888,10.287,10.287,0,0,0-5.268,9.59,101.823,101.823,0,0,1-23.345,0,10.2,10.2,0,0,0-4.3-8.993V57.8a8.311,8.311,0,0,0-16.623,0v10.39a9.961,9.961,0,0,0-2.363,2.283C-1.312,63.417.46,53.911,13.822,47.757c7.446-3.507,17.591-5.675,28.566-6.1a1.361,1.361,0,0,0-.106-2.718c-2.551.1-5.061.292-7.508.571a10.261,10.261,0,0,0-5.28-9.24,8.25,8.25,0,0,0,.97-3.89V20.472a8.311,8.311,0,0,0-16.623.015v5.891a8.25,8.25,0,0,0,.97,3.888A9.952,9.952,0,0,0,9.6,38.033a6.53,6.53,0,0,0-6.072,6.5v7.093c-6.912,7.783-3.112,15.777,6.657,21.23a9.916,9.916,0,0,0-.583,2.5,6.529,6.529,0,0,0-6.074,6.5v7.2a4.76,4.76,0,0,0,4.755,4.755H26.122a1.146,1.146,0,0,0,1-.382l9.923-6.278a4.056,4.056,0,0,0-.56-7.052,105.451,105.451,0,0,0,19.832.007,4.056,4.056,0,0,0-.542,7.044L65.968,93.6a1.376,1.376,0,0,0,.727.211h17.9a4.757,4.757,0,0,0,4.742-4.471,1.361,1.361,0,0,0-2.715-.162,2.034,2.034,0,0,1-2.027,1.912H68.054c0-2.3,0-6.951,0-9.23a3.806,3.806,0,0,1,3.8-3.8q5.484,0,10.969,0a3.9,3.9,0,0,1,3.8,3.984,1.361,1.361,0,0,0,2.72,0,6.6,6.6,0,0,0-6.072-6.686Zm3.351-30.821v4.608a30.226,30.226,0,0,0-3.3-2.213v-6.16A3.8,3.8,0,0,1,86.627,44.538ZM78.655,12.959a2.9,2.9,0,0,1,2.893,2.893v15.32a2.871,2.871,0,0,1-.468,1.58,9.931,9.931,0,0,0-3.022-2.485,8.251,8.251,0,0,0,.97-3.89V20.472a8.278,8.278,0,0,0-2.8-6.2A2.891,2.891,0,0,1,78.655,12.959ZM65.127,26.378v-1.85L76.31,22.164v4.213a5.59,5.59,0,0,1-5.584,5.584h-.015a5.59,5.59,0,0,1-5.584-5.584ZM68.884,15.2a5.6,5.6,0,0,1,1.839-.311,5.675,5.675,0,0,1,5.483,4.518L65.127,21.748V20.487A5.607,5.607,0,0,1,68.884,15.2Zm-8.056,24.66a7.482,7.482,0,0,1,4.241-7.4,8.346,8.346,0,0,0,11.3,0,7.237,7.237,0,0,1,4.241,6.578v6.448A68.806,68.806,0,0,0,60.828,39.859ZM16.562,26.378v-1.85l11.183-2.363v4.213a5.59,5.59,0,0,1-5.584,5.584h-.015A5.59,5.59,0,0,1,16.562,26.378ZM20.319,15.2a5.6,5.6,0,0,1,1.839-.311,5.675,5.675,0,0,1,5.483,4.518L16.562,21.748c-.129-2.8.867-5.54,3.757-6.548ZM16.5,32.464a8.346,8.346,0,0,0,11.3,0,7.662,7.662,0,0,1,4.259,7.392,67.488,67.488,0,0,0-19.8,5.634V39.041A7.226,7.226,0,0,1,16.5,32.464ZM9.543,40.773v6.16a30.292,30.292,0,0,0-3.3,2.212V44.538a3.8,3.8,0,0,1,3.3-3.765Zm22.5,35.594V80.8l-4.506,2.812a9.6,9.6,0,0,0-.654-4.592,8.353,8.353,0,0,0,3.582-6.828C31.131,72.415,32.043,74.823,32.043,76.367ZM16.562,57.8a5.591,5.591,0,0,1,11.183,0V72.19a5.617,5.617,0,0,1-2.54,4.68,6.492,6.492,0,0,0-4.189-1.528H17.537a5.515,5.515,0,0,1-.976-3.151Zm-2.1,17.544H12.338a7.175,7.175,0,0,1,1.5-3.481A9.062,9.062,0,0,0,14.466,75.342ZM6.244,89.06v-7.2a3.806,3.806,0,0,1,3.8-3.8H21.015a3.806,3.806,0,0,1,3.8,3.8v9.23H8.279A2.037,2.037,0,0,1,6.244,89.06Zm29.335-4.2-8.042,5.088V86.817l6.586-4.11c1.323-.84,3,1.13,1.456,2.156ZM65.127,57.8a5.591,5.591,0,0,1,11.183,0V63.7a5.59,5.59,0,0,1-5.584,5.584h-.015A5.59,5.59,0,0,1,65.127,63.7Zm-8.47,25.981a1.323,1.323,0,0,1,2.037-1.072l6.64,4.144v3.134l-8.1-5.122A1.3,1.3,0,0,1,56.657,83.779Zm8.677-1.915v1.78l-4.506-2.812V76.368A7.214,7.214,0,0,1,65.07,69.79a8.346,8.346,0,0,0,11.3,0,7.222,7.222,0,0,1,4.167,5.552H71.856A6.529,6.529,0,0,0,65.334,81.864Z" transform="translate(0 -0.969)" fill="#b13e8d"/>
      <path id="Trazado_194114" data-name="Trazado 194114" d="M44.894,61.856a9.927,9.927,0,0,0,11.327,9.792l3.513,2.059a1.378,1.378,0,0,0,2.048-1.173V68.856a9.9,9.9,0,1,0-16.887-7Zm9.9-7.176a7.191,7.191,0,0,1,4.733,12.567,1.36,1.36,0,0,0-.462,1.021V70.16l-1.894-1.11c-.665-.39-1.754-.019-2.377-.019-9.521-.394-9.516-13.96,0-14.352Z" transform="translate(-4.189 -4.861)" fill="#b13e8d"/>
      <path id="Trazado_194115" data-name="Trazado 194115" d="M51.2,64.234a1.361,1.361,0,0,0,0-2.72A1.361,1.361,0,0,0,51.2,64.234Z" transform="translate(-4.655 -5.753)" fill="#b13e8d"/>
      <path id="Trazado_194116" data-name="Trazado 194116" d="M55.673,64.234a1.361,1.361,0,0,0,0-2.72A1.361,1.361,0,0,0,55.673,64.234Z" transform="translate(-5.073 -5.753)" fill="#b13e8d"/>
      <path id="Trazado_194117" data-name="Trazado 194117" d="M60.147,64.234a1.361,1.361,0,0,0,0-2.72A1.361,1.361,0,0,0,60.147,64.234Z" transform="translate(-5.49 -5.753)" fill="#b13e8d"/>
      <path id="Trazado_194118" data-name="Trazado 194118" d="M38.3,31.9a1.378,1.378,0,0,0,2.048,1.173l3.513-2.059a9.942,9.942,0,0,0,11.2-11.355,9.85,9.85,0,0,0,3.1.04l3.513,2.059a1.378,1.378,0,0,0,2.048-1.173V16.911a9.9,9.9,0,1,0-16.763-5.439A9.911,9.911,0,0,0,38.3,28.227V31.9ZM56.727,2.734A7.191,7.191,0,0,1,61.461,15.3,1.36,1.36,0,0,0,61,16.323v1.892L59.1,17.105a4.543,4.543,0,0,0-2.377-.019c-9.523-.4-9.515-13.96,0-14.352ZM38.111,21.226a7.209,7.209,0,0,1,9.9-6.642,9.966,9.966,0,0,0,3.95,3.993,7.208,7.208,0,0,1-6.67,9.824,4.543,4.543,0,0,0-2.377.019l-1.894,1.11V27.638a1.36,1.36,0,0,0-.462-1.021,7.179,7.179,0,0,1-2.443-5.391Z" transform="translate(-3.303 -0.014)" fill="#b13e8d"/>
      <path id="Trazado_194119" data-name="Trazado 194119" d="M41.7,24.769a1.361,1.361,0,0,0,0-2.72A1.361,1.361,0,0,0,41.7,24.769Z" transform="translate(-3.769 -2.07)" fill="#b13e8d"/>
      <path id="Trazado_194120" data-name="Trazado 194120" d="M46.171,24.769a1.361,1.361,0,0,0,0-2.72A1.361,1.361,0,0,0,46.171,24.769Z" transform="translate(-4.186 -2.07)" fill="#b13e8d"/>
      <path id="Trazado_194121" data-name="Trazado 194121" d="M50.645,24.769a1.361,1.361,0,0,0,0-2.72A1.361,1.361,0,0,0,50.645,24.769Z" transform="translate(-4.604 -2.07)" fill="#b13e8d"/>
      <path id="Trazado_194122" data-name="Trazado 194122" d="M55.369,13.8a1.36,1.36,0,0,0,1.923,0l1.261-1.261L59.815,13.8a1.361,1.361,0,0,0,1.923-1.923l-1.261-1.261,1.261-1.261a1.361,1.361,0,0,0-1.923-1.923L58.554,8.689,57.292,7.428a1.361,1.361,0,0,0-1.923,1.923l1.261,1.261-1.261,1.261A1.36,1.36,0,0,0,55.369,13.8Z" transform="translate(-5.129 -0.668)" fill="#b13e8d"/>
    </g>
  </g>
</svg>
