<svg xmlns="http://www.w3.org/2000/svg" xmlns:xlink="http://www.w3.org/1999/xlink" width="190" height="112" viewBox="0 0 190 112">
  <defs>
    <linearGradient id="linear-gradient" x1="0.5" x2="0.5" y2="1" gradientUnits="objectBoundingBox">
      <stop offset="0" stop-color="#f7ca2e" stop-opacity="0"/>
      <stop offset="0.091" stop-color="#f7ca2e" stop-opacity="0.129"/>
      <stop offset="0.283" stop-color="#f7ca2e" stop-opacity="0.388"/>
      <stop offset="0.465" stop-color="#f7ca2e" stop-opacity="0.612"/>
      <stop offset="0.633" stop-color="#f7ca2e" stop-opacity="0.78"/>
      <stop offset="0.784" stop-color="#f7ca2e" stop-opacity="0.902"/>
      <stop offset="0.911" stop-color="#f7ca2e" stop-opacity="0.969"/>
      <stop offset="1" stop-color="#f7ca2e"/>
    </linearGradient>
    <linearGradient id="linear-gradient-2" x1="0.5" x2="0.5" y2="1" gradientUnits="objectBoundingBox">
      <stop offset="0" stop-color="#b13e8d" stop-opacity="0"/>
      <stop offset="0.091" stop-color="#b13e8d" stop-opacity="0.129"/>
      <stop offset="0.283" stop-color="#b13e8d" stop-opacity="0.388"/>
      <stop offset="0.465" stop-color="#b13e8d" stop-opacity="0.612"/>
      <stop offset="0.633" stop-color="#b13e8d" stop-opacity="0.78"/>
      <stop offset="0.784" stop-color="#b13e8d"/>
      <stop offset="0.911" stop-color="#b13e8d" stop-opacity="0.969"/>
      <stop offset="1" stop-color="#b13e8d"/>
    </linearGradient>
    <filter id="Rectángulo_40720" x="41" y="4" width="108" height="108" filterUnits="userSpaceOnUse">
      <feOffset dy="3" input="SourceAlpha"/>
      <feGaussianBlur stdDeviation="3" result="blur"/>
      <feFlood flood-opacity="0.161"/>
      <feComposite operator="in" in2="blur"/>
      <feComposite in="SourceGraphic"/>
    </filter>
  </defs>
  <g id="Grupo_136458" data-name="Grupo 136458" transform="translate(-180 -946.893)">
    <g id="Grupo_136182" data-name="Grupo 136182" transform="translate(0 547.893)">
      <rect id="Rectángulo_40586" data-name="Rectángulo 40586" width="190" height="20" transform="translate(180 444)" fill="none"/>
      <g id="Grupo_108405" data-name="Grupo 108405" transform="translate(209.5 463)">
        <path id="Rectángulo_5242" data-name="Rectángulo 5242" d="M0,0H12a0,0,0,0,1,0,0V43.333a3,3,0,0,1-3,3H3a3,3,0,0,1-3-3V0A0,0,0,0,1,0,0Z" transform="translate(0 0)" fill="url(#linear-gradient)"/>
      </g>
      <g id="Grupo_108406" data-name="Grupo 108406" transform="translate(340 451) rotate(180)">
        <path id="Rectángulo_5242-2" data-name="Rectángulo 5242" d="M0,0H12a0,0,0,0,1,0,0V49a3,3,0,0,1-3,3H3a3,3,0,0,1-3-3V0A0,0,0,0,1,0,0Z" transform="translate(0 0)" fill="url(#linear-gradient-2)"/>
      </g>
      <g transform="matrix(1, 0, 0, 1, 180, 399)" filter="url(#Rectángulo_40720)">
        <path id="Rectángulo_40720-2" data-name="Rectángulo 40720" d="M10,0H80A10,10,0,0,1,90,10V90a0,0,0,0,1,0,0H10A10,10,0,0,1,0,80V10A10,10,0,0,1,10,0Z" transform="translate(50 10)" fill="#f6f6f6"/>
      </g>
    </g>
    <g id="analisis" transform="translate(245.256 969.173)">
      <g id="Grupo_136240" data-name="Grupo 136240" transform="translate(0 0.984)">
        <path id="Trazado_194138" data-name="Trazado 194138" d="M44.391,18.965a3.257,3.257,0,1,0-2.6-1.3l-5.345,7.469a3.244,3.244,0,0,0-3.227.711l-3.563-2.022a3.253,3.253,0,1,0-6.36,0l-3.563,2.022a3.248,3.248,0,1,0,.966,1.7l3.563-2.022a3.245,3.245,0,0,0,4.429,0l3.563,2.022a3.253,3.253,0,1,0,5.779-1.27L43.378,18.8A3.243,3.243,0,0,0,44.391,18.965Zm0-4.554a1.3,1.3,0,1,1-1.3,1.3A1.3,1.3,0,0,1,44.391,14.411ZM17.52,29.527a1.3,1.3,0,1,1,1.3-1.3A1.3,1.3,0,0,1,17.52,29.527Zm8.957-5.086a1.3,1.3,0,1,1,1.3-1.3A1.3,1.3,0,0,1,26.477,24.441Zm8.957,5.086a1.3,1.3,0,1,1,1.3-1.3A1.3,1.3,0,0,1,35.434,29.527Z" transform="translate(-1.891 -2.505)" fill="#6836bf"/>
        <path id="Trazado_194139" data-name="Trazado 194139" d="M54.494,49.848H2.761a.81.81,0,0,1-.809-.809V8.778a.81.81,0,0,1,.809-.809h4.6a.976.976,0,1,0,0-1.952h-4.6A2.764,2.764,0,0,0,0,8.778V49.04A2.764,2.764,0,0,0,2.761,51.8H9.489v2.148a2.221,2.221,0,0,0,2.219,2.219h9.769l-4.6,8.978a.976.976,0,1,0,1.737.89l5.054-9.868H34.46l5.054,9.868a.976.976,0,1,0,1.737-.89l-4.6-8.978h9.769a2.221,2.221,0,0,0,2.219-2.219V51.8h5.854a.976.976,0,0,0,0-1.952Zm-7.805,4.1a.267.267,0,0,1-.267.267H11.708a.267.267,0,0,1-.267-.267V51.8H46.688Z" transform="translate(0 -1.651)" fill="#6836bf"/>
        <path id="Trazado_194140" data-name="Trazado 194140" d="M12.837,7.3h44.1a.81.81,0,0,1,.809.809V17.39a.976.976,0,1,0,1.952,0V8.111A2.764,2.764,0,0,0,56.941,5.35H36.053V3.432A2.451,2.451,0,0,0,33.6.984H27.669A2.451,2.451,0,0,0,25.22,3.432V5.35H12.837a.976.976,0,1,0,0,1.952Zm14.336-3.87a.5.5,0,0,1,.5-.5H33.6a.5.5,0,0,1,.5.5V5.35H27.172V3.432Z" transform="translate(-1.572 -0.984)" fill="#6836bf"/>
        <path id="Trazado_194141" data-name="Trazado 194141" d="M15.586,40.136a.976.976,0,0,0-.976.976v8.623a.976.976,0,0,0,.976.976h3.959a.976.976,0,0,0,.976-.976V41.112a.976.976,0,0,0-.976-.976Zm2.983,8.623H16.562V42.088h2.007Z" transform="translate(-1.936 -6.173)" fill="#6836bf"/>
        <path id="Trazado_194142" data-name="Trazado 194142" d="M25.911,34.387a.976.976,0,0,0-.976.976V48.974a.976.976,0,0,0,.976.976h3.959a.976.976,0,0,0,.976-.976V35.363a.976.976,0,0,0-.976-.976ZM28.895,48H26.887V36.339h2.007Z" transform="translate(-3.305 -5.411)" fill="#6836bf"/>
        <path id="Trazado_194143" data-name="Trazado 194143" d="M36.237,40.136a.976.976,0,0,0-.976.976v8.623a.976.976,0,0,0,.976.976H40.2a.976.976,0,0,0,.976-.976V41.112a.976.976,0,0,0-.976-.976ZM39.22,48.76H37.213V42.088H39.22Z" transform="translate(-4.673 -6.173)" fill="#6836bf"/>
        <path id="Trazado_194144" data-name="Trazado 194144" d="M46.562,46.775a.976.976,0,0,0-.976.976v2.865a.976.976,0,0,0,.976.976h3.959a.976.976,0,1,0,0-1.952H47.538V47.751A.976.976,0,0,0,46.562,46.775Z" transform="translate(-6.042 -7.052)" fill="#6836bf"/>
        <path id="Trazado_194145" data-name="Trazado 194145" d="M72,52.841l-5.6-9.7a12.762,12.762,0,1,0-12.619,3.6,12.825,12.825,0,0,0,3.322.44,12.6,12.6,0,0,0,2.873-.332l5.6,9.7A3.71,3.71,0,1,0,72,52.841ZM54.286,44.859a10.8,10.8,0,1,1,8.2-1.079A10.733,10.733,0,0,1,54.286,44.859ZM69.666,56.218a1.76,1.76,0,0,1-2.4-.643l-5.385-9.33a12.809,12.809,0,0,0,3.043-1.759l5.387,9.331a1.756,1.756,0,0,1-.643,2.4Z" transform="translate(-5.875 -3.725)" fill="#6836bf"/>
        <path id="Trazado_194146" data-name="Trazado 194146" d="M66.463,37.705A9.235,9.235,0,0,0,66,31.015a.976.976,0,1,0-1.766.832,7.31,7.31,0,1,1-2.2-2.723.976.976,0,1,0,1.178-1.556,9.267,9.267,0,1,0,3.254,10.138Z" transform="translate(-6.407 -4.258)" fill="#6836bf"/>
      </g>
    </g>
  </g>
</svg>
