<svg xmlns="http://www.w3.org/2000/svg" width="83.205" height="88.98" viewBox="0 0 83.205 88.98">
  <g id="financiero" transform="translate(-9.323 43)">
    <g id="Grupo_136273" data-name="Grupo 136273" transform="translate(9.323 -43)">
      <g id="Grupo_136272" data-name="Grupo 136272">
        <path id="Trazado_194217" data-name="Trazado 194217" d="M49.066,41.063v.717c-.06.016-.12.03-.181.049a4.226,4.226,0,0,0-2.9,3.312,3.762,3.762,0,0,0,1.246,3.7,9.1,9.1,0,0,0,1.834,1.077v5.086a3.784,3.784,0,0,1-1.534-.68,1.3,1.3,0,0,0-1.893.535,1.323,1.323,0,0,0,.5,1.668,6.052,6.052,0,0,0,2.929,1.1v.706a1.3,1.3,0,0,0,2.607,0v-.831a5.09,5.09,0,0,0,3.654-4.04,4.483,4.483,0,0,0-3.047-5.073c-.2-.071-.4-.144-.606-.219V44.4a2.767,2.767,0,0,1,.3.145,1.277,1.277,0,0,0,.748.154l.076-.007a1.28,1.28,0,0,0,.527-2.381,5.445,5.445,0,0,0-1.649-.625v-.627a1.3,1.3,0,0,0-2.607,0Zm0,5.894c-.079-.054-.155-.107-.225-.162a1.211,1.211,0,0,1-.293-1.17,1.807,1.807,0,0,1,.518-.965Zm2.607,4a1.837,1.837,0,0,1,1.083,2.076,2.489,2.489,0,0,1-1.083,1.658Z" transform="translate(-8.853 -5.211)" fill="#b13e8d"/>
        <path id="Trazado_194218" data-name="Trazado 194218" d="M83.785,0H73.711a2.746,2.746,0,0,0-2.743,2.744V2.88h-6.2a1.3,1.3,0,0,0,0,2.607h6.2v14.72A6.2,6.2,0,0,0,67.5,21.8a7.746,7.746,0,0,1-5.66,2.686,7,7,0,0,1-3.894-1.18,10.083,10.083,0,0,0-5.613-1.7H47.8a3.03,3.03,0,0,1-3.014-2.958,2.943,2.943,0,0,1,.863-2.126,3.171,3.171,0,0,1,2.248-.95H56.44a1.3,1.3,0,1,0,0-2.607H44.7a7.019,7.019,0,0,0-4.1,1.316L25.089,25.362a3.016,3.016,0,0,1-3.5-4.911L38.357,8.463a15.871,15.871,0,0,1,9.281-2.976H58.684a1.3,1.3,0,0,0,0-2.607H47.637a18.463,18.463,0,0,0-10.8,3.462L20.069,18.33a5.625,5.625,0,0,0,2.343,10.124,5.691,5.691,0,0,0,.936.078A5.577,5.577,0,0,0,26.6,27.483L31.755,23.8a5.6,5.6,0,0,0,2.021,2.367,21.448,21.448,0,0,0,4.151,38.6H37.52a7.484,7.484,0,0,1-4.167-1.262,9.593,9.593,0,0,0-5.341-1.618,10.2,10.2,0,0,0-7.421,3.372,3.6,3.6,0,0,1-1.708.872v-.06a2.746,2.746,0,0,0-2.743-2.744H6.066a2.746,2.746,0,0,0-2.743,2.744v2.556a1.3,1.3,0,1,0,2.607,0V66.073a.136.136,0,0,1,.136-.137H16.14a.137.137,0,0,1,.136.137V86.236a.137.137,0,0,1-.136.137H6.066a.136.136,0,0,1-.136-.137V74.714a1.3,1.3,0,1,0-2.607,0V86.236A2.746,2.746,0,0,0,6.066,88.98H16.14a2.746,2.746,0,0,0,2.743-2.744V86.1h23.33a18.464,18.464,0,0,0,10.8-3.462L69.782,70.649A5.623,5.623,0,1,0,63.247,61.5L58.1,65.178a5.591,5.591,0,0,0-2.022-2.366,21.448,21.448,0,0,0-4.149-38.6h.407A7.484,7.484,0,0,1,56.5,25.473a9.593,9.593,0,0,0,5.341,1.618,10.2,10.2,0,0,0,7.421-3.372,3.6,3.6,0,0,1,1.708-.872v.06a2.746,2.746,0,0,0,2.743,2.744H83.786a2.746,2.746,0,0,0,2.743-2.744V2.744A2.747,2.747,0,0,0,83.785,0ZM63.726,43.186H60.567a15.626,15.626,0,0,0-3.665-8.83l2.233-2.233a18.766,18.766,0,0,1,4.591,11.063Zm-4.59,13.67L56.9,54.623a15.629,15.629,0,0,0,3.665-8.83h3.159a18.768,18.768,0,0,1-4.591,11.063ZM26.125,45.793h3.159a15.628,15.628,0,0,0,3.665,8.83l-2.233,2.233a18.768,18.768,0,0,1-4.59-11.063Zm4.59-13.67,2.233,2.233a15.627,15.627,0,0,0-3.665,8.83H26.125a18.768,18.768,0,0,1,4.59-11.063Zm27.3,12.366A13.089,13.089,0,1,1,44.926,31.4,13.1,13.1,0,0,1,58.015,44.49Zm-14.393-18.8v3.159a15.627,15.627,0,0,0-8.83,3.665L32.559,30.28a18.768,18.768,0,0,1,11.063-4.591Zm-8.83,30.777a15.626,15.626,0,0,0,8.83,3.665V63.29A18.768,18.768,0,0,1,32.559,58.7ZM46.229,63.29V60.131a15.627,15.627,0,0,0,8.83-3.665L57.292,58.7A18.766,18.766,0,0,1,46.229,63.29Zm8.83-30.777a15.626,15.626,0,0,0-8.83-3.665V25.689A18.768,18.768,0,0,1,57.292,30.28ZM34.414,23.22a3.018,3.018,0,0,1-.464-.987L42.112,16.4a4.461,4.461,0,0,1,.732-.422,5.481,5.481,0,0,0-.66,2.717,5.548,5.548,0,0,0,.543,2.29l-4.109,2.937c-.062.044-.127.083-.192.123q-.6.19-1.177.414A3,3,0,0,1,34.414,23.22Zm30.349,40.4a3.013,3.013,0,0,1,4.2.7,3.023,3.023,0,0,1-.7,4.21L51.494,80.516a15.872,15.872,0,0,1-9.281,2.976H18.883V68.772a6.2,6.2,0,0,0,3.47-1.59,7.746,7.746,0,0,1,5.66-2.686,7,7,0,0,1,3.894,1.18,10.084,10.084,0,0,0,5.613,1.7h4.527a3.03,3.03,0,0,1,3.014,2.958,2.943,2.943,0,0,1-.863,2.126,3.172,3.172,0,0,1-2.248.95H33.411a1.3,1.3,0,0,0,0,2.607H45.151a7.019,7.019,0,0,0,4.1-1.316Zm-9.325,2.142a3.018,3.018,0,0,1,.464.987l-8.162,5.834a4.472,4.472,0,0,1-.732.422,5.479,5.479,0,0,0,.66-2.717A5.55,5.55,0,0,0,47.124,68l4.109-2.937c.062-.044.128-.084.193-.123q.6-.19,1.176-.413A3,3,0,0,1,55.437,65.759ZM83.921,22.907a.136.136,0,0,1-.136.137H73.711a.137.137,0,0,1-.136-.137V2.744a.137.137,0,0,1,.136-.137H83.785a.136.136,0,0,1,.136.137Z" transform="translate(-3.323)" fill="#b13e8d"/>
      </g>
    </g>
  </g>
</svg>
