<svg xmlns="http://www.w3.org/2000/svg" xmlns:xlink="http://www.w3.org/1999/xlink" width="108" height="108" viewBox="0 0 108 108">
  <defs>
    <filter id="Rect치ngulo_43494" x="0" y="0" width="108" height="108" filterUnits="userSpaceOnUse">
      <feOffset dy="3" input="SourceAlpha"/>
      <feGaussianBlur stdDeviation="3" result="blur"/>
      <feFlood flood-opacity="0.161"/>
      <feComposite operator="in" in2="blur"/>
      <feComposite in="SourceGraphic"/>
    </filter>
  </defs>
  <g id="Grupo_136468" data-name="Grupo 136468" transform="translate(-965 -1309)">
    <g transform="matrix(1, 0, 0, 1, 965, 1309)" filter="url(#Rect치ngulo_43494)">
      <path id="Rect치ngulo_43494-2" data-name="Rect치ngulo 43494" d="M10,0H80A10,10,0,0,1,90,10V90a0,0,0,0,1,0,0H10A10,10,0,0,1,0,80V10A10,10,0,0,1,10,0Z" transform="translate(9 6)" fill="#f6f6f6"/>
    </g>
    <g id="toma-de-decisiones" transform="translate(982.563 1323.564)">
      <g id="Grupo_136248" data-name="Grupo 136248" transform="translate(0.003 0)">
        <g id="Grupo_136247" data-name="Grupo 136247">
          <g id="Grupo_136243" data-name="Grupo 136243" transform="translate(33.231 48.183)">
            <path id="Trazado_194156" data-name="Trazado 194156" d="M52.04,74.116a1.067,1.067,0,0,1-1.067-1.067,3.206,3.206,0,0,0-3.2-3.2,1.067,1.067,0,1,1,0-2.135,5.343,5.343,0,0,1,5.337,5.337A1.067,1.067,0,0,1,52.04,74.116Z" transform="translate(-46.703 -67.711)" fill="#6836bf"/>
          </g>
          <g id="Grupo_136244" data-name="Grupo 136244" transform="translate(37.501 40.711)">
            <path id="Trazado_194157" data-name="Trazado 194157" d="M68.714,89.371H53.77A1.067,1.067,0,0,1,52.7,88.3V58.279a1.067,1.067,0,0,1,2.135,0V87.236H67.646V58.279a1.067,1.067,0,1,1,2.135,0V88.3A1.067,1.067,0,0,1,68.714,89.371Z" transform="translate(-52.703 -57.211)" fill="#6836bf"/>
          </g>
          <g id="Grupo_136245" data-name="Grupo 136245" transform="translate(14.943)">
            <path id="Trazado_194158" data-name="Trazado 194158" d="M59.571,27.9A1.067,1.067,0,0,1,58.5,26.835V24.7A18.166,18.166,0,0,0,40.358,6.555h-4.27a1.067,1.067,0,0,1-1.067-1.067V3.21A1.067,1.067,0,0,0,33.2,2.456L23.45,12.2a1.069,1.069,0,0,0,0,1.51L33.2,23.462a1.067,1.067,0,0,0,1.822-.755V20.431a1.067,1.067,0,0,1,1.067-1.067h4.27A5.343,5.343,0,0,1,45.695,24.7v2.135a1.067,1.067,0,0,1-2.135,0V24.7a3.206,3.206,0,0,0-3.2-3.2h-3.2v1.21a3.2,3.2,0,0,1-5.466,2.264L21.94,15.223a3.2,3.2,0,0,1,0-4.529L31.689.946a3.2,3.2,0,0,1,5.466,2.264V4.42h3.2A20.3,20.3,0,0,1,60.638,24.7v2.135A1.067,1.067,0,0,1,59.571,27.9Z" transform="translate(-21.003 0)" fill="#6836bf"/>
          </g>
          <g id="Grupo_136246" data-name="Grupo 136246" transform="translate(0 21.348)">
            <path id="Trazado_194159" data-name="Trazado 194159" d="M34.3,81.523H19.358a1.067,1.067,0,0,1-1.067-1.067V62.172a1.067,1.067,0,0,1,2.135,0V79.388H33.234V54.7a5.343,5.343,0,0,1,5.337-5.337H57.784a1.067,1.067,0,0,1,1.067,1.067v2.277a1.067,1.067,0,0,0,1.822.755l9.749-9.749a1.068,1.068,0,0,0,0-1.51l-9.749-9.749a1.067,1.067,0,0,0-1.822.755v2.277a1.067,1.067,0,0,1-1.067,1.067H38.571A18.166,18.166,0,0,0,20.425,54.7v3.2a1.067,1.067,0,0,1-1.067,1.067h-3.2v1.21a3.2,3.2,0,0,1-5.466,2.264L.941,52.7a3.2,3.2,0,0,1,0-4.529l9.749-9.749a3.2,3.2,0,0,1,5.466,2.264v1.21h6.7A20.251,20.251,0,0,1,38.571,34.42H56.717v-1.21a3.2,3.2,0,0,1,5.466-2.264l9.749,9.749a3.2,3.2,0,0,1,0,4.529l-9.749,9.749a3.2,3.2,0,0,1-5.466-2.264V51.5H38.571a3.206,3.206,0,0,0-3.2,3.2V80.456A1.068,1.068,0,0,1,34.3,81.523ZM12.935,39.612a1.015,1.015,0,0,0-.736.316L2.45,49.676a1.067,1.067,0,0,0,0,1.51L12.2,60.934a1.067,1.067,0,0,0,1.822-.755V57.9a1.067,1.067,0,0,1,1.067-1.067h3.2V54.7a20.158,20.158,0,0,1,3.042-10.674H15.089a1.067,1.067,0,0,1-1.067-1.067V40.682a1.047,1.047,0,0,0-.659-.986,1.145,1.145,0,0,0-.428-.085Z" transform="translate(-0.003 -30)" fill="#6836bf"/>
          </g>
        </g>
      </g>
    </g>
  </g>
</svg>
