<svg xmlns="http://www.w3.org/2000/svg" xmlns:xlink="http://www.w3.org/1999/xlink" width="190" height="112" viewBox="0 0 190 112">
  <defs>
    <linearGradient id="linear-gradient" x1="0.5" x2="0.5" y2="1" gradientUnits="objectBoundingBox">
      <stop offset="0" stop-color="#f7ca2e" stop-opacity="0"/>
      <stop offset="0.091" stop-color="#f7ca2e" stop-opacity="0.129"/>
      <stop offset="0.283" stop-color="#f7ca2e" stop-opacity="0.388"/>
      <stop offset="0.465" stop-color="#f7ca2e" stop-opacity="0.612"/>
      <stop offset="0.633" stop-color="#f7ca2e" stop-opacity="0.78"/>
      <stop offset="0.784" stop-color="#f7ca2e" stop-opacity="0.902"/>
      <stop offset="0.911" stop-color="#f7ca2e" stop-opacity="0.969"/>
      <stop offset="1" stop-color="#f7ca2e"/>
    </linearGradient>
    <linearGradient id="linear-gradient-2" x1="0.5" x2="0.5" y2="1" gradientUnits="objectBoundingBox">
      <stop offset="0" stop-color="#b13e8d" stop-opacity="0"/>
      <stop offset="0.091" stop-color="#b13e8d" stop-opacity="0.129"/>
      <stop offset="0.283" stop-color="#b13e8d" stop-opacity="0.388"/>
      <stop offset="0.465" stop-color="#b13e8d" stop-opacity="0.612"/>
      <stop offset="0.633" stop-color="#b13e8d" stop-opacity="0.78"/>
      <stop offset="0.784" stop-color="#b13e8d"/>
      <stop offset="0.911" stop-color="#b13e8d" stop-opacity="0.969"/>
      <stop offset="1" stop-color="#b13e8d"/>
    </linearGradient>
    <filter id="Rectángulo_40720" x="41" y="4" width="108" height="108" filterUnits="userSpaceOnUse">
      <feOffset dy="3" input="SourceAlpha"/>
      <feGaussianBlur stdDeviation="3" result="blur"/>
      <feFlood flood-opacity="0.161"/>
      <feComposite operator="in" in2="blur"/>
      <feComposite in="SourceGraphic"/>
    </filter>
  </defs>
  <g id="Grupo_136512" data-name="Grupo 136512" transform="translate(-180 -1644)">
    <g id="Grupo_128321" data-name="Grupo 128321" transform="translate(0 1245)">
      <rect id="Rectángulo_40586" data-name="Rectángulo 40586" width="190" height="20" transform="translate(180 444)" fill="none"/>
      <g id="Grupo_108405" data-name="Grupo 108405" transform="translate(209.5 463)">
        <path id="Rectángulo_5242" data-name="Rectángulo 5242" d="M0,0H12a0,0,0,0,1,0,0V43.333a3,3,0,0,1-3,3H3a3,3,0,0,1-3-3V0A0,0,0,0,1,0,0Z" transform="translate(0 0)" fill="url(#linear-gradient)"/>
      </g>
      <g id="Grupo_108406" data-name="Grupo 108406" transform="translate(340 451) rotate(180)">
        <path id="Rectángulo_5242-2" data-name="Rectángulo 5242" d="M0,0H12a0,0,0,0,1,0,0V49a3,3,0,0,1-3,3H3a3,3,0,0,1-3-3V0A0,0,0,0,1,0,0Z" transform="translate(0 0)" fill="url(#linear-gradient-2)"/>
      </g>
      <g transform="matrix(1, 0, 0, 1, 180, 399)" filter="url(#Rectángulo_40720)">
        <path id="Rectángulo_40720-2" data-name="Rectángulo 40720" d="M10,0H80A10,10,0,0,1,90,10V90a0,0,0,0,1,0,0H10A10,10,0,0,1,0,80V10A10,10,0,0,1,10,0Z" transform="translate(50 10)" fill="#f6f6f6"/>
      </g>
    </g>
    <g id="ensenar" transform="translate(241.691 1663.845)">
      <g id="Grupo_136233" data-name="Grupo 136233" transform="translate(0 0.064)">
        <g id="Grupo_136232" data-name="Grupo 136232">
          <g id="Grupo_136231" data-name="Grupo 136231">
            <path id="Trazado_194109" data-name="Trazado 194109" d="M77.15,20.82H95.13a1.034,1.034,0,0,0,0-2.068H77.15a1.034,1.034,0,0,0,0,2.068Z" transform="translate(-34.141 -8.446)" fill="#6836bf"/>
            <path id="Trazado_194110" data-name="Trazado 194110" d="M77.15,30.935H95.13a1.034,1.034,0,0,0,0-2.068H77.15a1.034,1.034,0,0,0,0,2.068Z" transform="translate(-34.141 -12.983)" fill="#6836bf"/>
            <path id="Trazado_194111" data-name="Trazado 194111" d="M77.15,41.05H83.4a1.034,1.034,0,0,0,0-2.068H77.15a1.034,1.034,0,1,0,0,2.068Z" transform="translate(-34.141 -17.52)" fill="#6836bf"/>
            <path id="Trazado_194112" data-name="Trazado 194112" d="M68.158.064H21.267a2.432,2.432,0,0,0-2.429,2.429V3.834a2.432,2.432,0,0,0,2.429,2.429h.286v6.249a1.034,1.034,0,1,0,2.068,0V6.264H65.8V31.156a.5.5,0,0,1-.5.5H49.394l2.091-5.522A1.034,1.034,0,0,0,49.55,25.4l-2.368,6.254H37.05a1.034,1.034,0,1,0,0,2.068H46.4l-1.9,5.021a2.647,2.647,0,0,0-1.583.709L41.028,41.22,41,41.244a3.606,3.606,0,0,0-1.031,2.084,25.811,25.811,0,0,1-1.124,3.49,2.094,2.094,0,0,0-.851,1.1l-1.241,3.7a14.437,14.437,0,0,0-6.226-4.276,7.092,7.092,0,0,0,3.789-9.513l-.036-.077c-1.479-3.187-.9-5.912-1.032-8.555A13.053,13.053,0,0,0,32,23.594h4.216a2.322,2.322,0,0,0,2.32-2.32V12.689a2.322,2.322,0,0,0-2.32-2.32H30.042a2.322,2.322,0,0,0-2.32,2.32v5.8a13.126,13.126,0,0,0-20.735,10.7l0,3.774a11.682,11.682,0,0,1-1.065,4.855,7.092,7.092,0,0,0,3.791,9.518A14.505,14.505,0,0,0,0,61.05v6A3.538,3.538,0,0,0,3.534,70.58H37.575a4.749,4.749,0,0,0,4.683-3.928l2.968-16.809a2.1,2.1,0,0,0-.094-1.081l.111-.628a3.22,3.22,0,0,1,.9-1.73l.013-.013.011-.012.776-.808a4.181,4.181,0,0,0-.478-6.191l2.143-5.66h16.7a2.568,2.568,0,0,0,2.565-2.565V6.264h.286a2.432,2.432,0,0,0,2.429-2.429V2.494A2.432,2.432,0,0,0,68.158.064ZM32.406,38.611l.03.066a4.985,4.985,0,0,1-.173,4.514,4.9,4.9,0,0,1-3.618,2.519L25,43.895V41.8a9.344,9.344,0,0,0,3.929-4.893A4.153,4.153,0,0,0,31.57,36.2,12.951,12.951,0,0,0,32.406,38.611Zm-5.1,13.332c.37.459.581.535.518.757-.477,1.7-2.672,4.4-4.8,6.694a41.6,41.6,0,0,0,2.162-6.153,16.409,16.409,0,0,0,.326-6.779l2.251,1.122a.25.25,0,0,1,.133.163.265.265,0,0,1,.008.086s0,.008,0,.013a.249.249,0,0,1-.041.109L27.1,49.112a2.325,2.325,0,0,0,.2,2.831ZM13.135,49.112l-.766-1.157a.249.249,0,0,1-.04-.108v-.015a.268.268,0,0,1,.008-.084.252.252,0,0,1,.078-.126l.006,0a.255.255,0,0,1,.049-.033l2.251-1.122a16.411,16.411,0,0,0,.326,6.779,41.6,41.6,0,0,0,2.162,6.153c-2.124-2.3-4.319-4.995-4.8-6.694-.063-.223.151-.3.518-.757a2.325,2.325,0,0,0,.206-2.832Zm4.072-4.251a4.276,4.276,0,0,0,.1-.921V42.751a9.363,9.363,0,0,0,5.632,0V43.94a4.4,4.4,0,0,0,.1.921,14.513,14.513,0,0,1,.524,5.953,10.365,10.365,0,0,1-6.873,0A14.511,14.511,0,0,1,17.207,44.86ZM12.863,33.976V30.588a.832.832,0,0,1,.869-.829,11.729,11.729,0,0,0,8.688-3.35,1.959,1.959,0,0,1,2.99.312A19.065,19.065,0,0,0,27.156,28.9a.823.823,0,0,1,.22.562v4.517a7.258,7.258,0,0,1-14.513,0Zm4.289,19.133a12.46,12.46,0,0,0,5.934,0A44.715,44.715,0,0,1,20.6,59.78c-.165.373-.327.74-.484,1.1-.157-.364-.319-.731-.484-1.1A44.706,44.706,0,0,1,17.152,53.109ZM31.185,32.976a1.871,1.871,0,0,1-1.793,1.863c.092-.886.035-1.245.052-3.743a1.878,1.878,0,0,1,1.741,1.856v.012s0,.008,0,.012ZM29.79,12.689a.252.252,0,0,1,.252-.252h6.172a.252.252,0,0,1,.252.252v8.585a.252.252,0,0,1-.252.252H30.777a13.231,13.231,0,0,0-.987-1.211V12.689ZM9.055,29.189a11.064,11.064,0,1,1,22.128,0V29.5a3.919,3.919,0,0,0-1.775-.472,2.879,2.879,0,0,0-.736-1.534h0a16.99,16.99,0,0,1-1.556-1.939,4.028,4.028,0,0,0-6.141-.62,9.671,9.671,0,0,1-7.165,2.762,2.885,2.885,0,0,0-2.559,1.34,4.2,4.2,0,0,0-2.2.47Zm1.789,5.628a1.858,1.858,0,0,1-.05-3.71c.016,2.529-.039,2.836.05,3.71ZM7.975,43.191c-1.55-2.818.108-4.557.7-7.007a4.169,4.169,0,0,0,2.626.7A9.291,9.291,0,0,0,13.572,40.5a9.385,9.385,0,0,0,1.664,1.3v2.091L11.593,45.71A4.9,4.9,0,0,1,7.975,43.191Zm32.246,23.1a2.683,2.683,0,0,1-2.646,2.22H8.882v-4.49a1.034,1.034,0,1,0-2.068,0v4.49H3.534a1.468,1.468,0,0,1-1.466-1.466v-6A12.442,12.442,0,0,1,10.7,49.184l.708,1.069a.256.256,0,0,1-.023.312,2.755,2.755,0,0,0-.967,2.695c.94,3.345,6.619,9.138,9.006,11.3a1.034,1.034,0,0,0,1.395-.008c.806-.745,7.9-7.391,9-11.289a2.727,2.727,0,0,0-.967-2.695.256.256,0,0,1-.022-.312l.707-1.068a12.4,12.4,0,0,1,6.428,4.789l-3.015,8.981a1.034,1.034,0,1,0,1.961.658l5.049-15.041A.032.032,0,0,1,40,48.551l3.169.9a.032.032,0,0,1,.023.037ZM45.454,44.14l-.767.8a5.27,5.27,0,0,0-1.382,2.4L41.069,46.7a18.433,18.433,0,0,0,.953-3.1,1.554,1.554,0,0,1,.434-.888L44.33,40.96a.588.588,0,0,1,.813.008l.262.256A2.076,2.076,0,0,1,45.454,44.14ZM68.519,3.834a.362.362,0,0,1-.361.361H21.267a.362.362,0,0,1-.361-.361V2.494a.362.362,0,0,1,.361-.361h46.89a.362.362,0,0,1,.361.361Z" transform="translate(0 -0.064)" fill="#6836bf"/>
          </g>
        </g>
      </g>
    </g>
  </g>
</svg>
