<svg xmlns="http://www.w3.org/2000/svg" xmlns:xlink="http://www.w3.org/1999/xlink" width="108" height="108" viewBox="0 0 108 108">
  <defs>
    <filter id="Rect치ngulo_43495" x="0" y="0" width="108" height="108" filterUnits="userSpaceOnUse">
      <feOffset dy="3" input="SourceAlpha"/>
      <feGaussianBlur stdDeviation="3" result="blur"/>
      <feFlood flood-opacity="0.161"/>
      <feComposite operator="in" in2="blur"/>
      <feComposite in="SourceGraphic"/>
    </filter>
  </defs>
  <g id="Grupo_136469" data-name="Grupo 136469" transform="translate(-537 -1453)">
    <g transform="matrix(1, 0, 0, 1, 537, 1453)" filter="url(#Rect치ngulo_43495)">
      <path id="Rect치ngulo_43495-2" data-name="Rect치ngulo 43495" d="M10,0H80A10,10,0,0,1,90,10V90a0,0,0,0,1,0,0H10A10,10,0,0,1,0,80V10A10,10,0,0,1,10,0Z" transform="translate(9 6)" fill="#f6f6f6"/>
    </g>
    <g id="persona-de-libre-dedicacion" transform="translate(552.471 1466.9)">
      <g id="Grupo_136262" data-name="Grupo 136262" transform="translate(3.497 0)">
        <g id="Grupo_136260" data-name="Grupo 136260" transform="translate(8.474 43.188)">
          <g id="Grupo_136259" data-name="Grupo 136259" transform="translate(0)">
            <g id="Grupo_136258" data-name="Grupo 136258">
              <g id="Grupo_136257" data-name="Grupo 136257">
                <path id="Trazado_194170" data-name="Trazado 194170" d="M62.332,85.032H20.985a2.717,2.717,0,0,1-2.685-2.3L15.069,61.943a2.718,2.718,0,0,1,2.685-3.135h47.81a2.717,2.717,0,0,1,2.685,3.135L65.017,82.732A2.717,2.717,0,0,1,62.332,85.032Z" transform="translate(-15.036 -58.808)" fill="#f9f7f8"/>
                <path id="Trazado_194171" data-name="Trazado 194171" d="M80.545,58.809H74.67a2.717,2.717,0,0,1,2.685,3.135L74.124,82.732a2.717,2.717,0,0,1-2.685,2.3h5.875A2.717,2.717,0,0,0,80,82.732l3.231-20.788A2.717,2.717,0,0,0,80.545,58.809Z" transform="translate(-30.018 -58.808)" fill="#e5eef9"/>
                <path id="Trazado_194172" data-name="Trazado 194172" d="M63.807,99.183H21.853a2.373,2.373,0,0,1,0-4.746H63.807a2.373,2.373,0,0,1,0,4.746Z" transform="translate(-16.216 -68.272)" fill="#d5e3f4"/>
                <path id="Trazado_194173" data-name="Trazado 194173" d="M77.715,94.438H71.84a2.373,2.373,0,1,1,0,4.746h5.875a2.373,2.373,0,1,0,0-4.746Z" transform="translate(-30.124 -68.272)" fill="#b3ceec"/>
              </g>
              <ellipse id="Elipse_5441" data-name="Elipse 5441" cx="5.264" cy="3.902" rx="5.264" ry="3.902" transform="translate(21.359 10.804)" fill="#d5e3f4"/>
            </g>
          </g>
        </g>
        <g id="Grupo_136261" data-name="Grupo 136261">
          <path id="Trazado_194174" data-name="Trazado 194174" d="M72.662,65.341a58.146,58.146,0,0,0-7.749-10.163l1.359-8.745A3.876,3.876,0,0,0,62.5,42.028H49.262A15.981,15.981,0,0,0,54.352,30.2a4.075,4.075,0,0,0,4.261-3.918V20.121A20.053,20.053,0,0,0,51.19,4.513,1.1,1.1,0,1,0,49.8,6.222a17.859,17.859,0,0,1,6.611,13.9v2.656a4.136,4.136,0,0,0-2.058-.412V20.6a4.287,4.287,0,0,0-4.282-4.282H45.98a8.1,8.1,0,0,1-5.721-2.346,2.5,2.5,0,0,0-3.541,0A8.1,8.1,0,0,1,31,16.319h-4.09A4.287,4.287,0,0,0,22.625,20.6v1.764a4.136,4.136,0,0,0-2.058.412V20.121A18.1,18.1,0,0,1,38.488,2.2a17.764,17.764,0,0,1,7.649,1.709,1.1,1.1,0,1,0,.941-1.992A20.137,20.137,0,0,0,29.9,1.929a4.286,4.286,0,0,0-6.258-.861A6.971,6.971,0,0,0,20.1.114a7.053,7.053,0,0,0-7.045,7.045V34.581a2.64,2.64,0,0,0,2.637,2.637,11.38,11.38,0,0,0,7.465-2.764,15.778,15.778,0,0,0,1.594,3.869,15.941,15.941,0,0,0,2.963,3.7H14.689a3.876,3.876,0,0,0-3.774,4.406l1.3,8.353a56.753,56.753,0,0,0-7.84,10.569A6.6,6.6,0,0,0,10.01,75.2H23.287a1.1,1.1,0,0,0,0-2.2H17.608a1.271,1.271,0,1,1,0-2.543H59.561a1.271,1.271,0,0,1,0,2.543h-31.4a1.1,1.1,0,1,0,0,2.2H67.035a6.591,6.591,0,0,0,5.628-9.86Zm-5.221-3.677-3.777,1.547.817-5.253A43,43,0,0,1,67.441,61.664Zm-12.778-37.1a1.717,1.717,0,0,1,1.715,1.715A1.831,1.831,0,0,1,54.352,28v-3.43Zm-32.35,0h.311V28h-.311a1.715,1.715,0,0,1,0-3.43Zm5.509-21.71c.043.043.08.089.119.134a20.284,20.284,0,0,0-5.8,5.413A2.05,2.05,0,0,1,22.2,5.6l2.739-2.739a2.039,2.039,0,0,1,2.88,0ZM15.688,35.014a.434.434,0,0,1-.433-.433V7.159A4.846,4.846,0,0,1,21.986,2.7L20.645,4.04a4.29,4.29,0,0,0,.287,6.256,19.993,19.993,0,0,0-2.568,9.825v6.162A4.075,4.075,0,0,0,22.625,30.2q0,.8.065,1.605A9.2,9.2,0,0,1,15.688,35.014Zm9.238-2.975a15.689,15.689,0,0,1-.1-1.646V20.6a2.081,2.081,0,0,1,2.079-2.079H31a10.294,10.294,0,0,0,7.267-2.98.314.314,0,0,1,.448,0,10.294,10.294,0,0,0,7.267,2.98h4.09A2.081,2.081,0,0,1,52.149,20.6v9.791a13.734,13.734,0,0,1-6.5,11.635H31.332a13.543,13.543,0,0,1-6.405-9.989ZM12.645,57.565l.819,5.27-3.79-1.552A43.053,43.053,0,0,1,12.645,57.565ZM10.01,73a4.371,4.371,0,0,1-3.736-6.528c.605-1.032,1.308-2.127,2.133-3.325l5.452,2.234.287,1.845a3.815,3.815,0,0,0,1,2.049A3.467,3.467,0,0,0,14.375,73H10.01Zm7.91-4.746a1.608,1.608,0,0,1-1.6-1.368L13.092,46.1a1.631,1.631,0,0,1,1.6-1.864H62.5A1.631,1.631,0,0,1,64.1,46.1L60.864,66.884a1.608,1.608,0,0,1-1.6,1.368H17.92Zm52.9,2.54A4.3,4.3,0,0,1,67.035,73H62.794a3.466,3.466,0,0,0-.767-3.716,3.814,3.814,0,0,0,1.013-2.059l.228-1.468,5.521-2.261c.7.944,1.361,1.942,1.982,2.98a4.243,4.243,0,0,1,.044,4.319Z" transform="translate(-3.497 0)" fill="#6836bf"/>
          <path id="Trazado_194175" data-name="Trazado 194175" d="M54.229,46.612a1.1,1.1,0,0,0-1.558,0,4.9,4.9,0,0,1-6.914,0A1.1,1.1,0,1,0,44.2,48.17a7.109,7.109,0,0,0,10.026,0A1.1,1.1,0,0,0,54.229,46.612Z" transform="translate(-14.223 -12.295)" fill="#6836bf"/>
          <path id="Trazado_194176" data-name="Trazado 194176" d="M48.986,72.02c-3.51,0-6.365,2.245-6.365,5s2.856,5,6.365,5,6.365-2.245,6.365-5S52.5,72.02,48.986,72.02Zm0,7.8c-2.256,0-4.162-1.283-4.162-2.8s1.906-2.8,4.162-2.8,4.162,1.283,4.162,2.8S51.242,79.825,48.986,79.825Z" transform="translate(-13.889 -19.13)" fill="#6836bf"/>
        </g>
      </g>
    </g>
  </g>
</svg>
