<svg xmlns="http://www.w3.org/2000/svg" xmlns:xlink="http://www.w3.org/1999/xlink" width="108" height="108" viewBox="0 0 108 108">
  <defs>
    <filter id="Rect치ngulo_43496" x="0" y="0" width="108" height="108" filterUnits="userSpaceOnUse">
      <feOffset dy="3" input="SourceAlpha"/>
      <feGaussianBlur stdDeviation="3" result="blur"/>
      <feFlood flood-opacity="0.161"/>
      <feComposite operator="in" in2="blur"/>
      <feComposite in="SourceGraphic"/>
    </filter>
  </defs>
  <g id="Grupo_136470" data-name="Grupo 136470" transform="translate(-965 -1600)">
    <g transform="matrix(1, 0, 0, 1, 965, 1600)" filter="url(#Rect치ngulo_43496)">
      <path id="Rect치ngulo_43496-2" data-name="Rect치ngulo 43496" d="M10,0H80A10,10,0,0,1,90,10V90a0,0,0,0,1,0,0H10A10,10,0,0,1,0,80V10A10,10,0,0,1,10,0Z" transform="translate(9 6)" fill="#f6f6f6"/>
    </g>
    <g id="lista-de-verificacion" transform="translate(982.201 1618.023)">
      <g id="Grupo_136264" data-name="Grupo 136264" transform="translate(7.778 0)">
        <g id="Grupo_136263" data-name="Grupo 136263">
          <path id="Trazado_194177" data-name="Trazado 194177" d="M8.781,55.118a1,1,0,0,0,1-1V3.163a1.159,1.159,0,0,1,1.158-1.158H56.31a1.159,1.159,0,0,1,1.158,1.158V13.786a1,1,0,0,0,2.005,0V3.163A3.166,3.166,0,0,0,56.31,0H10.941A3.166,3.166,0,0,0,7.778,3.163V54.116a1,1,0,0,0,1,1Z" transform="translate(-7.778 0)" fill="#6836bf"/>
          <path id="Trazado_194178" data-name="Trazado 194178" d="M31.165,15.861a2.935,2.935,0,0,0-2.931-2.931H18.589a2.935,2.935,0,0,0-2.931,2.931v9.645a2.935,2.935,0,0,0,2.931,2.932h9.645a2.935,2.935,0,0,0,2.931-2.932ZM29.16,25.506a.928.928,0,0,1-.926.927H18.589a.927.927,0,0,1-.926-.927V15.861a.928.928,0,0,1,.926-.926h9.645a.927.927,0,0,1,.926.926Z" transform="translate(-10.391 -4.288)" fill="#6836bf"/>
          <path id="Trazado_194179" data-name="Trazado 194179" d="M27.547,20.766l-2.712,2.712-1-1a1,1,0,1,0-1.418,1.418l1.71,1.71a1,1,0,0,0,1.418,0l3.421-3.421a1,1,0,1,0-1.418-1.418Z" transform="translate(-12.536 -6.79)" fill="#6836bf"/>
          <path id="Trazado_194180" data-name="Trazado 194180" d="M46.157,24.633h15.8a1,1,0,0,0,0-2.005h-15.8a1,1,0,0,0,0,2.005Z" transform="translate(-20.174 -7.505)" fill="#6836bf"/>
          <path id="Trazado_194181" data-name="Trazado 194181" d="M70.492,16.163H60.905a1,1,0,0,0,0,2.005h9.587a1,1,0,0,0,0-2.005Z" transform="translate(-25.066 -5.36)" fill="#6836bf"/>
          <path id="Trazado_194182" data-name="Trazado 194182" d="M46.157,18.168h5.131a1,1,0,0,0,0-2.005H46.157a1,1,0,0,0,0,2.005Z" transform="translate(-20.174 -5.36)" fill="#6836bf"/>
          <path id="Trazado_194183" data-name="Trazado 194183" d="M55.248,29.093a1,1,0,0,0,0,2.005h5.266a1,1,0,1,0,0-2.005Z" transform="translate(-23.189 -9.649)" fill="#6836bf"/>
          <path id="Trazado_194184" data-name="Trazado 194184" d="M46.157,31.1h1.35a1,1,0,0,0,0-2.005h-1.35a1,1,0,0,0,0,2.005Z" transform="translate(-20.174 -9.649)" fill="#6836bf"/>
          <path id="Trazado_194185" data-name="Trazado 194185" d="M31.165,42.53A2.935,2.935,0,0,0,28.234,39.6H18.589a2.935,2.935,0,0,0-2.931,2.931v9.645a2.935,2.935,0,0,0,2.931,2.931h9.645a2.935,2.935,0,0,0,2.931-2.931ZM29.16,52.175a.928.928,0,0,1-.926.926H18.589a.927.927,0,0,1-.926-.926V42.53a.928.928,0,0,1,.926-.926h9.645a.927.927,0,0,1,.926.926Z" transform="translate(-10.391 -13.133)" fill="#6836bf"/>
          <path id="Trazado_194186" data-name="Trazado 194186" d="M27.547,47.435l-2.712,2.712-1-1a1,1,0,0,0-1.418,1.418l1.71,1.71a1,1,0,0,0,1.418,0l3.421-3.421a1,1,0,0,0-1.418-1.418Z" transform="translate(-12.536 -15.635)" fill="#6836bf"/>
          <path id="Trazado_194187" data-name="Trazado 194187" d="M62.957,50.3a1,1,0,0,0-1-1h-15.8a1,1,0,0,0,0,2.005h15.8A1,1,0,0,0,62.957,50.3Z" transform="translate(-20.174 -16.349)" fill="#6836bf"/>
          <path id="Trazado_194188" data-name="Trazado 194188" d="M71.495,43.833a1,1,0,0,0-1-1H60.905a1,1,0,0,0,0,2.005h9.587A1,1,0,0,0,71.495,43.833Z" transform="translate(-25.066 -14.205)" fill="#6836bf"/>
          <path id="Trazado_194189" data-name="Trazado 194189" d="M46.157,44.836h5.131a1,1,0,1,0,0-2.005H46.157a1,1,0,0,0,0,2.005Z" transform="translate(-20.174 -14.205)" fill="#6836bf"/>
          <path id="Trazado_194190" data-name="Trazado 194190" d="M61.517,56.764a1,1,0,0,0-1-1H55.248a1,1,0,1,0,0,2.005h5.266A1,1,0,0,0,61.517,56.764Z" transform="translate(-23.189 -18.494)" fill="#6836bf"/>
          <path id="Trazado_194191" data-name="Trazado 194191" d="M46.157,57.766h1.35a1,1,0,0,0,0-2.005h-1.35a1,1,0,0,0,0,2.005Z" transform="translate(-20.174 -18.494)" fill="#6836bf"/>
          <path id="Trazado_194192" data-name="Trazado 194192" d="M28.234,66.267H18.589A2.935,2.935,0,0,0,15.657,69.2v9.645a2.935,2.935,0,0,0,2.931,2.931h9.645a2.935,2.935,0,0,0,2.931-2.931V69.2A2.935,2.935,0,0,0,28.234,66.267Zm.926,12.576a.928.928,0,0,1-.926.926H18.589a.927.927,0,0,1-.926-.926V69.2a.928.928,0,0,1,.926-.927h9.645a.927.927,0,0,1,.926.927Z" transform="translate(-10.391 -21.978)" fill="#6836bf"/>
          <path id="Trazado_194193" data-name="Trazado 194193" d="M27.547,74.1l-2.712,2.712-1-1a1,1,0,0,0-1.418,1.418l1.71,1.71a1,1,0,0,0,1.418,0l3.421-3.421A1,1,0,1,0,27.547,74.1Z" transform="translate(-12.536 -24.48)" fill="#6836bf"/>
          <path id="Trazado_194194" data-name="Trazado 194194" d="M46.157,71.5h5.131a1,1,0,0,0,0-2.005H46.157a1,1,0,0,0,0,2.005Z" transform="translate(-20.174 -23.05)" fill="#6836bf"/>
          <path id="Trazado_194195" data-name="Trazado 194195" d="M47.507,84.434a1,1,0,0,0,0-2.005h-1.35a1,1,0,0,0,0,2.005Z" transform="translate(-20.174 -27.338)" fill="#6836bf"/>
          <path id="Trazado_194196" data-name="Trazado 194196" d="M65.785,43.982a1,1,0,0,0-.467-.609l-4.677-2.7a1,1,0,0,0-1.168.12V27.131a1,1,0,0,0-2.005,0V44.164L51.145,55.115H43.617a1,1,0,0,0,0,2.005h6.37l-1.337,2.315H33.76a1,1,0,1,0,0,2.005H47.493l-1.337,2.316H39.837a1,1,0,0,0,0,2.005H45l-2.187,3.787A6.354,6.354,0,0,0,42,73.479l.185,1.62H10.941a1.159,1.159,0,0,1-1.158-1.158V67.46a1,1,0,0,0-2.005,0v6.482A3.166,3.166,0,0,0,10.941,77.1H56.31a3.166,3.166,0,0,0,3.163-3.163V55.5l6.212-10.76a1,1,0,0,0,.1-.761Zm-5.926,6.842-2.941-1.7,1.158-2.006,2.941,1.7ZM57.468,73.941A1.159,1.159,0,0,1,56.31,75.1h-8.7a6.432,6.432,0,0,0,1.612-1.847l3.922-6.792a1,1,0,0,0-1.736-1l-3.922,6.792a4.431,4.431,0,0,1-2.058,1.835l-1.285.558-.159-1.392a4.365,4.365,0,0,1,.561-2.7L55.916,50.862l2.941,1.7L53.75,61.406a1,1,0,0,0,1.736,1l1.982-3.432V73.941Zm4.552-26.859-2.941-1.7,1.428-2.473,2.941,1.7Z" transform="translate(-7.778 -8.666)" fill="#6836bf"/>
        </g>
      </g>
    </g>
  </g>
</svg>
