<svg xmlns="http://www.w3.org/2000/svg" xmlns:xlink="http://www.w3.org/1999/xlink" width="108" height="108" viewBox="0 0 108 108">
  <defs>
    <filter id="Rect치ngulo_43497" x="0" y="0" width="108" height="108" filterUnits="userSpaceOnUse">
      <feOffset dy="3" input="SourceAlpha"/>
      <feGaussianBlur stdDeviation="3" result="blur"/>
      <feFlood flood-opacity="0.161"/>
      <feComposite operator="in" in2="blur"/>
      <feComposite in="SourceGraphic"/>
    </filter>
  </defs>
  <g id="Grupo_136471" data-name="Grupo 136471" transform="translate(-536 -1739)">
    <g transform="matrix(1, 0, 0, 1, 536, 1739)" filter="url(#Rect치ngulo_43497)">
      <path id="Rect치ngulo_43497-2" data-name="Rect치ngulo 43497" d="M10,0H80A10,10,0,0,1,90,10V90a0,0,0,0,1,0,0H10A10,10,0,0,1,0,80V10A10,10,0,0,1,10,0Z" transform="translate(9 6)" fill="#f6f6f6"/>
    </g>
    <g id="carpeta" transform="translate(557.837 1759.3)">
      <g id="Grupo_136265" data-name="Grupo 136265" transform="translate(3.654 0)">
        <path id="Trazado_194197" data-name="Trazado 194197" d="M49.293,81.534H6.954a1.5,1.5,0,0,1-1.5-1.5V55.679a.9.9,0,1,0-1.8,0V80.033a3.3,3.3,0,0,0,3.3,3.3H49.293a.9.9,0,0,0,0-1.8Z" transform="translate(-3.654 -21.933)" fill="#6836bf"/>
        <path id="Trazado_194198" data-name="Trazado 194198" d="M24.037,29.91a.9.9,0,0,0,.8.482H57.372a1.5,1.5,0,0,1,1.5,1.5V58.1a1.5,1.5,0,0,1-1.5,1.5H53.491a.9.9,0,1,0,0,1.8h3.881a3.3,3.3,0,0,0,3.3-3.3V31.894a3.3,3.3,0,0,0-3.3-3.3H54.721V15.222a.9.9,0,0,0-.263-.636L49.331,9.459V2.7a2.7,2.7,0,0,0-2.7-2.7H11.57a2.7,2.7,0,0,0-2.7,2.7V22.642H6.354a2.7,2.7,0,0,0-2.7,2.7v4.193a.9.9,0,1,0,1.8,0V25.342a.9.9,0,0,1,.9-.9H20.63a.9.9,0,0,1,.8.483l2.609,4.986ZM44.417,7.089l7.233,7.233H46.007a1.591,1.591,0,0,1-1.59-1.59ZM10.669,2.7a.9.9,0,0,1,.9-.9H46.631a.9.9,0,0,1,.9.9V7.66L44.154,4.281a.907.907,0,0,0-.636-.263H18.479A3.392,3.392,0,0,0,15.09,7.406V22.642H10.669ZM25.378,28.594l-.929-1.776H47.9a.9.9,0,1,0,0-1.8H23.508l-.486-.928a2.692,2.692,0,0,0-2.392-1.448h-3.74V7.406a1.591,1.591,0,0,1,1.59-1.59H42.618v6.916a3.392,3.392,0,0,0,3.388,3.388h6.916V28.594Z" transform="translate(-3.654 0)" fill="#6836bf"/>
        <path id="Trazado_194199" data-name="Trazado 194199" d="M59.562,31.791H33.677a.9.9,0,0,0,0,1.8H59.562a.9.9,0,0,0,0-1.8Z" transform="translate(-15.314 -12.729)" fill="#6836bf"/>
      </g>
    </g>
  </g>
</svg>
